G04 #@! TF.FileFunction,Copper,L1,Top,Signal*
%FSLAX46Y46*%
G04 Gerber Fmt 4.6, Leading zero omitted, Abs format (unit mm)*
G04 Created by KiCad (PCBNEW 4.0.7) date Sat Oct 14 14:29:21 2017*
%MOMM*%
%LPD*%
G01*
G04 APERTURE LIST*
%ADD10C,0.100000*%
%ADD11R,1.000000X1.500000*%
%ADD12R,2.500000X4.000000*%
%ADD13R,2.350000X2.350000*%
%ADD14C,2.350000*%
%ADD15R,1.800000X1.800000*%
%ADD16C,1.800000*%
%ADD17C,2.400000*%
%ADD18R,1.700000X1.700000*%
%ADD19O,1.700000X1.700000*%
%ADD20C,2.800000*%
%ADD21R,2.800000X2.800000*%
%ADD22O,0.900000X1.500000*%
%ADD23R,0.900000X1.500000*%
%ADD24C,1.600000*%
%ADD25O,1.600000X1.600000*%
%ADD26C,2.000000*%
%ADD27R,1.600000X2.400000*%
%ADD28O,1.600000X2.400000*%
%ADD29R,1.780000X2.000000*%
%ADD30O,1.800000X1.800000*%
%ADD31C,0.600000*%
%ADD32C,0.254000*%
%ADD33C,1.400000*%
G04 APERTURE END LIST*
D10*
D11*
X174718980Y-122428000D03*
X172720000Y-122428000D03*
X162722560Y-122428000D03*
X162722560Y-110228000D03*
X164721540Y-110228000D03*
X170718480Y-110228000D03*
X168722040Y-110228000D03*
X172720000Y-110228000D03*
X166723060Y-110228000D03*
X170718480Y-122428000D03*
X164721540Y-122428000D03*
X168722040Y-122428000D03*
X166723060Y-122428000D03*
X174718980Y-110228000D03*
D12*
X156210000Y-111758000D03*
X156210000Y-117858000D03*
D13*
X122876000Y-112304000D03*
D14*
X128076000Y-104104000D03*
X128076000Y-112304000D03*
X122876000Y-104104000D03*
D15*
X144780000Y-113792000D03*
D16*
X144780000Y-111252000D03*
D17*
X125596000Y-85852000D03*
X140596000Y-85852000D03*
D18*
X163830000Y-125730000D03*
D19*
X166370000Y-125730000D03*
X168910000Y-125730000D03*
X171450000Y-125730000D03*
X173990000Y-125730000D03*
X176530000Y-125730000D03*
D20*
X134366000Y-75588000D03*
D21*
X144366000Y-75588000D03*
D20*
X124366000Y-75588000D03*
X162814000Y-75588000D03*
D21*
X172814000Y-75588000D03*
D20*
X152814000Y-75588000D03*
D18*
X149606000Y-111252000D03*
D19*
X149606000Y-113792000D03*
D22*
X156210000Y-123190000D03*
X157480000Y-123190000D03*
D23*
X154940000Y-123190000D03*
D24*
X127254000Y-100330000D03*
D25*
X127254000Y-92710000D03*
D24*
X123444000Y-100330000D03*
D25*
X123444000Y-92710000D03*
D24*
X133350000Y-100330000D03*
D25*
X133350000Y-92710000D03*
D26*
X148994000Y-120650000D03*
X148994000Y-125150000D03*
X142494000Y-120650000D03*
X142494000Y-125150000D03*
X139342000Y-120650000D03*
X139342000Y-125150000D03*
X132842000Y-120650000D03*
X132842000Y-125150000D03*
D15*
X152560000Y-84742000D03*
X172560000Y-84742000D03*
D16*
X167560000Y-104742000D03*
X157560000Y-104742000D03*
D27*
X133350000Y-112014000D03*
D28*
X138430000Y-104394000D03*
X135890000Y-112014000D03*
X135890000Y-104394000D03*
X138430000Y-112014000D03*
X133350000Y-104394000D03*
D29*
X128016000Y-116139000D03*
X122936000Y-125669000D03*
X125476000Y-116139000D03*
X125476000Y-125669000D03*
X122936000Y-116139000D03*
X128016000Y-125669000D03*
D15*
X137668000Y-94488000D03*
D30*
X137668000Y-97028000D03*
X137668000Y-99568000D03*
D31*
X164338000Y-114808000D03*
X161290000Y-115316000D03*
X172720000Y-121158000D03*
X130048000Y-119380000D03*
X174244000Y-111760000D03*
X162814000Y-120904000D03*
X121158000Y-125730000D03*
X153924000Y-117856000D03*
X160020000Y-116332000D03*
X160020000Y-113792000D03*
X162560000Y-108712000D03*
X164592000Y-108712000D03*
X166878000Y-111760000D03*
X125476000Y-123952000D03*
X140208000Y-114300000D03*
D32*
X164338000Y-114808000D02*
X163830000Y-115316000D01*
X163830000Y-115316000D02*
X163830000Y-125730000D01*
X148994000Y-120650000D02*
X154328000Y-115316000D01*
X154328000Y-115316000D02*
X161290000Y-115316000D01*
X172720000Y-121158000D02*
X172720000Y-122428000D01*
X142494000Y-120650000D02*
X148994000Y-120650000D01*
X156210000Y-111758000D02*
X156210000Y-109504000D01*
X157683001Y-108030999D02*
X172771979Y-108030999D01*
X156210000Y-109504000D02*
X157683001Y-108030999D01*
X172771979Y-108030999D02*
X174718980Y-109978000D01*
X174718980Y-109978000D02*
X174718980Y-110228000D01*
X157560000Y-104742000D02*
X151050000Y-111252000D01*
X151050000Y-111252000D02*
X149606000Y-111252000D01*
X174718980Y-110228000D02*
X174718980Y-109224000D01*
X174718980Y-109224000D02*
X168955979Y-103460999D01*
X168955979Y-103460999D02*
X158841001Y-103460999D01*
X158841001Y-103460999D02*
X157560000Y-104742000D01*
X132080000Y-114554000D02*
X130048000Y-116586000D01*
X130048000Y-116586000D02*
X130048000Y-119380000D01*
X137960200Y-114554000D02*
X132080000Y-114554000D01*
X144780000Y-111252000D02*
X141262200Y-111252000D01*
X141262200Y-111252000D02*
X137960200Y-114554000D01*
X174718980Y-110228000D02*
X174718980Y-111285020D01*
X174718980Y-111285020D02*
X174244000Y-111760000D01*
X144780000Y-111252000D02*
X149606000Y-111252000D01*
X162722560Y-122428000D02*
X162722560Y-120995440D01*
X162722560Y-120995440D02*
X162814000Y-120904000D01*
X122936000Y-125669000D02*
X121219000Y-125669000D01*
X121219000Y-125669000D02*
X121158000Y-125730000D01*
X156210000Y-117858000D02*
X153926000Y-117858000D01*
X153926000Y-117858000D02*
X153924000Y-117856000D01*
D33*
X137668000Y-99568000D02*
X138430000Y-100330000D01*
X138430000Y-100330000D02*
X138430000Y-104394000D01*
X172814000Y-75588000D02*
X172814000Y-80527998D01*
X166774002Y-94488000D02*
X137668000Y-94488000D01*
X172814000Y-80527998D02*
X174660001Y-82373999D01*
X174660001Y-82373999D02*
X174660001Y-86602001D01*
X174660001Y-86602001D02*
X166774002Y-94488000D01*
D32*
X122876000Y-112304000D02*
X122876000Y-113733000D01*
X122876000Y-113733000D02*
X121664999Y-114944001D01*
X128016000Y-116249000D02*
X128016000Y-116139000D01*
X121664999Y-114944001D02*
X121664999Y-117443801D01*
X121664999Y-117443801D02*
X121741199Y-117520001D01*
X121741199Y-117520001D02*
X126744999Y-117520001D01*
X126744999Y-117520001D02*
X128016000Y-116249000D01*
D33*
X127254000Y-100330000D02*
X127254000Y-103282000D01*
X127254000Y-103282000D02*
X128076000Y-104104000D01*
D32*
X128076000Y-112304000D02*
X125476000Y-114904000D01*
X125476000Y-114904000D02*
X125476000Y-116139000D01*
D33*
X123444000Y-100330000D02*
X123444000Y-103536000D01*
X123444000Y-103536000D02*
X122876000Y-104104000D01*
X124366000Y-75588000D02*
X124366000Y-77567898D01*
X130125101Y-83326999D02*
X148844999Y-83326999D01*
X124366000Y-77567898D02*
X130125101Y-83326999D01*
X148844999Y-83326999D02*
X150260000Y-84742000D01*
X150260000Y-84742000D02*
X152560000Y-84742000D01*
X124366000Y-75588000D02*
X124366000Y-84622000D01*
X124366000Y-84622000D02*
X125596000Y-85852000D01*
D32*
X166723060Y-122428000D02*
X166723060Y-125376940D01*
X166723060Y-125376940D02*
X166370000Y-125730000D01*
X168722040Y-122428000D02*
X168722040Y-125542040D01*
X168722040Y-125542040D02*
X168910000Y-125730000D01*
D33*
X134366000Y-75588000D02*
X136966001Y-72987999D01*
X136966001Y-72987999D02*
X160213999Y-72987999D01*
X160213999Y-72987999D02*
X162814000Y-75588000D01*
X152814000Y-75588000D02*
X161968000Y-84742000D01*
X161968000Y-84742000D02*
X172560000Y-84742000D01*
X144366000Y-75588000D02*
X141566000Y-75588000D01*
X141566000Y-75588000D02*
X138965999Y-78188001D01*
X138965999Y-78188001D02*
X130814003Y-78188001D01*
X125614001Y-72987999D02*
X123117999Y-72987999D01*
X130814003Y-78188001D02*
X125614001Y-72987999D01*
X123117999Y-72987999D02*
X121765999Y-74339999D01*
X121765999Y-74339999D02*
X121765999Y-91031999D01*
X121765999Y-91031999D02*
X123444000Y-92710000D01*
X144366000Y-75588000D02*
X152814000Y-75588000D01*
D32*
X160020000Y-116332000D02*
X159720001Y-116631999D01*
X159720001Y-116631999D02*
X159720001Y-118204774D01*
X159720001Y-118204774D02*
X154940000Y-122984775D01*
X154940000Y-122984775D02*
X154940000Y-123190000D01*
X162722560Y-110228000D02*
X162722560Y-110478000D01*
X162722560Y-110478000D02*
X160020000Y-113180560D01*
X160020000Y-113180560D02*
X160020000Y-113792000D01*
X162722560Y-110228000D02*
X162722560Y-108874560D01*
X162722560Y-108874560D02*
X162560000Y-108712000D01*
X132842000Y-120650000D02*
X139342000Y-120650000D01*
X164721540Y-110228000D02*
X164721540Y-108841540D01*
X164721540Y-108841540D02*
X164592000Y-108712000D01*
X166878000Y-111760000D02*
X166878000Y-110382940D01*
X166878000Y-110382940D02*
X166723060Y-110228000D01*
D33*
X133350000Y-100330000D02*
X133350000Y-104394000D01*
D32*
X125476000Y-125669000D02*
X125476000Y-125779000D01*
X170718480Y-110478000D02*
X170718480Y-110228000D01*
X125476000Y-125779000D02*
X126747001Y-127050001D01*
X126747001Y-127050001D02*
X155095224Y-127050001D01*
X155095224Y-127050001D02*
X162414684Y-119730541D01*
X167069481Y-114126999D02*
X170718480Y-110478000D01*
X162414684Y-119730541D02*
X162414684Y-115723434D01*
X162414684Y-115723434D02*
X164011119Y-114126999D01*
X164011119Y-114126999D02*
X167069481Y-114126999D01*
X125476000Y-123952000D02*
X125476000Y-125669000D01*
X168722040Y-110228000D02*
X168722040Y-111232000D01*
X168722040Y-111232000D02*
X167513039Y-112441001D01*
X167513039Y-112441001D02*
X162378881Y-112441001D01*
X162378881Y-112441001D02*
X160011892Y-114807990D01*
X160011892Y-114807990D02*
X150411892Y-114807990D01*
X150411892Y-114807990D02*
X150146881Y-115073001D01*
X150146881Y-115073001D02*
X140981001Y-115073001D01*
X140981001Y-115073001D02*
X140208000Y-114300000D01*
D33*
X140208000Y-85852000D02*
X139192000Y-86868000D01*
X139192000Y-86868000D02*
X133350000Y-92710000D01*
X137668000Y-97028000D02*
X136247998Y-97028000D01*
X136247998Y-97028000D02*
X135567999Y-96348001D01*
X135567999Y-96348001D02*
X135567999Y-90492001D01*
X135567999Y-90492001D02*
X139192000Y-86868000D01*
X133350000Y-92710000D02*
X127254000Y-92710000D01*
X140596000Y-85852000D02*
X140208000Y-85852000D01*
M02*
