M48
;DRILL file {KiCad 4.0.7} date Sun Sep 17 14:25:34 2017
;FORMAT={3:3/ absolute / metric / suppress leading zeros}
FMAT,2
METRIC,TZ
T1C0.400
T2C0.600
T3C0.800
T4C0.850
T5C0.900
T6C1.000
T7C1.100
T8C1.350
T9C1.500
%
G90
G05
M71
T1
X127255Y-113395
X133605Y-110855
X135366Y-120270
X160275Y-107045
X160783Y-105775
X160783Y-112887
X162117Y-114983
X165101Y-118729
X167514Y-114983
X168467Y-119491
X174245Y-110855
T2
X155957Y-117713
X157227Y-117713
X158497Y-117713
T3
X124080Y-93075
X131700Y-93075
X136145Y-93075
X137415Y-104725
X137415Y-108315
X137415Y-115935
X139955Y-108315
X139955Y-115935
X142495Y-108315
X142495Y-115935
X143765Y-93075
X145035Y-104725
X152815Y-83075
X157815Y-103075
X167815Y-103075
X172815Y-83075
T4
X124655Y-96595
X124655Y-104795
X129855Y-96595
X129855Y-104795
T5
X137415Y-123555
X137415Y-126095
T6
X138685Y-100695
X141225Y-100695
X143765Y-100695
X164085Y-124825
X166625Y-124825
X169165Y-124825
X171705Y-124825
X174245Y-124825
X176785Y-124825
T7
X141710Y-121595
X141710Y-126095
X148210Y-121595
X148210Y-126095
X152020Y-121595
X152020Y-126095
X158520Y-121595
X158520Y-126095
T8
X127375Y-84185
X142375Y-84185
T9
X125510Y-74175
X135510Y-74175
X145510Y-74175
X152815Y-74175
X162815Y-74175
X172815Y-74175
T0
M30
