G04 #@! TF.FileFunction,Soldermask,Top*
%FSLAX46Y46*%
G04 Gerber Fmt 4.6, Leading zero omitted, Abs format (unit mm)*
G04 Created by KiCad (PCBNEW 4.0.7) date Sun Sep 17 21:26:38 2017*
%MOMM*%
%LPD*%
G01*
G04 APERTURE LIST*
%ADD10C,0.100000*%
%ADD11R,2.400000X2.180000*%
%ADD12R,2.100000X2.100000*%
%ADD13O,2.100000X2.100000*%
%ADD14C,3.200000*%
%ADD15R,3.200000X3.200000*%
%ADD16R,2.750000X2.750000*%
%ADD17C,2.750000*%
%ADD18R,2.200000X2.200000*%
%ADD19C,2.200000*%
%ADD20C,2.800000*%
%ADD21C,3.050000*%
%ADD22R,1.670000X1.370000*%
%ADD23O,1.300000X1.900000*%
%ADD24R,1.300000X1.900000*%
%ADD25R,2.100000X2.400000*%
%ADD26C,2.000000*%
%ADD27O,2.000000X2.000000*%
%ADD28R,2.400000X2.100000*%
%ADD29C,2.400000*%
%ADD30R,1.400000X1.900000*%
%ADD31R,2.000000X2.800000*%
%ADD32O,2.000000X2.800000*%
%ADD33O,2.200000X2.200000*%
G04 APERTURE END LIST*
D10*
D11*
X123445000Y-108315000D03*
X131065000Y-113395000D03*
X123445000Y-110855000D03*
X131065000Y-110855000D03*
X123445000Y-113395000D03*
X131065000Y-108315000D03*
D12*
X164085000Y-124825000D03*
D13*
X166625000Y-124825000D03*
X169165000Y-124825000D03*
X171705000Y-124825000D03*
X174245000Y-124825000D03*
X176785000Y-124825000D03*
D14*
X162815000Y-74175000D03*
D15*
X172815000Y-74175000D03*
D14*
X152815000Y-74175000D03*
D16*
X124655000Y-104795000D03*
D17*
X129855000Y-96595000D03*
X129855000Y-104795000D03*
X124655000Y-96595000D03*
D18*
X137415000Y-123555000D03*
D19*
X137415000Y-126095000D03*
D20*
X142375000Y-84185000D03*
X127375000Y-84185000D03*
D21*
X134875000Y-84185000D03*
D14*
X135510000Y-74175000D03*
D15*
X145510000Y-74175000D03*
D14*
X125510000Y-74175000D03*
D22*
X130557000Y-123931000D03*
X130557000Y-125211000D03*
D23*
X157227000Y-117713000D03*
X158497000Y-117713000D03*
D24*
X155957000Y-117713000D03*
D25*
X155957000Y-109109000D03*
X155957000Y-113109000D03*
X153163000Y-113109000D03*
X153163000Y-109109000D03*
X158751000Y-113141000D03*
X158751000Y-109141000D03*
D26*
X136144000Y-93075000D03*
D27*
X143764000Y-93075000D03*
D26*
X131700000Y-93075000D03*
D27*
X124080000Y-93075000D03*
D26*
X145035000Y-104725000D03*
D27*
X137415000Y-104725000D03*
D28*
X129255000Y-116443000D03*
X125255000Y-116443000D03*
D25*
X133097000Y-122349000D03*
X133097000Y-126349000D03*
D29*
X141710000Y-126095000D03*
X141710000Y-121595000D03*
X148210000Y-126095000D03*
X148210000Y-121595000D03*
X152020000Y-126095000D03*
X152020000Y-121595000D03*
X158520000Y-126095000D03*
X158520000Y-121595000D03*
D18*
X152815000Y-83075000D03*
D19*
X172815000Y-83075000D03*
X167815000Y-103075000D03*
X157815000Y-103075000D03*
D30*
X174435500Y-121150000D03*
X172436520Y-121150000D03*
X162439080Y-121150000D03*
X162439080Y-108950000D03*
X164438060Y-108950000D03*
X170435000Y-108950000D03*
X168438560Y-108950000D03*
X172436520Y-108950000D03*
X166439580Y-108950000D03*
X170435000Y-121150000D03*
X164438060Y-121150000D03*
X168438560Y-121150000D03*
X166439580Y-121150000D03*
X174435500Y-108950000D03*
D31*
X137415000Y-115935000D03*
D32*
X142495000Y-108315000D03*
X139955000Y-115935000D03*
X139955000Y-108315000D03*
X142495000Y-115935000D03*
X137415000Y-108315000D03*
D18*
X138303000Y-99695000D03*
D33*
X140843000Y-99695000D03*
X143383000Y-99695000D03*
M02*
