G04 #@! TF.FileFunction,Copper,L1,Top,Signal*
%FSLAX46Y46*%
G04 Gerber Fmt 4.6, Leading zero omitted, Abs format (unit mm)*
G04 Created by KiCad (PCBNEW 4.0.7) date Sun Sep 17 14:25:38 2017*
%MOMM*%
%LPD*%
G01*
G04 APERTURE LIST*
%ADD10C,0.100000*%
%ADD11R,2.000000X1.780000*%
%ADD12R,1.700000X1.700000*%
%ADD13O,1.700000X1.700000*%
%ADD14C,2.800000*%
%ADD15R,2.800000X2.800000*%
%ADD16R,2.350000X2.350000*%
%ADD17C,2.350000*%
%ADD18R,1.800000X1.800000*%
%ADD19C,1.800000*%
%ADD20C,2.400000*%
%ADD21R,1.270000X0.970000*%
%ADD22O,0.900000X1.500000*%
%ADD23R,0.900000X1.500000*%
%ADD24R,1.700000X2.000000*%
%ADD25C,1.600000*%
%ADD26O,1.600000X1.600000*%
%ADD27R,2.000000X1.700000*%
%ADD28C,2.000000*%
%ADD29R,1.000000X1.500000*%
%ADD30R,1.600000X2.400000*%
%ADD31O,1.600000X2.400000*%
%ADD32O,1.800000X1.800000*%
%ADD33C,0.600000*%
%ADD34C,0.250000*%
%ADD35C,1.000000*%
%ADD36C,1.400000*%
%ADD37C,0.254000*%
G04 APERTURE END LIST*
D10*
D11*
X123445000Y-108315000D03*
X131065000Y-113395000D03*
X123445000Y-110855000D03*
X131065000Y-110855000D03*
X123445000Y-113395000D03*
X131065000Y-108315000D03*
D12*
X164085000Y-124825000D03*
D13*
X166625000Y-124825000D03*
X169165000Y-124825000D03*
X171705000Y-124825000D03*
X174245000Y-124825000D03*
X176785000Y-124825000D03*
D14*
X162815000Y-74175000D03*
D15*
X172815000Y-74175000D03*
D14*
X152815000Y-74175000D03*
D16*
X124655000Y-104795000D03*
D17*
X129855000Y-96595000D03*
X129855000Y-104795000D03*
X124655000Y-96595000D03*
D18*
X137415000Y-123555000D03*
D19*
X137415000Y-126095000D03*
D20*
X142375000Y-84185000D03*
X127375000Y-84185000D03*
D14*
X135510000Y-74175000D03*
D15*
X145510000Y-74175000D03*
D14*
X125510000Y-74175000D03*
D21*
X130557000Y-123931000D03*
X130557000Y-125211000D03*
D22*
X157227000Y-117713000D03*
X158497000Y-117713000D03*
D23*
X155957000Y-117713000D03*
D24*
X155957000Y-109109000D03*
X155957000Y-113109000D03*
X153163000Y-113109000D03*
X153163000Y-109109000D03*
X158751000Y-113141000D03*
X158751000Y-109141000D03*
D25*
X143765000Y-93075000D03*
D26*
X136145000Y-93075000D03*
D25*
X131700000Y-93075000D03*
D26*
X124080000Y-93075000D03*
D25*
X145035000Y-104725000D03*
D26*
X137415000Y-104725000D03*
D27*
X129255000Y-116443000D03*
X125255000Y-116443000D03*
D24*
X133097000Y-122349000D03*
X133097000Y-126349000D03*
D28*
X141710000Y-126095000D03*
X141710000Y-121595000D03*
X148210000Y-126095000D03*
X148210000Y-121595000D03*
X152020000Y-126095000D03*
X152020000Y-121595000D03*
X158520000Y-126095000D03*
X158520000Y-121595000D03*
D18*
X152815000Y-83075000D03*
D19*
X172815000Y-83075000D03*
X167815000Y-103075000D03*
X157815000Y-103075000D03*
D29*
X174435500Y-121150000D03*
X172436520Y-121150000D03*
X162439080Y-121150000D03*
X162439080Y-108950000D03*
X164438060Y-108950000D03*
X170435000Y-108950000D03*
X168438560Y-108950000D03*
X172436520Y-108950000D03*
X166439580Y-108950000D03*
X170435000Y-121150000D03*
X164438060Y-121150000D03*
X168438560Y-121150000D03*
X166439580Y-121150000D03*
X174435500Y-108950000D03*
D30*
X137415000Y-115935000D03*
D31*
X142495000Y-108315000D03*
X139955000Y-115935000D03*
X139955000Y-108315000D03*
X142495000Y-115935000D03*
X137415000Y-108315000D03*
D18*
X138685000Y-100695000D03*
D32*
X141225000Y-100695000D03*
X143765000Y-100695000D03*
D33*
X165101000Y-118729000D03*
X174245000Y-110855000D03*
X160783000Y-112887000D03*
X127255000Y-113395000D03*
X168466500Y-119491000D03*
X167514000Y-114982500D03*
X162116500Y-114982500D03*
X160783000Y-105775000D03*
X133605000Y-110855000D03*
X135366001Y-120269999D03*
X160275000Y-107045000D03*
D34*
X148210000Y-126095000D02*
X141710000Y-126095000D01*
X165101000Y-118729000D02*
X171015520Y-118729000D01*
X171015520Y-118729000D02*
X172436520Y-120150000D01*
X172436520Y-120150000D02*
X172436520Y-121150000D01*
X134748000Y-111172500D02*
X134748000Y-113014000D01*
X134748000Y-113014000D02*
X131319000Y-116443000D01*
X131319000Y-116443000D02*
X129255000Y-116443000D01*
X135764000Y-110156500D02*
X134748000Y-111172500D01*
X143068768Y-110156500D02*
X135764000Y-110156500D01*
X153163000Y-109109000D02*
X144116268Y-109109000D01*
X144116268Y-109109000D02*
X143068768Y-110156500D01*
X155957000Y-109109000D02*
X155957000Y-107859000D01*
X155957000Y-107859000D02*
X160741000Y-103075000D01*
X160741000Y-103075000D02*
X167815000Y-103075000D01*
X153163000Y-109109000D02*
X155957000Y-109109000D01*
X174245000Y-110855000D02*
X174245000Y-109140500D01*
X174245000Y-109140500D02*
X174435500Y-108950000D01*
D35*
X158520000Y-121595000D02*
X158520000Y-123009213D01*
X158520000Y-123009213D02*
X161939788Y-126429001D01*
X161939788Y-126429001D02*
X175180999Y-126429001D01*
X175180999Y-126429001D02*
X176785000Y-124825000D01*
X158520000Y-121595000D02*
X152020000Y-121595000D01*
X158520000Y-121595000D02*
X161994080Y-121595000D01*
X161994080Y-121595000D02*
X162439080Y-121150000D01*
D34*
X158751000Y-113141000D02*
X160529000Y-113141000D01*
X160529000Y-113141000D02*
X160783000Y-112887000D01*
X131065000Y-113395000D02*
X127255000Y-113395000D01*
D36*
X138685000Y-96885000D02*
X138685000Y-100695000D01*
X139955000Y-95615000D02*
X138685000Y-96885000D01*
X144185002Y-95615000D02*
X139955000Y-95615000D01*
X145765001Y-94035001D02*
X144185002Y-95615000D01*
X145765001Y-91900001D02*
X145765001Y-94035001D01*
X144939999Y-91074999D02*
X145765001Y-91900001D01*
X138145001Y-91074999D02*
X144939999Y-91074999D01*
X136145000Y-93075000D02*
X138145001Y-91074999D01*
X138685000Y-100695000D02*
X138685000Y-103455000D01*
X138685000Y-103455000D02*
X137415000Y-104725000D01*
X127375000Y-84185000D02*
X127375000Y-84305000D01*
X127375000Y-84305000D02*
X136145000Y-93075000D01*
X143765000Y-100695000D02*
X144664999Y-101594999D01*
X144664999Y-101594999D02*
X145085001Y-101594999D01*
X145085001Y-101594999D02*
X147035001Y-103544999D01*
X147035001Y-103544999D02*
X147035001Y-105974999D01*
X147035001Y-105974999D02*
X145965000Y-107045000D01*
X145965000Y-107045000D02*
X143765000Y-107045000D01*
X143765000Y-107045000D02*
X142495000Y-108315000D01*
X139974999Y-76910001D02*
X139974999Y-87379999D01*
X142710000Y-74175000D02*
X139974999Y-76910001D01*
X145510000Y-74175000D02*
X142710000Y-74175000D01*
X139974999Y-87379999D02*
X141769989Y-89174989D01*
X141769989Y-89174989D02*
X145727008Y-89174989D01*
X145727008Y-89174989D02*
X147665011Y-91112992D01*
X147665011Y-91112992D02*
X147665011Y-94822010D01*
X147665011Y-94822010D02*
X144972011Y-97515010D01*
X143132198Y-97515010D02*
X144972011Y-97515010D01*
X141225000Y-99422208D02*
X143132198Y-97515010D01*
X141225000Y-100695000D02*
X141225000Y-99422208D01*
X124655000Y-104795000D02*
X124655000Y-107105000D01*
X124655000Y-107105000D02*
X123445000Y-108315000D01*
X143765000Y-93075000D02*
X139105002Y-93075000D01*
X139105002Y-93075000D02*
X137105001Y-95075001D01*
X137105001Y-95075001D02*
X131374999Y-95075001D01*
X131374999Y-95075001D02*
X129855000Y-96595000D01*
X129855000Y-104795000D02*
X128114999Y-106535001D01*
X128114999Y-106535001D02*
X128114999Y-109045003D01*
X128114999Y-109045003D02*
X126305002Y-110855000D01*
X126305002Y-110855000D02*
X123445000Y-110855000D01*
X131700000Y-93075000D02*
X128175000Y-93075000D01*
X128175000Y-93075000D02*
X124655000Y-96595000D01*
D34*
X137415000Y-123555000D02*
X137415000Y-115935000D01*
X130557000Y-123931000D02*
X137039000Y-123931000D01*
X137039000Y-123931000D02*
X137415000Y-123555000D01*
X133097000Y-126349000D02*
X137161000Y-126349000D01*
X137161000Y-126349000D02*
X137415000Y-126095000D01*
X130557000Y-125211000D02*
X131959000Y-125211000D01*
X131959000Y-125211000D02*
X133097000Y-126349000D01*
D36*
X152815000Y-83075000D02*
X143485000Y-83075000D01*
X143485000Y-83075000D02*
X142375000Y-84185000D01*
X152815000Y-74175000D02*
X152815000Y-83075000D01*
D34*
X166439580Y-121150000D02*
X166439580Y-124639580D01*
X166439580Y-124639580D02*
X166625000Y-124825000D01*
X168466500Y-119491000D02*
X168466500Y-121122060D01*
X168466500Y-121122060D02*
X168438560Y-121150000D01*
X168438560Y-121150000D02*
X168438560Y-124098560D01*
X168438560Y-124098560D02*
X169165000Y-124825000D01*
D36*
X135510000Y-74175000D02*
X138110001Y-71574999D01*
X160214999Y-71574999D02*
X162815000Y-74175000D01*
X138110001Y-71574999D02*
X160214999Y-71574999D01*
X125510000Y-74175000D02*
X124080000Y-75605000D01*
X124080000Y-75605000D02*
X124080000Y-93075000D01*
X125510000Y-74175000D02*
X130010011Y-69674989D01*
X130010011Y-69674989D02*
X165514989Y-69674989D01*
X165514989Y-69674989D02*
X170015000Y-74175000D01*
X170015000Y-74175000D02*
X172815000Y-74175000D01*
X172815000Y-74175000D02*
X172815000Y-83075000D01*
D34*
X162116500Y-114982500D02*
X167514000Y-114982500D01*
D37*
X162439080Y-108950000D02*
X161685080Y-108950000D01*
X161685080Y-108950000D02*
X159780090Y-110854990D01*
X159780090Y-110854990D02*
X155267010Y-110854990D01*
X155267010Y-110854990D02*
X153163000Y-112959000D01*
X153163000Y-112959000D02*
X153163000Y-113109000D01*
X155957000Y-117713000D02*
X153858118Y-117713000D01*
X153858118Y-117713000D02*
X150638999Y-120932119D01*
X150638999Y-124713999D02*
X152020000Y-126095000D01*
X150638999Y-120932119D02*
X150638999Y-124713999D01*
D34*
X155957000Y-117713000D02*
X155957000Y-115903000D01*
X154413000Y-114359000D02*
X154263000Y-114359000D01*
X155957000Y-115903000D02*
X154413000Y-114359000D01*
X153163000Y-113259000D02*
X153163000Y-113109000D01*
X154263000Y-114359000D02*
X153163000Y-113259000D01*
X152020000Y-126095000D02*
X158520000Y-126095000D01*
D37*
X163323000Y-111363000D02*
X164438060Y-110247940D01*
X164438060Y-110247940D02*
X164438060Y-108950000D01*
X157553000Y-111363000D02*
X163323000Y-111363000D01*
X155957000Y-112959000D02*
X157553000Y-111363000D01*
D34*
X155957000Y-113109000D02*
X155957000Y-112959000D01*
D37*
X158751000Y-109141000D02*
X159855000Y-109141000D01*
X159855000Y-109141000D02*
X161177001Y-107818999D01*
X161177001Y-107818999D02*
X165558579Y-107818999D01*
X165558579Y-107818999D02*
X166439580Y-108700000D01*
X166439580Y-108700000D02*
X166439580Y-108950000D01*
D36*
X140316559Y-104725000D02*
X137415000Y-107626559D01*
X145035000Y-104725000D02*
X140316559Y-104725000D01*
X137415000Y-107626559D02*
X137415000Y-108315000D01*
D37*
X131065000Y-110855000D02*
X129811000Y-110855000D01*
X129811000Y-110855000D02*
X127952001Y-112713999D01*
X127952001Y-112713999D02*
X126928119Y-112713999D01*
X126928119Y-112713999D02*
X125255000Y-114387118D01*
X125255000Y-114387118D02*
X125255000Y-116443000D01*
D34*
X167984891Y-106249891D02*
X161257891Y-106249891D01*
X161257891Y-106249891D02*
X160783000Y-105775000D01*
X167984891Y-106249891D02*
X170435000Y-108700000D01*
X170435000Y-108700000D02*
X170435000Y-108950000D01*
X131065000Y-110855000D02*
X133605000Y-110855000D01*
D37*
X166783560Y-107045000D02*
X160275000Y-107045000D01*
D34*
X133097000Y-122349000D02*
X133097000Y-122499000D01*
X135366001Y-120269999D02*
X133287000Y-122349000D01*
X133287000Y-122349000D02*
X133097000Y-122349000D01*
X168438560Y-108950000D02*
X168438560Y-108700000D01*
X168438560Y-108700000D02*
X166783560Y-107045000D01*
X170435000Y-120959500D02*
X170244500Y-121150000D01*
X164085000Y-120987440D02*
X164247560Y-121150000D01*
M02*
