G04 #@! TF.FileFunction,Copper,L2,Bot,Signal*
%FSLAX46Y46*%
G04 Gerber Fmt 4.6, Leading zero omitted, Abs format (unit mm)*
G04 Created by KiCad (PCBNEW 4.0.7) date Sat Oct 14 14:29:21 2017*
%MOMM*%
%LPD*%
G01*
G04 APERTURE LIST*
%ADD10C,0.100000*%
%ADD11R,1.600000X2.000000*%
%ADD12R,2.350000X2.350000*%
%ADD13C,2.350000*%
%ADD14R,1.800000X1.800000*%
%ADD15C,1.800000*%
%ADD16C,2.400000*%
%ADD17R,1.700000X1.700000*%
%ADD18O,1.700000X1.700000*%
%ADD19C,2.800000*%
%ADD20R,2.800000X2.800000*%
%ADD21O,0.900000X1.500000*%
%ADD22R,0.900000X1.500000*%
%ADD23R,1.700000X2.000000*%
%ADD24R,2.000000X1.700000*%
%ADD25C,1.600000*%
%ADD26O,1.600000X1.600000*%
%ADD27C,2.000000*%
%ADD28R,1.600000X2.400000*%
%ADD29O,1.600000X2.400000*%
%ADD30O,1.800000X1.800000*%
%ADD31C,0.600000*%
%ADD32C,0.254000*%
G04 APERTURE END LIST*
D10*
D11*
X166116000Y-113824000D03*
X166116000Y-117824000D03*
X174244000Y-113824000D03*
X174244000Y-117824000D03*
D12*
X122876000Y-112304000D03*
D13*
X128076000Y-104104000D03*
X128076000Y-112304000D03*
X122876000Y-104104000D03*
D14*
X144780000Y-113792000D03*
D15*
X144780000Y-111252000D03*
D16*
X125596000Y-85852000D03*
X140596000Y-85852000D03*
D17*
X163830000Y-125730000D03*
D18*
X166370000Y-125730000D03*
X168910000Y-125730000D03*
X171450000Y-125730000D03*
X173990000Y-125730000D03*
X176530000Y-125730000D03*
D19*
X134366000Y-75588000D03*
D20*
X144366000Y-75588000D03*
D19*
X124366000Y-75588000D03*
X162814000Y-75588000D03*
D20*
X172814000Y-75588000D03*
D19*
X152814000Y-75588000D03*
D17*
X149606000Y-111252000D03*
D18*
X149606000Y-113792000D03*
D21*
X156210000Y-123190000D03*
X157480000Y-123190000D03*
D22*
X154940000Y-123190000D03*
D23*
X171450000Y-113824000D03*
X171450000Y-117824000D03*
X164084000Y-102426000D03*
X164084000Y-106426000D03*
X161290000Y-106426000D03*
X161290000Y-102426000D03*
X168656000Y-117824000D03*
X168656000Y-113824000D03*
D24*
X158210000Y-125984000D03*
X154210000Y-125984000D03*
D25*
X127254000Y-100330000D03*
D26*
X127254000Y-92710000D03*
D25*
X123444000Y-100330000D03*
D26*
X123444000Y-92710000D03*
D25*
X133350000Y-100330000D03*
D26*
X133350000Y-92710000D03*
D24*
X127476000Y-120904000D03*
X123476000Y-120904000D03*
X137382000Y-116586000D03*
X133382000Y-116586000D03*
X140748000Y-116586000D03*
X144748000Y-116586000D03*
D27*
X148994000Y-120650000D03*
X148994000Y-125150000D03*
X142494000Y-120650000D03*
X142494000Y-125150000D03*
X139342000Y-120650000D03*
X139342000Y-125150000D03*
X132842000Y-120650000D03*
X132842000Y-125150000D03*
D14*
X152560000Y-84742000D03*
X172560000Y-84742000D03*
D15*
X167560000Y-104742000D03*
X157560000Y-104742000D03*
D28*
X133350000Y-112014000D03*
D29*
X138430000Y-104394000D03*
X135890000Y-112014000D03*
X135890000Y-104394000D03*
X138430000Y-112014000D03*
X133350000Y-104394000D03*
D14*
X137668000Y-94488000D03*
D30*
X137668000Y-97028000D03*
X137668000Y-99568000D03*
D31*
X164338000Y-114808000D03*
X161290000Y-115316000D03*
X172720000Y-121158000D03*
X130048000Y-119380000D03*
X174244000Y-111760000D03*
X162814000Y-120904000D03*
X121158000Y-125730000D03*
X153924000Y-117856000D03*
X160020000Y-116332000D03*
X160020000Y-113792000D03*
X162560000Y-108712000D03*
X164592000Y-108712000D03*
X166878000Y-111760000D03*
X125476000Y-123952000D03*
X140208000Y-114300000D03*
D32*
X166116000Y-113824000D02*
X165322000Y-113824000D01*
X165322000Y-113824000D02*
X164338000Y-114808000D01*
X161290000Y-115316000D02*
X163808000Y-115316000D01*
X163808000Y-115316000D02*
X166116000Y-117624000D01*
X166116000Y-117624000D02*
X166116000Y-117824000D01*
X171450000Y-117824000D02*
X171450000Y-116570000D01*
X171450000Y-116570000D02*
X170704000Y-115824000D01*
X170704000Y-115824000D02*
X166862000Y-115824000D01*
X166862000Y-115824000D02*
X166116000Y-116570000D01*
X166116000Y-116570000D02*
X166116000Y-117824000D01*
X171450000Y-117824000D02*
X171450000Y-119888000D01*
X171450000Y-119888000D02*
X172720000Y-121158000D01*
X157560000Y-104742000D02*
X159876000Y-102426000D01*
X159876000Y-102426000D02*
X161290000Y-102426000D01*
X164084000Y-102426000D02*
X161290000Y-102426000D01*
X130048000Y-119380000D02*
X128524000Y-120904000D01*
X128524000Y-120904000D02*
X127476000Y-120904000D01*
X174244000Y-113824000D02*
X171450000Y-113824000D01*
X174244000Y-111760000D02*
X174244000Y-113824000D01*
X144748000Y-116586000D02*
X144748000Y-113824000D01*
X144748000Y-113824000D02*
X144780000Y-113792000D01*
X158210000Y-125984000D02*
X161698198Y-125984000D01*
X161698198Y-125984000D02*
X162675199Y-126961001D01*
X167678999Y-126961001D02*
X168910000Y-125730000D01*
X162675199Y-126961001D02*
X167678999Y-126961001D01*
X154210000Y-125984000D02*
X155464000Y-125984000D01*
X155464000Y-125984000D02*
X156210000Y-125238000D01*
X156210000Y-125238000D02*
X156210000Y-123190000D01*
X161290000Y-106426000D02*
X161290000Y-106576000D01*
X161290000Y-106576000D02*
X162560000Y-107846000D01*
X162560000Y-107846000D02*
X162560000Y-108712000D01*
X160020000Y-113792000D02*
X160020000Y-116332000D01*
X139342000Y-120650000D02*
X140723001Y-122031001D01*
X140723001Y-122031001D02*
X152315001Y-122031001D01*
X152315001Y-122031001D02*
X153474000Y-123190000D01*
X153474000Y-123190000D02*
X154940000Y-123190000D01*
X164084000Y-106426000D02*
X164084000Y-108204000D01*
X164084000Y-108204000D02*
X164592000Y-108712000D01*
X168656000Y-113824000D02*
X168656000Y-113674000D01*
X168656000Y-113674000D02*
X166878000Y-111896000D01*
X166878000Y-111896000D02*
X166878000Y-111760000D01*
X123476000Y-120904000D02*
X123476000Y-122008000D01*
X123476000Y-122008000D02*
X125420000Y-123952000D01*
X125420000Y-123952000D02*
X125476000Y-123952000D01*
X140208000Y-114300000D02*
X137922000Y-116586000D01*
X137922000Y-116586000D02*
X137382000Y-116586000D01*
X133350000Y-112014000D02*
X133350000Y-116554000D01*
X133350000Y-116554000D02*
X133382000Y-116586000D01*
G36*
X177488338Y-68821046D02*
X177902333Y-69097669D01*
X178178953Y-69511660D01*
X178290000Y-70069931D01*
X178290000Y-110109000D01*
X175514000Y-110109000D01*
X175467841Y-110117685D01*
X175425447Y-110144965D01*
X175397006Y-110186590D01*
X175387000Y-110236000D01*
X175387000Y-112289822D01*
X175295890Y-112227569D01*
X175080374Y-112183926D01*
X175178838Y-111946799D01*
X175179162Y-111574833D01*
X175037117Y-111231057D01*
X174774327Y-110967808D01*
X174430799Y-110825162D01*
X174058833Y-110824838D01*
X173715057Y-110966883D01*
X173451808Y-111229673D01*
X173309162Y-111573201D01*
X173308838Y-111945167D01*
X173407301Y-112183465D01*
X173208683Y-112220838D01*
X172992559Y-112359910D01*
X172870707Y-112538246D01*
X172764090Y-112372559D01*
X172551890Y-112227569D01*
X172300000Y-112176560D01*
X170600000Y-112176560D01*
X170364683Y-112220838D01*
X170148559Y-112359910D01*
X170052457Y-112500560D01*
X169970090Y-112372559D01*
X169757890Y-112227569D01*
X169506000Y-112176560D01*
X168236190Y-112176560D01*
X167813006Y-111753376D01*
X167813162Y-111574833D01*
X167671117Y-111231057D01*
X167408327Y-110967808D01*
X167064799Y-110825162D01*
X166692833Y-110824838D01*
X166349057Y-110966883D01*
X166085808Y-111229673D01*
X165943162Y-111573201D01*
X165942838Y-111945167D01*
X166038447Y-112176560D01*
X165316000Y-112176560D01*
X165080683Y-112220838D01*
X164864559Y-112359910D01*
X164719569Y-112572110D01*
X164668560Y-112824000D01*
X164668560Y-113399810D01*
X164195495Y-113872875D01*
X164152833Y-113872838D01*
X163809057Y-114014883D01*
X163545808Y-114277673D01*
X163431066Y-114554000D01*
X161850466Y-114554000D01*
X161820327Y-114523808D01*
X161476799Y-114381162D01*
X161104833Y-114380838D01*
X160782000Y-114514230D01*
X160782000Y-114352466D01*
X160812192Y-114322327D01*
X160954838Y-113978799D01*
X160955162Y-113606833D01*
X160813117Y-113263057D01*
X160550327Y-112999808D01*
X160206799Y-112857162D01*
X159834833Y-112856838D01*
X159491057Y-112998883D01*
X159227808Y-113261673D01*
X159085162Y-113605201D01*
X159084838Y-113977167D01*
X159226883Y-114320943D01*
X159258000Y-114352114D01*
X159258000Y-115771534D01*
X159227808Y-115801673D01*
X159085162Y-116145201D01*
X159084838Y-116517167D01*
X159226883Y-116860943D01*
X159489673Y-117124192D01*
X159833201Y-117266838D01*
X160205167Y-117267162D01*
X160548943Y-117125117D01*
X160812192Y-116862327D01*
X160954838Y-116518799D01*
X160955125Y-116189351D01*
X161103201Y-116250838D01*
X161475167Y-116251162D01*
X161818943Y-116109117D01*
X161850114Y-116078000D01*
X163492370Y-116078000D01*
X164668560Y-117254190D01*
X164668560Y-118824000D01*
X164712838Y-119059317D01*
X164851910Y-119275441D01*
X165064110Y-119420431D01*
X165316000Y-119471440D01*
X166916000Y-119471440D01*
X167151317Y-119427162D01*
X167367441Y-119288090D01*
X167369318Y-119285343D01*
X167446301Y-119362327D01*
X167679690Y-119459000D01*
X168370250Y-119459000D01*
X168529000Y-119300250D01*
X168529000Y-117951000D01*
X168509000Y-117951000D01*
X168509000Y-117697000D01*
X168529000Y-117697000D01*
X168529000Y-117677000D01*
X168783000Y-117677000D01*
X168783000Y-117697000D01*
X168803000Y-117697000D01*
X168803000Y-117951000D01*
X168783000Y-117951000D01*
X168783000Y-119300250D01*
X168941750Y-119459000D01*
X169632310Y-119459000D01*
X169865699Y-119362327D01*
X170044327Y-119183698D01*
X170057073Y-119152925D01*
X170135910Y-119275441D01*
X170348110Y-119420431D01*
X170600000Y-119471440D01*
X170688000Y-119471440D01*
X170688000Y-119888000D01*
X170746004Y-120179605D01*
X170865469Y-120358396D01*
X170911185Y-120426815D01*
X171784875Y-121300506D01*
X171784838Y-121343167D01*
X171926883Y-121686943D01*
X172189673Y-121950192D01*
X172533201Y-122092838D01*
X172905167Y-122093162D01*
X173248943Y-121951117D01*
X173512192Y-121688327D01*
X173654838Y-121344799D01*
X173655162Y-120972833D01*
X173513117Y-120629057D01*
X173250327Y-120365808D01*
X172906799Y-120223162D01*
X172862754Y-120223124D01*
X172212000Y-119572370D01*
X172212000Y-119471440D01*
X172300000Y-119471440D01*
X172535317Y-119427162D01*
X172751441Y-119288090D01*
X172874383Y-119108158D01*
X172905673Y-119183698D01*
X173084301Y-119362327D01*
X173317690Y-119459000D01*
X173958250Y-119459000D01*
X174117000Y-119300250D01*
X174117000Y-117951000D01*
X174097000Y-117951000D01*
X174097000Y-117697000D01*
X174117000Y-117697000D01*
X174117000Y-116347750D01*
X173958250Y-116189000D01*
X173317690Y-116189000D01*
X173084301Y-116285673D01*
X172905673Y-116464302D01*
X172873346Y-116542347D01*
X172764090Y-116372559D01*
X172551890Y-116227569D01*
X172300000Y-116176560D01*
X172085952Y-116176560D01*
X171988815Y-116031184D01*
X171429070Y-115471440D01*
X172300000Y-115471440D01*
X172535317Y-115427162D01*
X172751441Y-115288090D01*
X172873293Y-115109754D01*
X172979910Y-115275441D01*
X173192110Y-115420431D01*
X173444000Y-115471440D01*
X175044000Y-115471440D01*
X175279317Y-115427162D01*
X175387000Y-115357870D01*
X175387000Y-116278756D01*
X175170310Y-116189000D01*
X174529750Y-116189000D01*
X174371000Y-116347750D01*
X174371000Y-117697000D01*
X174391000Y-117697000D01*
X174391000Y-117951000D01*
X174371000Y-117951000D01*
X174371000Y-119300250D01*
X174529750Y-119459000D01*
X175170310Y-119459000D01*
X175387000Y-119369244D01*
X175387000Y-122428000D01*
X175395685Y-122474159D01*
X175422965Y-122516553D01*
X175464590Y-122544994D01*
X175514000Y-122555000D01*
X178290000Y-122555000D01*
X178290000Y-125930069D01*
X178178953Y-126488340D01*
X177902333Y-126902331D01*
X177488338Y-127178954D01*
X176930069Y-127290000D01*
X168427630Y-127290000D01*
X168545951Y-127171679D01*
X168910000Y-127244093D01*
X169478285Y-127131054D01*
X169960054Y-126809147D01*
X170180000Y-126479974D01*
X170399946Y-126809147D01*
X170881715Y-127131054D01*
X171450000Y-127244093D01*
X172018285Y-127131054D01*
X172500054Y-126809147D01*
X172720000Y-126479974D01*
X172939946Y-126809147D01*
X173421715Y-127131054D01*
X173990000Y-127244093D01*
X174558285Y-127131054D01*
X175040054Y-126809147D01*
X175267702Y-126468447D01*
X175334817Y-126611358D01*
X175763076Y-127001645D01*
X176173110Y-127171476D01*
X176403000Y-127050155D01*
X176403000Y-125857000D01*
X176657000Y-125857000D01*
X176657000Y-127050155D01*
X176886890Y-127171476D01*
X177296924Y-127001645D01*
X177725183Y-126611358D01*
X177971486Y-126086892D01*
X177850819Y-125857000D01*
X176657000Y-125857000D01*
X176403000Y-125857000D01*
X176383000Y-125857000D01*
X176383000Y-125603000D01*
X176403000Y-125603000D01*
X176403000Y-124409845D01*
X176657000Y-124409845D01*
X176657000Y-125603000D01*
X177850819Y-125603000D01*
X177971486Y-125373108D01*
X177725183Y-124848642D01*
X177296924Y-124458355D01*
X176886890Y-124288524D01*
X176657000Y-124409845D01*
X176403000Y-124409845D01*
X176173110Y-124288524D01*
X175763076Y-124458355D01*
X175334817Y-124848642D01*
X175267702Y-124991553D01*
X175040054Y-124650853D01*
X174558285Y-124328946D01*
X173990000Y-124215907D01*
X173421715Y-124328946D01*
X172939946Y-124650853D01*
X172720000Y-124980026D01*
X172500054Y-124650853D01*
X172018285Y-124328946D01*
X171450000Y-124215907D01*
X170881715Y-124328946D01*
X170399946Y-124650853D01*
X170180000Y-124980026D01*
X169960054Y-124650853D01*
X169478285Y-124328946D01*
X168910000Y-124215907D01*
X168341715Y-124328946D01*
X167859946Y-124650853D01*
X167640000Y-124980026D01*
X167420054Y-124650853D01*
X166938285Y-124328946D01*
X166370000Y-124215907D01*
X165801715Y-124328946D01*
X165319946Y-124650853D01*
X165292150Y-124692452D01*
X165283162Y-124644683D01*
X165144090Y-124428559D01*
X164931890Y-124283569D01*
X164680000Y-124232560D01*
X162980000Y-124232560D01*
X162744683Y-124276838D01*
X162528559Y-124415910D01*
X162383569Y-124628110D01*
X162332560Y-124880000D01*
X162332560Y-125540732D01*
X162237013Y-125445185D01*
X162183840Y-125409656D01*
X161989803Y-125280004D01*
X161698198Y-125222000D01*
X159857440Y-125222000D01*
X159857440Y-125134000D01*
X159813162Y-124898683D01*
X159674090Y-124682559D01*
X159461890Y-124537569D01*
X159210000Y-124486560D01*
X157871897Y-124486560D01*
X158157408Y-124347013D01*
X158433808Y-124022544D01*
X158565000Y-123617000D01*
X158565000Y-123317000D01*
X157607000Y-123317000D01*
X157607000Y-123337000D01*
X157353000Y-123337000D01*
X157353000Y-123317000D01*
X157333000Y-123317000D01*
X157333000Y-123063000D01*
X157353000Y-123063000D01*
X157353000Y-121972498D01*
X157607000Y-121972498D01*
X157607000Y-123063000D01*
X158565000Y-123063000D01*
X158565000Y-122763000D01*
X158433808Y-122357456D01*
X158157408Y-122032987D01*
X157774001Y-121845592D01*
X157607000Y-121972498D01*
X157353000Y-121972498D01*
X157185999Y-121845592D01*
X156849274Y-122010170D01*
X156625212Y-121860457D01*
X156210000Y-121777866D01*
X155794788Y-121860457D01*
X155729981Y-121903759D01*
X155641890Y-121843569D01*
X155390000Y-121792560D01*
X154490000Y-121792560D01*
X154254683Y-121836838D01*
X154038559Y-121975910D01*
X153893569Y-122188110D01*
X153844990Y-122428000D01*
X153789630Y-122428000D01*
X152853816Y-121492186D01*
X152819393Y-121469185D01*
X152606606Y-121327005D01*
X152315001Y-121269001D01*
X150507321Y-121269001D01*
X150628716Y-120976648D01*
X150629284Y-120326205D01*
X150380894Y-119725057D01*
X149921363Y-119264722D01*
X149320648Y-119015284D01*
X148670205Y-119014716D01*
X148069057Y-119263106D01*
X147608722Y-119722637D01*
X147359284Y-120323352D01*
X147358716Y-120973795D01*
X147480693Y-121269001D01*
X144007321Y-121269001D01*
X144128716Y-120976648D01*
X144129284Y-120326205D01*
X143880894Y-119725057D01*
X143421363Y-119264722D01*
X142820648Y-119015284D01*
X142170205Y-119014716D01*
X141569057Y-119263106D01*
X141108722Y-119722637D01*
X140917839Y-120182337D01*
X140728894Y-119725057D01*
X140269363Y-119264722D01*
X139668648Y-119015284D01*
X139018205Y-119014716D01*
X138417057Y-119263106D01*
X137956722Y-119722637D01*
X137707284Y-120323352D01*
X137706716Y-120973795D01*
X137955106Y-121574943D01*
X138414637Y-122035278D01*
X139015352Y-122284716D01*
X139665795Y-122285284D01*
X139831277Y-122216908D01*
X140184185Y-122569816D01*
X140396973Y-122711996D01*
X140431396Y-122734997D01*
X140723001Y-122793001D01*
X151999371Y-122793001D01*
X152935185Y-123728815D01*
X153182395Y-123893996D01*
X153474000Y-123952000D01*
X153844818Y-123952000D01*
X153886838Y-124175317D01*
X154025910Y-124391441D01*
X154165121Y-124486560D01*
X153210000Y-124486560D01*
X152974683Y-124530838D01*
X152758559Y-124669910D01*
X152613569Y-124882110D01*
X152562560Y-125134000D01*
X152562560Y-126834000D01*
X152606838Y-127069317D01*
X152745910Y-127285441D01*
X152752582Y-127290000D01*
X121069931Y-127290000D01*
X120511660Y-127178953D01*
X120097669Y-126902333D01*
X119821046Y-126488338D01*
X119784088Y-126302532D01*
X131869073Y-126302532D01*
X131967736Y-126569387D01*
X132577461Y-126795908D01*
X133227460Y-126771856D01*
X133716264Y-126569387D01*
X133814927Y-126302532D01*
X138369073Y-126302532D01*
X138467736Y-126569387D01*
X139077461Y-126795908D01*
X139727460Y-126771856D01*
X140216264Y-126569387D01*
X140314927Y-126302532D01*
X141521073Y-126302532D01*
X141619736Y-126569387D01*
X142229461Y-126795908D01*
X142879460Y-126771856D01*
X143368264Y-126569387D01*
X143466927Y-126302532D01*
X148021073Y-126302532D01*
X148119736Y-126569387D01*
X148729461Y-126795908D01*
X149379460Y-126771856D01*
X149868264Y-126569387D01*
X149966927Y-126302532D01*
X148994000Y-125329605D01*
X148021073Y-126302532D01*
X143466927Y-126302532D01*
X142494000Y-125329605D01*
X141521073Y-126302532D01*
X140314927Y-126302532D01*
X139342000Y-125329605D01*
X138369073Y-126302532D01*
X133814927Y-126302532D01*
X132842000Y-125329605D01*
X131869073Y-126302532D01*
X119784088Y-126302532D01*
X119710000Y-125930069D01*
X119710000Y-120054000D01*
X121828560Y-120054000D01*
X121828560Y-121754000D01*
X121872838Y-121989317D01*
X122011910Y-122205441D01*
X122224110Y-122350431D01*
X122476000Y-122401440D01*
X122840048Y-122401440D01*
X122870928Y-122447654D01*
X122937185Y-122546815D01*
X124550204Y-124159834D01*
X124682883Y-124480943D01*
X124945673Y-124744192D01*
X125289201Y-124886838D01*
X125661167Y-124887162D01*
X125665283Y-124885461D01*
X131196092Y-124885461D01*
X131220144Y-125535460D01*
X131422613Y-126024264D01*
X131689468Y-126122927D01*
X132662395Y-125150000D01*
X133021605Y-125150000D01*
X133994532Y-126122927D01*
X134261387Y-126024264D01*
X134487908Y-125414539D01*
X134468331Y-124885461D01*
X137696092Y-124885461D01*
X137720144Y-125535460D01*
X137922613Y-126024264D01*
X138189468Y-126122927D01*
X139162395Y-125150000D01*
X139521605Y-125150000D01*
X140494532Y-126122927D01*
X140761387Y-126024264D01*
X140909489Y-125625619D01*
X141074613Y-126024264D01*
X141341468Y-126122927D01*
X142314395Y-125150000D01*
X142673605Y-125150000D01*
X143646532Y-126122927D01*
X143913387Y-126024264D01*
X144139908Y-125414539D01*
X144120331Y-124885461D01*
X147348092Y-124885461D01*
X147372144Y-125535460D01*
X147574613Y-126024264D01*
X147841468Y-126122927D01*
X148814395Y-125150000D01*
X149173605Y-125150000D01*
X150146532Y-126122927D01*
X150413387Y-126024264D01*
X150639908Y-125414539D01*
X150615856Y-124764540D01*
X150413387Y-124275736D01*
X150146532Y-124177073D01*
X149173605Y-125150000D01*
X148814395Y-125150000D01*
X147841468Y-124177073D01*
X147574613Y-124275736D01*
X147348092Y-124885461D01*
X144120331Y-124885461D01*
X144115856Y-124764540D01*
X143913387Y-124275736D01*
X143646532Y-124177073D01*
X142673605Y-125150000D01*
X142314395Y-125150000D01*
X141341468Y-124177073D01*
X141074613Y-124275736D01*
X140926511Y-124674381D01*
X140761387Y-124275736D01*
X140494532Y-124177073D01*
X139521605Y-125150000D01*
X139162395Y-125150000D01*
X138189468Y-124177073D01*
X137922613Y-124275736D01*
X137696092Y-124885461D01*
X134468331Y-124885461D01*
X134463856Y-124764540D01*
X134261387Y-124275736D01*
X133994532Y-124177073D01*
X133021605Y-125150000D01*
X132662395Y-125150000D01*
X131689468Y-124177073D01*
X131422613Y-124275736D01*
X131196092Y-124885461D01*
X125665283Y-124885461D01*
X126004943Y-124745117D01*
X126268192Y-124482327D01*
X126410838Y-124138799D01*
X126410961Y-123997468D01*
X131869073Y-123997468D01*
X132842000Y-124970395D01*
X133814927Y-123997468D01*
X138369073Y-123997468D01*
X139342000Y-124970395D01*
X140314927Y-123997468D01*
X141521073Y-123997468D01*
X142494000Y-124970395D01*
X143466927Y-123997468D01*
X148021073Y-123997468D01*
X148994000Y-124970395D01*
X149966927Y-123997468D01*
X149868264Y-123730613D01*
X149258539Y-123504092D01*
X148608540Y-123528144D01*
X148119736Y-123730613D01*
X148021073Y-123997468D01*
X143466927Y-123997468D01*
X143368264Y-123730613D01*
X142758539Y-123504092D01*
X142108540Y-123528144D01*
X141619736Y-123730613D01*
X141521073Y-123997468D01*
X140314927Y-123997468D01*
X140216264Y-123730613D01*
X139606539Y-123504092D01*
X138956540Y-123528144D01*
X138467736Y-123730613D01*
X138369073Y-123997468D01*
X133814927Y-123997468D01*
X133716264Y-123730613D01*
X133106539Y-123504092D01*
X132456540Y-123528144D01*
X131967736Y-123730613D01*
X131869073Y-123997468D01*
X126410961Y-123997468D01*
X126411162Y-123766833D01*
X126269117Y-123423057D01*
X126006327Y-123159808D01*
X125662799Y-123017162D01*
X125562705Y-123017075D01*
X124827823Y-122282193D01*
X124927441Y-122218090D01*
X125072431Y-122005890D01*
X125123440Y-121754000D01*
X125123440Y-120054000D01*
X125828560Y-120054000D01*
X125828560Y-121754000D01*
X125872838Y-121989317D01*
X126011910Y-122205441D01*
X126224110Y-122350431D01*
X126476000Y-122401440D01*
X128476000Y-122401440D01*
X128711317Y-122357162D01*
X128927441Y-122218090D01*
X129072431Y-122005890D01*
X129123440Y-121754000D01*
X129123440Y-121382190D01*
X129531835Y-120973795D01*
X131206716Y-120973795D01*
X131455106Y-121574943D01*
X131914637Y-122035278D01*
X132515352Y-122284716D01*
X133165795Y-122285284D01*
X133766943Y-122036894D01*
X134227278Y-121577363D01*
X134476716Y-120976648D01*
X134477284Y-120326205D01*
X134228894Y-119725057D01*
X133769363Y-119264722D01*
X133168648Y-119015284D01*
X132518205Y-119014716D01*
X131917057Y-119263106D01*
X131456722Y-119722637D01*
X131207284Y-120323352D01*
X131206716Y-120973795D01*
X129531835Y-120973795D01*
X130190506Y-120315125D01*
X130233167Y-120315162D01*
X130576943Y-120173117D01*
X130840192Y-119910327D01*
X130982838Y-119566799D01*
X130983162Y-119194833D01*
X130841117Y-118851057D01*
X130578327Y-118587808D01*
X130234799Y-118445162D01*
X129862833Y-118444838D01*
X129519057Y-118586883D01*
X129255808Y-118849673D01*
X129113162Y-119193201D01*
X129113124Y-119237246D01*
X128825860Y-119524509D01*
X128727890Y-119457569D01*
X128476000Y-119406560D01*
X126476000Y-119406560D01*
X126240683Y-119450838D01*
X126024559Y-119589910D01*
X125879569Y-119802110D01*
X125828560Y-120054000D01*
X125123440Y-120054000D01*
X125079162Y-119818683D01*
X124940090Y-119602559D01*
X124727890Y-119457569D01*
X124476000Y-119406560D01*
X122476000Y-119406560D01*
X122240683Y-119450838D01*
X122024559Y-119589910D01*
X121879569Y-119802110D01*
X121828560Y-120054000D01*
X119710000Y-120054000D01*
X119710000Y-115736000D01*
X131734560Y-115736000D01*
X131734560Y-117436000D01*
X131778838Y-117671317D01*
X131917910Y-117887441D01*
X132130110Y-118032431D01*
X132382000Y-118083440D01*
X134382000Y-118083440D01*
X134617317Y-118039162D01*
X134833441Y-117900090D01*
X134978431Y-117687890D01*
X135029440Y-117436000D01*
X135029440Y-115736000D01*
X135734560Y-115736000D01*
X135734560Y-117436000D01*
X135778838Y-117671317D01*
X135917910Y-117887441D01*
X136130110Y-118032431D01*
X136382000Y-118083440D01*
X138382000Y-118083440D01*
X138617317Y-118039162D01*
X138833441Y-117900090D01*
X138978431Y-117687890D01*
X139029440Y-117436000D01*
X139029440Y-116871750D01*
X139113000Y-116871750D01*
X139113000Y-117562310D01*
X139209673Y-117795699D01*
X139388302Y-117974327D01*
X139621691Y-118071000D01*
X140462250Y-118071000D01*
X140621000Y-117912250D01*
X140621000Y-116713000D01*
X140875000Y-116713000D01*
X140875000Y-117912250D01*
X141033750Y-118071000D01*
X141874309Y-118071000D01*
X142107698Y-117974327D01*
X142286327Y-117795699D01*
X142383000Y-117562310D01*
X142383000Y-116871750D01*
X142224250Y-116713000D01*
X140875000Y-116713000D01*
X140621000Y-116713000D01*
X139271750Y-116713000D01*
X139113000Y-116871750D01*
X139029440Y-116871750D01*
X139029440Y-116556190D01*
X139199190Y-116386440D01*
X139271750Y-116459000D01*
X140621000Y-116459000D01*
X140621000Y-115259750D01*
X140875000Y-115259750D01*
X140875000Y-116459000D01*
X142224250Y-116459000D01*
X142383000Y-116300250D01*
X142383000Y-115736000D01*
X143100560Y-115736000D01*
X143100560Y-117436000D01*
X143144838Y-117671317D01*
X143283910Y-117887441D01*
X143496110Y-118032431D01*
X143748000Y-118083440D01*
X145748000Y-118083440D01*
X145983317Y-118039162D01*
X146199441Y-117900090D01*
X146344431Y-117687890D01*
X146395440Y-117436000D01*
X146395440Y-115736000D01*
X146351162Y-115500683D01*
X146212090Y-115284559D01*
X146076145Y-115191672D01*
X146131441Y-115156090D01*
X146276431Y-114943890D01*
X146327440Y-114692000D01*
X146327440Y-114148890D01*
X148164524Y-114148890D01*
X148334355Y-114558924D01*
X148724642Y-114987183D01*
X149249108Y-115233486D01*
X149479000Y-115112819D01*
X149479000Y-113919000D01*
X149733000Y-113919000D01*
X149733000Y-115112819D01*
X149962892Y-115233486D01*
X150487358Y-114987183D01*
X150877645Y-114558924D01*
X151047476Y-114148890D01*
X150926155Y-113919000D01*
X149733000Y-113919000D01*
X149479000Y-113919000D01*
X148285845Y-113919000D01*
X148164524Y-114148890D01*
X146327440Y-114148890D01*
X146327440Y-112892000D01*
X146283162Y-112656683D01*
X146144090Y-112440559D01*
X145931890Y-112295569D01*
X145911466Y-112291433D01*
X146080551Y-112122643D01*
X146314733Y-111558670D01*
X146315265Y-110948009D01*
X146089659Y-110402000D01*
X148108560Y-110402000D01*
X148108560Y-112102000D01*
X148152838Y-112337317D01*
X148291910Y-112553441D01*
X148504110Y-112698431D01*
X148612107Y-112720301D01*
X148334355Y-113025076D01*
X148164524Y-113435110D01*
X148285845Y-113665000D01*
X149479000Y-113665000D01*
X149479000Y-113645000D01*
X149733000Y-113645000D01*
X149733000Y-113665000D01*
X150926155Y-113665000D01*
X151047476Y-113435110D01*
X150877645Y-113025076D01*
X150601499Y-112722063D01*
X150691317Y-112705162D01*
X150907441Y-112566090D01*
X151052431Y-112353890D01*
X151103440Y-112102000D01*
X151103440Y-110402000D01*
X151059162Y-110166683D01*
X150920090Y-109950559D01*
X150707890Y-109805569D01*
X150456000Y-109754560D01*
X148756000Y-109754560D01*
X148520683Y-109798838D01*
X148304559Y-109937910D01*
X148159569Y-110150110D01*
X148108560Y-110402000D01*
X146089659Y-110402000D01*
X146082068Y-110383629D01*
X145650643Y-109951449D01*
X145086670Y-109717267D01*
X144476009Y-109716735D01*
X143911629Y-109949932D01*
X143479449Y-110381357D01*
X143245267Y-110945330D01*
X143244735Y-111555991D01*
X143477932Y-112120371D01*
X143645880Y-112288613D01*
X143644683Y-112288838D01*
X143428559Y-112427910D01*
X143283569Y-112640110D01*
X143232560Y-112892000D01*
X143232560Y-114692000D01*
X143276838Y-114927317D01*
X143415910Y-115143441D01*
X143454854Y-115170050D01*
X143296559Y-115271910D01*
X143151569Y-115484110D01*
X143100560Y-115736000D01*
X142383000Y-115736000D01*
X142383000Y-115609690D01*
X142286327Y-115376301D01*
X142107698Y-115197673D01*
X141874309Y-115101000D01*
X141033750Y-115101000D01*
X140875000Y-115259750D01*
X140621000Y-115259750D01*
X140536987Y-115175737D01*
X140736943Y-115093117D01*
X141000192Y-114830327D01*
X141142838Y-114486799D01*
X141143162Y-114114833D01*
X141001117Y-113771057D01*
X140738327Y-113507808D01*
X140394799Y-113365162D01*
X140022833Y-113364838D01*
X139679057Y-113506883D01*
X139415808Y-113769673D01*
X139273162Y-114113201D01*
X139273124Y-114157246D01*
X138341810Y-115088560D01*
X136382000Y-115088560D01*
X136146683Y-115132838D01*
X135930559Y-115271910D01*
X135785569Y-115484110D01*
X135734560Y-115736000D01*
X135029440Y-115736000D01*
X134985162Y-115500683D01*
X134846090Y-115284559D01*
X134633890Y-115139569D01*
X134382000Y-115088560D01*
X134112000Y-115088560D01*
X134112000Y-113861440D01*
X134150000Y-113861440D01*
X134385317Y-113817162D01*
X134601441Y-113678090D01*
X134746431Y-113465890D01*
X134781906Y-113290709D01*
X134965104Y-113518500D01*
X135458181Y-113788367D01*
X135540961Y-113805904D01*
X135763000Y-113683915D01*
X135763000Y-112141000D01*
X135743000Y-112141000D01*
X135743000Y-111887000D01*
X135763000Y-111887000D01*
X135763000Y-110344085D01*
X136017000Y-110344085D01*
X136017000Y-111887000D01*
X136037000Y-111887000D01*
X136037000Y-112141000D01*
X136017000Y-112141000D01*
X136017000Y-113683915D01*
X136239039Y-113805904D01*
X136321819Y-113788367D01*
X136814896Y-113518500D01*
X137162493Y-113086293D01*
X137415302Y-113464648D01*
X137880849Y-113775717D01*
X138430000Y-113884950D01*
X138979151Y-113775717D01*
X139444698Y-113464648D01*
X139755767Y-112999101D01*
X139865000Y-112449950D01*
X139865000Y-111578050D01*
X139755767Y-111028899D01*
X139444698Y-110563352D01*
X138979151Y-110252283D01*
X138430000Y-110143050D01*
X137880849Y-110252283D01*
X137415302Y-110563352D01*
X137162493Y-110941707D01*
X136814896Y-110509500D01*
X136321819Y-110239633D01*
X136239039Y-110222096D01*
X136017000Y-110344085D01*
X135763000Y-110344085D01*
X135540961Y-110222096D01*
X135458181Y-110239633D01*
X134965104Y-110509500D01*
X134782798Y-110736182D01*
X134753162Y-110578683D01*
X134614090Y-110362559D01*
X134401890Y-110217569D01*
X134150000Y-110166560D01*
X132550000Y-110166560D01*
X132314683Y-110210838D01*
X132098559Y-110349910D01*
X131953569Y-110562110D01*
X131902560Y-110814000D01*
X131902560Y-113214000D01*
X131946838Y-113449317D01*
X132085910Y-113665441D01*
X132298110Y-113810431D01*
X132550000Y-113861440D01*
X132588000Y-113861440D01*
X132588000Y-115088560D01*
X132382000Y-115088560D01*
X132146683Y-115132838D01*
X131930559Y-115271910D01*
X131785569Y-115484110D01*
X131734560Y-115736000D01*
X119710000Y-115736000D01*
X119710000Y-111129000D01*
X121053560Y-111129000D01*
X121053560Y-113479000D01*
X121097838Y-113714317D01*
X121236910Y-113930441D01*
X121449110Y-114075431D01*
X121701000Y-114126440D01*
X124051000Y-114126440D01*
X124286317Y-114082162D01*
X124502441Y-113943090D01*
X124647431Y-113730890D01*
X124698440Y-113479000D01*
X124698440Y-112662452D01*
X126265686Y-112662452D01*
X126540662Y-113327943D01*
X127049379Y-113837549D01*
X127714389Y-114113685D01*
X128434452Y-114114314D01*
X129099943Y-113839338D01*
X129609549Y-113330621D01*
X129885685Y-112665611D01*
X129886314Y-111945548D01*
X129611338Y-111280057D01*
X129102621Y-110770451D01*
X128437611Y-110494315D01*
X127717548Y-110493686D01*
X127052057Y-110768662D01*
X126542451Y-111277379D01*
X126266315Y-111942389D01*
X126265686Y-112662452D01*
X124698440Y-112662452D01*
X124698440Y-111129000D01*
X124654162Y-110893683D01*
X124515090Y-110677559D01*
X124302890Y-110532569D01*
X124051000Y-110481560D01*
X121701000Y-110481560D01*
X121465683Y-110525838D01*
X121249559Y-110664910D01*
X121104569Y-110877110D01*
X121053560Y-111129000D01*
X119710000Y-111129000D01*
X119710000Y-104462452D01*
X121065686Y-104462452D01*
X121340662Y-105127943D01*
X121849379Y-105637549D01*
X122514389Y-105913685D01*
X123234452Y-105914314D01*
X123899943Y-105639338D01*
X124409549Y-105130621D01*
X124685685Y-104465611D01*
X124685687Y-104462452D01*
X126265686Y-104462452D01*
X126540662Y-105127943D01*
X127049379Y-105637549D01*
X127714389Y-105913685D01*
X128434452Y-105914314D01*
X129099943Y-105639338D01*
X129609549Y-105130621D01*
X129885685Y-104465611D01*
X129886128Y-103958050D01*
X131915000Y-103958050D01*
X131915000Y-104829950D01*
X132024233Y-105379101D01*
X132335302Y-105844648D01*
X132800849Y-106155717D01*
X133350000Y-106264950D01*
X133899151Y-106155717D01*
X134364698Y-105844648D01*
X134620000Y-105462562D01*
X134875302Y-105844648D01*
X135340849Y-106155717D01*
X135890000Y-106264950D01*
X136439151Y-106155717D01*
X136904698Y-105844648D01*
X137160000Y-105462562D01*
X137415302Y-105844648D01*
X137880849Y-106155717D01*
X138430000Y-106264950D01*
X138979151Y-106155717D01*
X139444698Y-105844648D01*
X139755767Y-105379101D01*
X139822026Y-105045991D01*
X156024735Y-105045991D01*
X156257932Y-105610371D01*
X156689357Y-106042551D01*
X157253330Y-106276733D01*
X157863991Y-106277265D01*
X158428371Y-106044068D01*
X158860551Y-105612643D01*
X158938051Y-105426000D01*
X159792560Y-105426000D01*
X159792560Y-107426000D01*
X159836838Y-107661317D01*
X159975910Y-107877441D01*
X160188110Y-108022431D01*
X160440000Y-108073440D01*
X161709809Y-108073440D01*
X161792947Y-108156578D01*
X161767808Y-108181673D01*
X161625162Y-108525201D01*
X161624838Y-108897167D01*
X161766883Y-109240943D01*
X162029673Y-109504192D01*
X162373201Y-109646838D01*
X162745167Y-109647162D01*
X163088943Y-109505117D01*
X163352192Y-109242327D01*
X163494838Y-108898799D01*
X163495039Y-108667767D01*
X163545185Y-108742815D01*
X163656875Y-108854505D01*
X163656838Y-108897167D01*
X163798883Y-109240943D01*
X164061673Y-109504192D01*
X164405201Y-109646838D01*
X164777167Y-109647162D01*
X165120943Y-109505117D01*
X165384192Y-109242327D01*
X165526838Y-108898799D01*
X165527162Y-108526833D01*
X165385117Y-108183057D01*
X165207173Y-108004802D01*
X165385441Y-107890090D01*
X165530431Y-107677890D01*
X165581440Y-107426000D01*
X165581440Y-105822159D01*
X166659446Y-105822159D01*
X166745852Y-106078643D01*
X167319336Y-106288458D01*
X167929460Y-106262839D01*
X168374148Y-106078643D01*
X168460554Y-105822159D01*
X167560000Y-104921605D01*
X166659446Y-105822159D01*
X165581440Y-105822159D01*
X165581440Y-105426000D01*
X165537162Y-105190683D01*
X165398090Y-104974559D01*
X165185890Y-104829569D01*
X164934000Y-104778560D01*
X163234000Y-104778560D01*
X162998683Y-104822838D01*
X162782559Y-104961910D01*
X162686457Y-105102560D01*
X162604090Y-104974559D01*
X162391890Y-104829569D01*
X162140000Y-104778560D01*
X160440000Y-104778560D01*
X160204683Y-104822838D01*
X159988559Y-104961910D01*
X159843569Y-105174110D01*
X159792560Y-105426000D01*
X158938051Y-105426000D01*
X159094733Y-105048670D01*
X159095209Y-104501336D01*
X166013542Y-104501336D01*
X166039161Y-105111460D01*
X166223357Y-105556148D01*
X166479841Y-105642554D01*
X167380395Y-104742000D01*
X167739605Y-104742000D01*
X168640159Y-105642554D01*
X168896643Y-105556148D01*
X169106458Y-104982664D01*
X169080839Y-104372540D01*
X168896643Y-103927852D01*
X168640159Y-103841446D01*
X167739605Y-104742000D01*
X167380395Y-104742000D01*
X166479841Y-103841446D01*
X166223357Y-103927852D01*
X166013542Y-104501336D01*
X159095209Y-104501336D01*
X159095265Y-104438009D01*
X159050342Y-104329288D01*
X159818068Y-103561563D01*
X159836838Y-103661317D01*
X159975910Y-103877441D01*
X160188110Y-104022431D01*
X160440000Y-104073440D01*
X162140000Y-104073440D01*
X162375317Y-104029162D01*
X162591441Y-103890090D01*
X162687543Y-103749440D01*
X162769910Y-103877441D01*
X162982110Y-104022431D01*
X163234000Y-104073440D01*
X164934000Y-104073440D01*
X165169317Y-104029162D01*
X165385441Y-103890090D01*
X165530431Y-103677890D01*
X165533681Y-103661841D01*
X166659446Y-103661841D01*
X167560000Y-104562395D01*
X168460554Y-103661841D01*
X168374148Y-103405357D01*
X167800664Y-103195542D01*
X167190540Y-103221161D01*
X166745852Y-103405357D01*
X166659446Y-103661841D01*
X165533681Y-103661841D01*
X165581440Y-103426000D01*
X165581440Y-101426000D01*
X165537162Y-101190683D01*
X165398090Y-100974559D01*
X165185890Y-100829569D01*
X164934000Y-100778560D01*
X163234000Y-100778560D01*
X162998683Y-100822838D01*
X162782559Y-100961910D01*
X162686457Y-101102560D01*
X162604090Y-100974559D01*
X162391890Y-100829569D01*
X162140000Y-100778560D01*
X160440000Y-100778560D01*
X160204683Y-100822838D01*
X159988559Y-100961910D01*
X159843569Y-101174110D01*
X159792560Y-101426000D01*
X159792560Y-101680597D01*
X159584395Y-101722004D01*
X159519676Y-101765248D01*
X159337185Y-101887184D01*
X157972965Y-103251405D01*
X157866670Y-103207267D01*
X157256009Y-103206735D01*
X156691629Y-103439932D01*
X156259449Y-103871357D01*
X156025267Y-104435330D01*
X156024735Y-105045991D01*
X139822026Y-105045991D01*
X139865000Y-104829950D01*
X139865000Y-103958050D01*
X139755767Y-103408899D01*
X139444698Y-102943352D01*
X138979151Y-102632283D01*
X138430000Y-102523050D01*
X137880849Y-102632283D01*
X137415302Y-102943352D01*
X137160000Y-103325438D01*
X136904698Y-102943352D01*
X136439151Y-102632283D01*
X135890000Y-102523050D01*
X135340849Y-102632283D01*
X134875302Y-102943352D01*
X134620000Y-103325438D01*
X134364698Y-102943352D01*
X133899151Y-102632283D01*
X133350000Y-102523050D01*
X132800849Y-102632283D01*
X132335302Y-102943352D01*
X132024233Y-103408899D01*
X131915000Y-103958050D01*
X129886128Y-103958050D01*
X129886314Y-103745548D01*
X129611338Y-103080057D01*
X129102621Y-102570451D01*
X128437611Y-102294315D01*
X127717548Y-102293686D01*
X127052057Y-102568662D01*
X126542451Y-103077379D01*
X126266315Y-103742389D01*
X126265686Y-104462452D01*
X124685687Y-104462452D01*
X124686314Y-103745548D01*
X124411338Y-103080057D01*
X123902621Y-102570451D01*
X123237611Y-102294315D01*
X122517548Y-102293686D01*
X121852057Y-102568662D01*
X121342451Y-103077379D01*
X121066315Y-103742389D01*
X121065686Y-104462452D01*
X119710000Y-104462452D01*
X119710000Y-100614187D01*
X122008752Y-100614187D01*
X122226757Y-101141800D01*
X122630077Y-101545824D01*
X123157309Y-101764750D01*
X123728187Y-101765248D01*
X124255800Y-101547243D01*
X124659824Y-101143923D01*
X124878750Y-100616691D01*
X124878752Y-100614187D01*
X125818752Y-100614187D01*
X126036757Y-101141800D01*
X126440077Y-101545824D01*
X126967309Y-101764750D01*
X127538187Y-101765248D01*
X128065800Y-101547243D01*
X128469824Y-101143923D01*
X128688750Y-100616691D01*
X128688752Y-100614187D01*
X131914752Y-100614187D01*
X132132757Y-101141800D01*
X132536077Y-101545824D01*
X133063309Y-101764750D01*
X133634187Y-101765248D01*
X134161800Y-101547243D01*
X134565824Y-101143923D01*
X134784750Y-100616691D01*
X134785248Y-100045813D01*
X134567243Y-99518200D01*
X134163923Y-99114176D01*
X133636691Y-98895250D01*
X133065813Y-98894752D01*
X132538200Y-99112757D01*
X132134176Y-99516077D01*
X131915250Y-100043309D01*
X131914752Y-100614187D01*
X128688752Y-100614187D01*
X128689248Y-100045813D01*
X128471243Y-99518200D01*
X128067923Y-99114176D01*
X127540691Y-98895250D01*
X126969813Y-98894752D01*
X126442200Y-99112757D01*
X126038176Y-99516077D01*
X125819250Y-100043309D01*
X125818752Y-100614187D01*
X124878752Y-100614187D01*
X124879248Y-100045813D01*
X124661243Y-99518200D01*
X124257923Y-99114176D01*
X123730691Y-98895250D01*
X123159813Y-98894752D01*
X122632200Y-99112757D01*
X122228176Y-99516077D01*
X122009250Y-100043309D01*
X122008752Y-100614187D01*
X119710000Y-100614187D01*
X119710000Y-92681887D01*
X122009000Y-92681887D01*
X122009000Y-92738113D01*
X122118233Y-93287264D01*
X122429302Y-93752811D01*
X122894849Y-94063880D01*
X123444000Y-94173113D01*
X123993151Y-94063880D01*
X124458698Y-93752811D01*
X124769767Y-93287264D01*
X124879000Y-92738113D01*
X124879000Y-92681887D01*
X125819000Y-92681887D01*
X125819000Y-92738113D01*
X125928233Y-93287264D01*
X126239302Y-93752811D01*
X126704849Y-94063880D01*
X127254000Y-94173113D01*
X127803151Y-94063880D01*
X128268698Y-93752811D01*
X128579767Y-93287264D01*
X128689000Y-92738113D01*
X128689000Y-92681887D01*
X131915000Y-92681887D01*
X131915000Y-92738113D01*
X132024233Y-93287264D01*
X132335302Y-93752811D01*
X132800849Y-94063880D01*
X133350000Y-94173113D01*
X133899151Y-94063880D01*
X134364698Y-93752811D01*
X134474821Y-93588000D01*
X136120560Y-93588000D01*
X136120560Y-95388000D01*
X136164838Y-95623317D01*
X136303910Y-95839441D01*
X136516110Y-95984431D01*
X136532344Y-95987719D01*
X136249845Y-96410509D01*
X136133000Y-96997928D01*
X136133000Y-97058072D01*
X136249845Y-97645491D01*
X136582591Y-98143481D01*
X136813845Y-98298000D01*
X136582591Y-98452519D01*
X136249845Y-98950509D01*
X136133000Y-99537928D01*
X136133000Y-99598072D01*
X136249845Y-100185491D01*
X136582591Y-100683481D01*
X137080581Y-101016227D01*
X137668000Y-101133072D01*
X138255419Y-101016227D01*
X138753409Y-100683481D01*
X139086155Y-100185491D01*
X139203000Y-99598072D01*
X139203000Y-99537928D01*
X139086155Y-98950509D01*
X138753409Y-98452519D01*
X138522155Y-98298000D01*
X138753409Y-98143481D01*
X139086155Y-97645491D01*
X139203000Y-97058072D01*
X139203000Y-96997928D01*
X139086155Y-96410509D01*
X138805163Y-95989974D01*
X139019441Y-95852090D01*
X139164431Y-95639890D01*
X139215440Y-95388000D01*
X139215440Y-93588000D01*
X139171162Y-93352683D01*
X139032090Y-93136559D01*
X138819890Y-92991569D01*
X138568000Y-92940560D01*
X136768000Y-92940560D01*
X136532683Y-92984838D01*
X136316559Y-93123910D01*
X136171569Y-93336110D01*
X136120560Y-93588000D01*
X134474821Y-93588000D01*
X134675767Y-93287264D01*
X134785000Y-92738113D01*
X134785000Y-92681887D01*
X134675767Y-92132736D01*
X134364698Y-91667189D01*
X133899151Y-91356120D01*
X133350000Y-91246887D01*
X132800849Y-91356120D01*
X132335302Y-91667189D01*
X132024233Y-92132736D01*
X131915000Y-92681887D01*
X128689000Y-92681887D01*
X128579767Y-92132736D01*
X128268698Y-91667189D01*
X127803151Y-91356120D01*
X127254000Y-91246887D01*
X126704849Y-91356120D01*
X126239302Y-91667189D01*
X125928233Y-92132736D01*
X125819000Y-92681887D01*
X124879000Y-92681887D01*
X124769767Y-92132736D01*
X124458698Y-91667189D01*
X123993151Y-91356120D01*
X123444000Y-91246887D01*
X122894849Y-91356120D01*
X122429302Y-91667189D01*
X122118233Y-92132736D01*
X122009000Y-92681887D01*
X119710000Y-92681887D01*
X119710000Y-86215403D01*
X123760682Y-86215403D01*
X124039455Y-86890086D01*
X124555199Y-87406730D01*
X125229395Y-87686681D01*
X125959403Y-87687318D01*
X126634086Y-87408545D01*
X127150730Y-86892801D01*
X127421731Y-86240158D01*
X131135660Y-86240158D01*
X131433424Y-86960801D01*
X131984299Y-87512639D01*
X132704421Y-87811659D01*
X133484158Y-87812340D01*
X134204801Y-87514576D01*
X134756639Y-86963701D01*
X135055659Y-86243579D01*
X135055683Y-86215403D01*
X138760682Y-86215403D01*
X139039455Y-86890086D01*
X139555199Y-87406730D01*
X140229395Y-87686681D01*
X140959403Y-87687318D01*
X141634086Y-87408545D01*
X142150730Y-86892801D01*
X142430681Y-86218605D01*
X142431318Y-85488597D01*
X142152545Y-84813914D01*
X141636801Y-84297270D01*
X140962605Y-84017319D01*
X140232597Y-84016682D01*
X139557914Y-84295455D01*
X139041270Y-84811199D01*
X138761319Y-85485395D01*
X138760682Y-86215403D01*
X135055683Y-86215403D01*
X135056340Y-85463842D01*
X134758576Y-84743199D01*
X134207701Y-84191361D01*
X133487579Y-83892341D01*
X132707842Y-83891660D01*
X131987199Y-84189424D01*
X131435361Y-84740299D01*
X131136341Y-85460421D01*
X131135660Y-86240158D01*
X127421731Y-86240158D01*
X127430681Y-86218605D01*
X127431318Y-85488597D01*
X127152545Y-84813914D01*
X126636801Y-84297270D01*
X125962605Y-84017319D01*
X125232597Y-84016682D01*
X124557914Y-84295455D01*
X124041270Y-84811199D01*
X123761319Y-85485395D01*
X123760682Y-86215403D01*
X119710000Y-86215403D01*
X119710000Y-83842000D01*
X151012560Y-83842000D01*
X151012560Y-85642000D01*
X151056838Y-85877317D01*
X151195910Y-86093441D01*
X151408110Y-86238431D01*
X151660000Y-86289440D01*
X153460000Y-86289440D01*
X153695317Y-86245162D01*
X153911441Y-86106090D01*
X154056431Y-85893890D01*
X154107440Y-85642000D01*
X154107440Y-83842000D01*
X171012560Y-83842000D01*
X171012560Y-85642000D01*
X171056838Y-85877317D01*
X171195910Y-86093441D01*
X171408110Y-86238431D01*
X171660000Y-86289440D01*
X173460000Y-86289440D01*
X173695317Y-86245162D01*
X173911441Y-86106090D01*
X174056431Y-85893890D01*
X174107440Y-85642000D01*
X174107440Y-83842000D01*
X174063162Y-83606683D01*
X173924090Y-83390559D01*
X173711890Y-83245569D01*
X173460000Y-83194560D01*
X171660000Y-83194560D01*
X171424683Y-83238838D01*
X171208559Y-83377910D01*
X171063569Y-83590110D01*
X171012560Y-83842000D01*
X154107440Y-83842000D01*
X154063162Y-83606683D01*
X153924090Y-83390559D01*
X153711890Y-83245569D01*
X153460000Y-83194560D01*
X151660000Y-83194560D01*
X151424683Y-83238838D01*
X151208559Y-83377910D01*
X151063569Y-83590110D01*
X151012560Y-83842000D01*
X119710000Y-83842000D01*
X119710000Y-75991011D01*
X122330648Y-75991011D01*
X122639805Y-76739229D01*
X123211760Y-77312183D01*
X123959438Y-77622646D01*
X124769011Y-77623352D01*
X125517229Y-77314195D01*
X126090183Y-76742240D01*
X126400646Y-75994562D01*
X126400649Y-75991011D01*
X132330648Y-75991011D01*
X132639805Y-76739229D01*
X133211760Y-77312183D01*
X133959438Y-77622646D01*
X134769011Y-77623352D01*
X135517229Y-77314195D01*
X136090183Y-76742240D01*
X136400646Y-75994562D01*
X136401352Y-75184989D01*
X136092195Y-74436771D01*
X135843858Y-74188000D01*
X142318560Y-74188000D01*
X142318560Y-76988000D01*
X142362838Y-77223317D01*
X142501910Y-77439441D01*
X142714110Y-77584431D01*
X142966000Y-77635440D01*
X145766000Y-77635440D01*
X146001317Y-77591162D01*
X146217441Y-77452090D01*
X146362431Y-77239890D01*
X146413440Y-76988000D01*
X146413440Y-75991011D01*
X150778648Y-75991011D01*
X151087805Y-76739229D01*
X151659760Y-77312183D01*
X152407438Y-77622646D01*
X153217011Y-77623352D01*
X153965229Y-77314195D01*
X154538183Y-76742240D01*
X154848646Y-75994562D01*
X154848649Y-75991011D01*
X160778648Y-75991011D01*
X161087805Y-76739229D01*
X161659760Y-77312183D01*
X162407438Y-77622646D01*
X163217011Y-77623352D01*
X163965229Y-77314195D01*
X164538183Y-76742240D01*
X164848646Y-75994562D01*
X164849352Y-75184989D01*
X164540195Y-74436771D01*
X164291858Y-74188000D01*
X170766560Y-74188000D01*
X170766560Y-76988000D01*
X170810838Y-77223317D01*
X170949910Y-77439441D01*
X171162110Y-77584431D01*
X171414000Y-77635440D01*
X174214000Y-77635440D01*
X174449317Y-77591162D01*
X174665441Y-77452090D01*
X174810431Y-77239890D01*
X174861440Y-76988000D01*
X174861440Y-74188000D01*
X174817162Y-73952683D01*
X174678090Y-73736559D01*
X174465890Y-73591569D01*
X174214000Y-73540560D01*
X171414000Y-73540560D01*
X171178683Y-73584838D01*
X170962559Y-73723910D01*
X170817569Y-73936110D01*
X170766560Y-74188000D01*
X164291858Y-74188000D01*
X163968240Y-73863817D01*
X163220562Y-73553354D01*
X162410989Y-73552648D01*
X161662771Y-73861805D01*
X161089817Y-74433760D01*
X160779354Y-75181438D01*
X160778648Y-75991011D01*
X154848649Y-75991011D01*
X154849352Y-75184989D01*
X154540195Y-74436771D01*
X153968240Y-73863817D01*
X153220562Y-73553354D01*
X152410989Y-73552648D01*
X151662771Y-73861805D01*
X151089817Y-74433760D01*
X150779354Y-75181438D01*
X150778648Y-75991011D01*
X146413440Y-75991011D01*
X146413440Y-74188000D01*
X146369162Y-73952683D01*
X146230090Y-73736559D01*
X146017890Y-73591569D01*
X145766000Y-73540560D01*
X142966000Y-73540560D01*
X142730683Y-73584838D01*
X142514559Y-73723910D01*
X142369569Y-73936110D01*
X142318560Y-74188000D01*
X135843858Y-74188000D01*
X135520240Y-73863817D01*
X134772562Y-73553354D01*
X133962989Y-73552648D01*
X133214771Y-73861805D01*
X132641817Y-74433760D01*
X132331354Y-75181438D01*
X132330648Y-75991011D01*
X126400649Y-75991011D01*
X126401352Y-75184989D01*
X126092195Y-74436771D01*
X125520240Y-73863817D01*
X124772562Y-73553354D01*
X123962989Y-73552648D01*
X123214771Y-73861805D01*
X122641817Y-74433760D01*
X122331354Y-75181438D01*
X122330648Y-75991011D01*
X119710000Y-75991011D01*
X119710000Y-70069931D01*
X119821046Y-69511662D01*
X120097669Y-69097667D01*
X120511660Y-68821047D01*
X121069931Y-68710000D01*
X176930069Y-68710000D01*
X177488338Y-68821046D01*
X177488338Y-68821046D01*
G37*
X177488338Y-68821046D02*
X177902333Y-69097669D01*
X178178953Y-69511660D01*
X178290000Y-70069931D01*
X178290000Y-110109000D01*
X175514000Y-110109000D01*
X175467841Y-110117685D01*
X175425447Y-110144965D01*
X175397006Y-110186590D01*
X175387000Y-110236000D01*
X175387000Y-112289822D01*
X175295890Y-112227569D01*
X175080374Y-112183926D01*
X175178838Y-111946799D01*
X175179162Y-111574833D01*
X175037117Y-111231057D01*
X174774327Y-110967808D01*
X174430799Y-110825162D01*
X174058833Y-110824838D01*
X173715057Y-110966883D01*
X173451808Y-111229673D01*
X173309162Y-111573201D01*
X173308838Y-111945167D01*
X173407301Y-112183465D01*
X173208683Y-112220838D01*
X172992559Y-112359910D01*
X172870707Y-112538246D01*
X172764090Y-112372559D01*
X172551890Y-112227569D01*
X172300000Y-112176560D01*
X170600000Y-112176560D01*
X170364683Y-112220838D01*
X170148559Y-112359910D01*
X170052457Y-112500560D01*
X169970090Y-112372559D01*
X169757890Y-112227569D01*
X169506000Y-112176560D01*
X168236190Y-112176560D01*
X167813006Y-111753376D01*
X167813162Y-111574833D01*
X167671117Y-111231057D01*
X167408327Y-110967808D01*
X167064799Y-110825162D01*
X166692833Y-110824838D01*
X166349057Y-110966883D01*
X166085808Y-111229673D01*
X165943162Y-111573201D01*
X165942838Y-111945167D01*
X166038447Y-112176560D01*
X165316000Y-112176560D01*
X165080683Y-112220838D01*
X164864559Y-112359910D01*
X164719569Y-112572110D01*
X164668560Y-112824000D01*
X164668560Y-113399810D01*
X164195495Y-113872875D01*
X164152833Y-113872838D01*
X163809057Y-114014883D01*
X163545808Y-114277673D01*
X163431066Y-114554000D01*
X161850466Y-114554000D01*
X161820327Y-114523808D01*
X161476799Y-114381162D01*
X161104833Y-114380838D01*
X160782000Y-114514230D01*
X160782000Y-114352466D01*
X160812192Y-114322327D01*
X160954838Y-113978799D01*
X160955162Y-113606833D01*
X160813117Y-113263057D01*
X160550327Y-112999808D01*
X160206799Y-112857162D01*
X159834833Y-112856838D01*
X159491057Y-112998883D01*
X159227808Y-113261673D01*
X159085162Y-113605201D01*
X159084838Y-113977167D01*
X159226883Y-114320943D01*
X159258000Y-114352114D01*
X159258000Y-115771534D01*
X159227808Y-115801673D01*
X159085162Y-116145201D01*
X159084838Y-116517167D01*
X159226883Y-116860943D01*
X159489673Y-117124192D01*
X159833201Y-117266838D01*
X160205167Y-117267162D01*
X160548943Y-117125117D01*
X160812192Y-116862327D01*
X160954838Y-116518799D01*
X160955125Y-116189351D01*
X161103201Y-116250838D01*
X161475167Y-116251162D01*
X161818943Y-116109117D01*
X161850114Y-116078000D01*
X163492370Y-116078000D01*
X164668560Y-117254190D01*
X164668560Y-118824000D01*
X164712838Y-119059317D01*
X164851910Y-119275441D01*
X165064110Y-119420431D01*
X165316000Y-119471440D01*
X166916000Y-119471440D01*
X167151317Y-119427162D01*
X167367441Y-119288090D01*
X167369318Y-119285343D01*
X167446301Y-119362327D01*
X167679690Y-119459000D01*
X168370250Y-119459000D01*
X168529000Y-119300250D01*
X168529000Y-117951000D01*
X168509000Y-117951000D01*
X168509000Y-117697000D01*
X168529000Y-117697000D01*
X168529000Y-117677000D01*
X168783000Y-117677000D01*
X168783000Y-117697000D01*
X168803000Y-117697000D01*
X168803000Y-117951000D01*
X168783000Y-117951000D01*
X168783000Y-119300250D01*
X168941750Y-119459000D01*
X169632310Y-119459000D01*
X169865699Y-119362327D01*
X170044327Y-119183698D01*
X170057073Y-119152925D01*
X170135910Y-119275441D01*
X170348110Y-119420431D01*
X170600000Y-119471440D01*
X170688000Y-119471440D01*
X170688000Y-119888000D01*
X170746004Y-120179605D01*
X170865469Y-120358396D01*
X170911185Y-120426815D01*
X171784875Y-121300506D01*
X171784838Y-121343167D01*
X171926883Y-121686943D01*
X172189673Y-121950192D01*
X172533201Y-122092838D01*
X172905167Y-122093162D01*
X173248943Y-121951117D01*
X173512192Y-121688327D01*
X173654838Y-121344799D01*
X173655162Y-120972833D01*
X173513117Y-120629057D01*
X173250327Y-120365808D01*
X172906799Y-120223162D01*
X172862754Y-120223124D01*
X172212000Y-119572370D01*
X172212000Y-119471440D01*
X172300000Y-119471440D01*
X172535317Y-119427162D01*
X172751441Y-119288090D01*
X172874383Y-119108158D01*
X172905673Y-119183698D01*
X173084301Y-119362327D01*
X173317690Y-119459000D01*
X173958250Y-119459000D01*
X174117000Y-119300250D01*
X174117000Y-117951000D01*
X174097000Y-117951000D01*
X174097000Y-117697000D01*
X174117000Y-117697000D01*
X174117000Y-116347750D01*
X173958250Y-116189000D01*
X173317690Y-116189000D01*
X173084301Y-116285673D01*
X172905673Y-116464302D01*
X172873346Y-116542347D01*
X172764090Y-116372559D01*
X172551890Y-116227569D01*
X172300000Y-116176560D01*
X172085952Y-116176560D01*
X171988815Y-116031184D01*
X171429070Y-115471440D01*
X172300000Y-115471440D01*
X172535317Y-115427162D01*
X172751441Y-115288090D01*
X172873293Y-115109754D01*
X172979910Y-115275441D01*
X173192110Y-115420431D01*
X173444000Y-115471440D01*
X175044000Y-115471440D01*
X175279317Y-115427162D01*
X175387000Y-115357870D01*
X175387000Y-116278756D01*
X175170310Y-116189000D01*
X174529750Y-116189000D01*
X174371000Y-116347750D01*
X174371000Y-117697000D01*
X174391000Y-117697000D01*
X174391000Y-117951000D01*
X174371000Y-117951000D01*
X174371000Y-119300250D01*
X174529750Y-119459000D01*
X175170310Y-119459000D01*
X175387000Y-119369244D01*
X175387000Y-122428000D01*
X175395685Y-122474159D01*
X175422965Y-122516553D01*
X175464590Y-122544994D01*
X175514000Y-122555000D01*
X178290000Y-122555000D01*
X178290000Y-125930069D01*
X178178953Y-126488340D01*
X177902333Y-126902331D01*
X177488338Y-127178954D01*
X176930069Y-127290000D01*
X168427630Y-127290000D01*
X168545951Y-127171679D01*
X168910000Y-127244093D01*
X169478285Y-127131054D01*
X169960054Y-126809147D01*
X170180000Y-126479974D01*
X170399946Y-126809147D01*
X170881715Y-127131054D01*
X171450000Y-127244093D01*
X172018285Y-127131054D01*
X172500054Y-126809147D01*
X172720000Y-126479974D01*
X172939946Y-126809147D01*
X173421715Y-127131054D01*
X173990000Y-127244093D01*
X174558285Y-127131054D01*
X175040054Y-126809147D01*
X175267702Y-126468447D01*
X175334817Y-126611358D01*
X175763076Y-127001645D01*
X176173110Y-127171476D01*
X176403000Y-127050155D01*
X176403000Y-125857000D01*
X176657000Y-125857000D01*
X176657000Y-127050155D01*
X176886890Y-127171476D01*
X177296924Y-127001645D01*
X177725183Y-126611358D01*
X177971486Y-126086892D01*
X177850819Y-125857000D01*
X176657000Y-125857000D01*
X176403000Y-125857000D01*
X176383000Y-125857000D01*
X176383000Y-125603000D01*
X176403000Y-125603000D01*
X176403000Y-124409845D01*
X176657000Y-124409845D01*
X176657000Y-125603000D01*
X177850819Y-125603000D01*
X177971486Y-125373108D01*
X177725183Y-124848642D01*
X177296924Y-124458355D01*
X176886890Y-124288524D01*
X176657000Y-124409845D01*
X176403000Y-124409845D01*
X176173110Y-124288524D01*
X175763076Y-124458355D01*
X175334817Y-124848642D01*
X175267702Y-124991553D01*
X175040054Y-124650853D01*
X174558285Y-124328946D01*
X173990000Y-124215907D01*
X173421715Y-124328946D01*
X172939946Y-124650853D01*
X172720000Y-124980026D01*
X172500054Y-124650853D01*
X172018285Y-124328946D01*
X171450000Y-124215907D01*
X170881715Y-124328946D01*
X170399946Y-124650853D01*
X170180000Y-124980026D01*
X169960054Y-124650853D01*
X169478285Y-124328946D01*
X168910000Y-124215907D01*
X168341715Y-124328946D01*
X167859946Y-124650853D01*
X167640000Y-124980026D01*
X167420054Y-124650853D01*
X166938285Y-124328946D01*
X166370000Y-124215907D01*
X165801715Y-124328946D01*
X165319946Y-124650853D01*
X165292150Y-124692452D01*
X165283162Y-124644683D01*
X165144090Y-124428559D01*
X164931890Y-124283569D01*
X164680000Y-124232560D01*
X162980000Y-124232560D01*
X162744683Y-124276838D01*
X162528559Y-124415910D01*
X162383569Y-124628110D01*
X162332560Y-124880000D01*
X162332560Y-125540732D01*
X162237013Y-125445185D01*
X162183840Y-125409656D01*
X161989803Y-125280004D01*
X161698198Y-125222000D01*
X159857440Y-125222000D01*
X159857440Y-125134000D01*
X159813162Y-124898683D01*
X159674090Y-124682559D01*
X159461890Y-124537569D01*
X159210000Y-124486560D01*
X157871897Y-124486560D01*
X158157408Y-124347013D01*
X158433808Y-124022544D01*
X158565000Y-123617000D01*
X158565000Y-123317000D01*
X157607000Y-123317000D01*
X157607000Y-123337000D01*
X157353000Y-123337000D01*
X157353000Y-123317000D01*
X157333000Y-123317000D01*
X157333000Y-123063000D01*
X157353000Y-123063000D01*
X157353000Y-121972498D01*
X157607000Y-121972498D01*
X157607000Y-123063000D01*
X158565000Y-123063000D01*
X158565000Y-122763000D01*
X158433808Y-122357456D01*
X158157408Y-122032987D01*
X157774001Y-121845592D01*
X157607000Y-121972498D01*
X157353000Y-121972498D01*
X157185999Y-121845592D01*
X156849274Y-122010170D01*
X156625212Y-121860457D01*
X156210000Y-121777866D01*
X155794788Y-121860457D01*
X155729981Y-121903759D01*
X155641890Y-121843569D01*
X155390000Y-121792560D01*
X154490000Y-121792560D01*
X154254683Y-121836838D01*
X154038559Y-121975910D01*
X153893569Y-122188110D01*
X153844990Y-122428000D01*
X153789630Y-122428000D01*
X152853816Y-121492186D01*
X152819393Y-121469185D01*
X152606606Y-121327005D01*
X152315001Y-121269001D01*
X150507321Y-121269001D01*
X150628716Y-120976648D01*
X150629284Y-120326205D01*
X150380894Y-119725057D01*
X149921363Y-119264722D01*
X149320648Y-119015284D01*
X148670205Y-119014716D01*
X148069057Y-119263106D01*
X147608722Y-119722637D01*
X147359284Y-120323352D01*
X147358716Y-120973795D01*
X147480693Y-121269001D01*
X144007321Y-121269001D01*
X144128716Y-120976648D01*
X144129284Y-120326205D01*
X143880894Y-119725057D01*
X143421363Y-119264722D01*
X142820648Y-119015284D01*
X142170205Y-119014716D01*
X141569057Y-119263106D01*
X141108722Y-119722637D01*
X140917839Y-120182337D01*
X140728894Y-119725057D01*
X140269363Y-119264722D01*
X139668648Y-119015284D01*
X139018205Y-119014716D01*
X138417057Y-119263106D01*
X137956722Y-119722637D01*
X137707284Y-120323352D01*
X137706716Y-120973795D01*
X137955106Y-121574943D01*
X138414637Y-122035278D01*
X139015352Y-122284716D01*
X139665795Y-122285284D01*
X139831277Y-122216908D01*
X140184185Y-122569816D01*
X140396973Y-122711996D01*
X140431396Y-122734997D01*
X140723001Y-122793001D01*
X151999371Y-122793001D01*
X152935185Y-123728815D01*
X153182395Y-123893996D01*
X153474000Y-123952000D01*
X153844818Y-123952000D01*
X153886838Y-124175317D01*
X154025910Y-124391441D01*
X154165121Y-124486560D01*
X153210000Y-124486560D01*
X152974683Y-124530838D01*
X152758559Y-124669910D01*
X152613569Y-124882110D01*
X152562560Y-125134000D01*
X152562560Y-126834000D01*
X152606838Y-127069317D01*
X152745910Y-127285441D01*
X152752582Y-127290000D01*
X121069931Y-127290000D01*
X120511660Y-127178953D01*
X120097669Y-126902333D01*
X119821046Y-126488338D01*
X119784088Y-126302532D01*
X131869073Y-126302532D01*
X131967736Y-126569387D01*
X132577461Y-126795908D01*
X133227460Y-126771856D01*
X133716264Y-126569387D01*
X133814927Y-126302532D01*
X138369073Y-126302532D01*
X138467736Y-126569387D01*
X139077461Y-126795908D01*
X139727460Y-126771856D01*
X140216264Y-126569387D01*
X140314927Y-126302532D01*
X141521073Y-126302532D01*
X141619736Y-126569387D01*
X142229461Y-126795908D01*
X142879460Y-126771856D01*
X143368264Y-126569387D01*
X143466927Y-126302532D01*
X148021073Y-126302532D01*
X148119736Y-126569387D01*
X148729461Y-126795908D01*
X149379460Y-126771856D01*
X149868264Y-126569387D01*
X149966927Y-126302532D01*
X148994000Y-125329605D01*
X148021073Y-126302532D01*
X143466927Y-126302532D01*
X142494000Y-125329605D01*
X141521073Y-126302532D01*
X140314927Y-126302532D01*
X139342000Y-125329605D01*
X138369073Y-126302532D01*
X133814927Y-126302532D01*
X132842000Y-125329605D01*
X131869073Y-126302532D01*
X119784088Y-126302532D01*
X119710000Y-125930069D01*
X119710000Y-120054000D01*
X121828560Y-120054000D01*
X121828560Y-121754000D01*
X121872838Y-121989317D01*
X122011910Y-122205441D01*
X122224110Y-122350431D01*
X122476000Y-122401440D01*
X122840048Y-122401440D01*
X122870928Y-122447654D01*
X122937185Y-122546815D01*
X124550204Y-124159834D01*
X124682883Y-124480943D01*
X124945673Y-124744192D01*
X125289201Y-124886838D01*
X125661167Y-124887162D01*
X125665283Y-124885461D01*
X131196092Y-124885461D01*
X131220144Y-125535460D01*
X131422613Y-126024264D01*
X131689468Y-126122927D01*
X132662395Y-125150000D01*
X133021605Y-125150000D01*
X133994532Y-126122927D01*
X134261387Y-126024264D01*
X134487908Y-125414539D01*
X134468331Y-124885461D01*
X137696092Y-124885461D01*
X137720144Y-125535460D01*
X137922613Y-126024264D01*
X138189468Y-126122927D01*
X139162395Y-125150000D01*
X139521605Y-125150000D01*
X140494532Y-126122927D01*
X140761387Y-126024264D01*
X140909489Y-125625619D01*
X141074613Y-126024264D01*
X141341468Y-126122927D01*
X142314395Y-125150000D01*
X142673605Y-125150000D01*
X143646532Y-126122927D01*
X143913387Y-126024264D01*
X144139908Y-125414539D01*
X144120331Y-124885461D01*
X147348092Y-124885461D01*
X147372144Y-125535460D01*
X147574613Y-126024264D01*
X147841468Y-126122927D01*
X148814395Y-125150000D01*
X149173605Y-125150000D01*
X150146532Y-126122927D01*
X150413387Y-126024264D01*
X150639908Y-125414539D01*
X150615856Y-124764540D01*
X150413387Y-124275736D01*
X150146532Y-124177073D01*
X149173605Y-125150000D01*
X148814395Y-125150000D01*
X147841468Y-124177073D01*
X147574613Y-124275736D01*
X147348092Y-124885461D01*
X144120331Y-124885461D01*
X144115856Y-124764540D01*
X143913387Y-124275736D01*
X143646532Y-124177073D01*
X142673605Y-125150000D01*
X142314395Y-125150000D01*
X141341468Y-124177073D01*
X141074613Y-124275736D01*
X140926511Y-124674381D01*
X140761387Y-124275736D01*
X140494532Y-124177073D01*
X139521605Y-125150000D01*
X139162395Y-125150000D01*
X138189468Y-124177073D01*
X137922613Y-124275736D01*
X137696092Y-124885461D01*
X134468331Y-124885461D01*
X134463856Y-124764540D01*
X134261387Y-124275736D01*
X133994532Y-124177073D01*
X133021605Y-125150000D01*
X132662395Y-125150000D01*
X131689468Y-124177073D01*
X131422613Y-124275736D01*
X131196092Y-124885461D01*
X125665283Y-124885461D01*
X126004943Y-124745117D01*
X126268192Y-124482327D01*
X126410838Y-124138799D01*
X126410961Y-123997468D01*
X131869073Y-123997468D01*
X132842000Y-124970395D01*
X133814927Y-123997468D01*
X138369073Y-123997468D01*
X139342000Y-124970395D01*
X140314927Y-123997468D01*
X141521073Y-123997468D01*
X142494000Y-124970395D01*
X143466927Y-123997468D01*
X148021073Y-123997468D01*
X148994000Y-124970395D01*
X149966927Y-123997468D01*
X149868264Y-123730613D01*
X149258539Y-123504092D01*
X148608540Y-123528144D01*
X148119736Y-123730613D01*
X148021073Y-123997468D01*
X143466927Y-123997468D01*
X143368264Y-123730613D01*
X142758539Y-123504092D01*
X142108540Y-123528144D01*
X141619736Y-123730613D01*
X141521073Y-123997468D01*
X140314927Y-123997468D01*
X140216264Y-123730613D01*
X139606539Y-123504092D01*
X138956540Y-123528144D01*
X138467736Y-123730613D01*
X138369073Y-123997468D01*
X133814927Y-123997468D01*
X133716264Y-123730613D01*
X133106539Y-123504092D01*
X132456540Y-123528144D01*
X131967736Y-123730613D01*
X131869073Y-123997468D01*
X126410961Y-123997468D01*
X126411162Y-123766833D01*
X126269117Y-123423057D01*
X126006327Y-123159808D01*
X125662799Y-123017162D01*
X125562705Y-123017075D01*
X124827823Y-122282193D01*
X124927441Y-122218090D01*
X125072431Y-122005890D01*
X125123440Y-121754000D01*
X125123440Y-120054000D01*
X125828560Y-120054000D01*
X125828560Y-121754000D01*
X125872838Y-121989317D01*
X126011910Y-122205441D01*
X126224110Y-122350431D01*
X126476000Y-122401440D01*
X128476000Y-122401440D01*
X128711317Y-122357162D01*
X128927441Y-122218090D01*
X129072431Y-122005890D01*
X129123440Y-121754000D01*
X129123440Y-121382190D01*
X129531835Y-120973795D01*
X131206716Y-120973795D01*
X131455106Y-121574943D01*
X131914637Y-122035278D01*
X132515352Y-122284716D01*
X133165795Y-122285284D01*
X133766943Y-122036894D01*
X134227278Y-121577363D01*
X134476716Y-120976648D01*
X134477284Y-120326205D01*
X134228894Y-119725057D01*
X133769363Y-119264722D01*
X133168648Y-119015284D01*
X132518205Y-119014716D01*
X131917057Y-119263106D01*
X131456722Y-119722637D01*
X131207284Y-120323352D01*
X131206716Y-120973795D01*
X129531835Y-120973795D01*
X130190506Y-120315125D01*
X130233167Y-120315162D01*
X130576943Y-120173117D01*
X130840192Y-119910327D01*
X130982838Y-119566799D01*
X130983162Y-119194833D01*
X130841117Y-118851057D01*
X130578327Y-118587808D01*
X130234799Y-118445162D01*
X129862833Y-118444838D01*
X129519057Y-118586883D01*
X129255808Y-118849673D01*
X129113162Y-119193201D01*
X129113124Y-119237246D01*
X128825860Y-119524509D01*
X128727890Y-119457569D01*
X128476000Y-119406560D01*
X126476000Y-119406560D01*
X126240683Y-119450838D01*
X126024559Y-119589910D01*
X125879569Y-119802110D01*
X125828560Y-120054000D01*
X125123440Y-120054000D01*
X125079162Y-119818683D01*
X124940090Y-119602559D01*
X124727890Y-119457569D01*
X124476000Y-119406560D01*
X122476000Y-119406560D01*
X122240683Y-119450838D01*
X122024559Y-119589910D01*
X121879569Y-119802110D01*
X121828560Y-120054000D01*
X119710000Y-120054000D01*
X119710000Y-115736000D01*
X131734560Y-115736000D01*
X131734560Y-117436000D01*
X131778838Y-117671317D01*
X131917910Y-117887441D01*
X132130110Y-118032431D01*
X132382000Y-118083440D01*
X134382000Y-118083440D01*
X134617317Y-118039162D01*
X134833441Y-117900090D01*
X134978431Y-117687890D01*
X135029440Y-117436000D01*
X135029440Y-115736000D01*
X135734560Y-115736000D01*
X135734560Y-117436000D01*
X135778838Y-117671317D01*
X135917910Y-117887441D01*
X136130110Y-118032431D01*
X136382000Y-118083440D01*
X138382000Y-118083440D01*
X138617317Y-118039162D01*
X138833441Y-117900090D01*
X138978431Y-117687890D01*
X139029440Y-117436000D01*
X139029440Y-116871750D01*
X139113000Y-116871750D01*
X139113000Y-117562310D01*
X139209673Y-117795699D01*
X139388302Y-117974327D01*
X139621691Y-118071000D01*
X140462250Y-118071000D01*
X140621000Y-117912250D01*
X140621000Y-116713000D01*
X140875000Y-116713000D01*
X140875000Y-117912250D01*
X141033750Y-118071000D01*
X141874309Y-118071000D01*
X142107698Y-117974327D01*
X142286327Y-117795699D01*
X142383000Y-117562310D01*
X142383000Y-116871750D01*
X142224250Y-116713000D01*
X140875000Y-116713000D01*
X140621000Y-116713000D01*
X139271750Y-116713000D01*
X139113000Y-116871750D01*
X139029440Y-116871750D01*
X139029440Y-116556190D01*
X139199190Y-116386440D01*
X139271750Y-116459000D01*
X140621000Y-116459000D01*
X140621000Y-115259750D01*
X140875000Y-115259750D01*
X140875000Y-116459000D01*
X142224250Y-116459000D01*
X142383000Y-116300250D01*
X142383000Y-115736000D01*
X143100560Y-115736000D01*
X143100560Y-117436000D01*
X143144838Y-117671317D01*
X143283910Y-117887441D01*
X143496110Y-118032431D01*
X143748000Y-118083440D01*
X145748000Y-118083440D01*
X145983317Y-118039162D01*
X146199441Y-117900090D01*
X146344431Y-117687890D01*
X146395440Y-117436000D01*
X146395440Y-115736000D01*
X146351162Y-115500683D01*
X146212090Y-115284559D01*
X146076145Y-115191672D01*
X146131441Y-115156090D01*
X146276431Y-114943890D01*
X146327440Y-114692000D01*
X146327440Y-114148890D01*
X148164524Y-114148890D01*
X148334355Y-114558924D01*
X148724642Y-114987183D01*
X149249108Y-115233486D01*
X149479000Y-115112819D01*
X149479000Y-113919000D01*
X149733000Y-113919000D01*
X149733000Y-115112819D01*
X149962892Y-115233486D01*
X150487358Y-114987183D01*
X150877645Y-114558924D01*
X151047476Y-114148890D01*
X150926155Y-113919000D01*
X149733000Y-113919000D01*
X149479000Y-113919000D01*
X148285845Y-113919000D01*
X148164524Y-114148890D01*
X146327440Y-114148890D01*
X146327440Y-112892000D01*
X146283162Y-112656683D01*
X146144090Y-112440559D01*
X145931890Y-112295569D01*
X145911466Y-112291433D01*
X146080551Y-112122643D01*
X146314733Y-111558670D01*
X146315265Y-110948009D01*
X146089659Y-110402000D01*
X148108560Y-110402000D01*
X148108560Y-112102000D01*
X148152838Y-112337317D01*
X148291910Y-112553441D01*
X148504110Y-112698431D01*
X148612107Y-112720301D01*
X148334355Y-113025076D01*
X148164524Y-113435110D01*
X148285845Y-113665000D01*
X149479000Y-113665000D01*
X149479000Y-113645000D01*
X149733000Y-113645000D01*
X149733000Y-113665000D01*
X150926155Y-113665000D01*
X151047476Y-113435110D01*
X150877645Y-113025076D01*
X150601499Y-112722063D01*
X150691317Y-112705162D01*
X150907441Y-112566090D01*
X151052431Y-112353890D01*
X151103440Y-112102000D01*
X151103440Y-110402000D01*
X151059162Y-110166683D01*
X150920090Y-109950559D01*
X150707890Y-109805569D01*
X150456000Y-109754560D01*
X148756000Y-109754560D01*
X148520683Y-109798838D01*
X148304559Y-109937910D01*
X148159569Y-110150110D01*
X148108560Y-110402000D01*
X146089659Y-110402000D01*
X146082068Y-110383629D01*
X145650643Y-109951449D01*
X145086670Y-109717267D01*
X144476009Y-109716735D01*
X143911629Y-109949932D01*
X143479449Y-110381357D01*
X143245267Y-110945330D01*
X143244735Y-111555991D01*
X143477932Y-112120371D01*
X143645880Y-112288613D01*
X143644683Y-112288838D01*
X143428559Y-112427910D01*
X143283569Y-112640110D01*
X143232560Y-112892000D01*
X143232560Y-114692000D01*
X143276838Y-114927317D01*
X143415910Y-115143441D01*
X143454854Y-115170050D01*
X143296559Y-115271910D01*
X143151569Y-115484110D01*
X143100560Y-115736000D01*
X142383000Y-115736000D01*
X142383000Y-115609690D01*
X142286327Y-115376301D01*
X142107698Y-115197673D01*
X141874309Y-115101000D01*
X141033750Y-115101000D01*
X140875000Y-115259750D01*
X140621000Y-115259750D01*
X140536987Y-115175737D01*
X140736943Y-115093117D01*
X141000192Y-114830327D01*
X141142838Y-114486799D01*
X141143162Y-114114833D01*
X141001117Y-113771057D01*
X140738327Y-113507808D01*
X140394799Y-113365162D01*
X140022833Y-113364838D01*
X139679057Y-113506883D01*
X139415808Y-113769673D01*
X139273162Y-114113201D01*
X139273124Y-114157246D01*
X138341810Y-115088560D01*
X136382000Y-115088560D01*
X136146683Y-115132838D01*
X135930559Y-115271910D01*
X135785569Y-115484110D01*
X135734560Y-115736000D01*
X135029440Y-115736000D01*
X134985162Y-115500683D01*
X134846090Y-115284559D01*
X134633890Y-115139569D01*
X134382000Y-115088560D01*
X134112000Y-115088560D01*
X134112000Y-113861440D01*
X134150000Y-113861440D01*
X134385317Y-113817162D01*
X134601441Y-113678090D01*
X134746431Y-113465890D01*
X134781906Y-113290709D01*
X134965104Y-113518500D01*
X135458181Y-113788367D01*
X135540961Y-113805904D01*
X135763000Y-113683915D01*
X135763000Y-112141000D01*
X135743000Y-112141000D01*
X135743000Y-111887000D01*
X135763000Y-111887000D01*
X135763000Y-110344085D01*
X136017000Y-110344085D01*
X136017000Y-111887000D01*
X136037000Y-111887000D01*
X136037000Y-112141000D01*
X136017000Y-112141000D01*
X136017000Y-113683915D01*
X136239039Y-113805904D01*
X136321819Y-113788367D01*
X136814896Y-113518500D01*
X137162493Y-113086293D01*
X137415302Y-113464648D01*
X137880849Y-113775717D01*
X138430000Y-113884950D01*
X138979151Y-113775717D01*
X139444698Y-113464648D01*
X139755767Y-112999101D01*
X139865000Y-112449950D01*
X139865000Y-111578050D01*
X139755767Y-111028899D01*
X139444698Y-110563352D01*
X138979151Y-110252283D01*
X138430000Y-110143050D01*
X137880849Y-110252283D01*
X137415302Y-110563352D01*
X137162493Y-110941707D01*
X136814896Y-110509500D01*
X136321819Y-110239633D01*
X136239039Y-110222096D01*
X136017000Y-110344085D01*
X135763000Y-110344085D01*
X135540961Y-110222096D01*
X135458181Y-110239633D01*
X134965104Y-110509500D01*
X134782798Y-110736182D01*
X134753162Y-110578683D01*
X134614090Y-110362559D01*
X134401890Y-110217569D01*
X134150000Y-110166560D01*
X132550000Y-110166560D01*
X132314683Y-110210838D01*
X132098559Y-110349910D01*
X131953569Y-110562110D01*
X131902560Y-110814000D01*
X131902560Y-113214000D01*
X131946838Y-113449317D01*
X132085910Y-113665441D01*
X132298110Y-113810431D01*
X132550000Y-113861440D01*
X132588000Y-113861440D01*
X132588000Y-115088560D01*
X132382000Y-115088560D01*
X132146683Y-115132838D01*
X131930559Y-115271910D01*
X131785569Y-115484110D01*
X131734560Y-115736000D01*
X119710000Y-115736000D01*
X119710000Y-111129000D01*
X121053560Y-111129000D01*
X121053560Y-113479000D01*
X121097838Y-113714317D01*
X121236910Y-113930441D01*
X121449110Y-114075431D01*
X121701000Y-114126440D01*
X124051000Y-114126440D01*
X124286317Y-114082162D01*
X124502441Y-113943090D01*
X124647431Y-113730890D01*
X124698440Y-113479000D01*
X124698440Y-112662452D01*
X126265686Y-112662452D01*
X126540662Y-113327943D01*
X127049379Y-113837549D01*
X127714389Y-114113685D01*
X128434452Y-114114314D01*
X129099943Y-113839338D01*
X129609549Y-113330621D01*
X129885685Y-112665611D01*
X129886314Y-111945548D01*
X129611338Y-111280057D01*
X129102621Y-110770451D01*
X128437611Y-110494315D01*
X127717548Y-110493686D01*
X127052057Y-110768662D01*
X126542451Y-111277379D01*
X126266315Y-111942389D01*
X126265686Y-112662452D01*
X124698440Y-112662452D01*
X124698440Y-111129000D01*
X124654162Y-110893683D01*
X124515090Y-110677559D01*
X124302890Y-110532569D01*
X124051000Y-110481560D01*
X121701000Y-110481560D01*
X121465683Y-110525838D01*
X121249559Y-110664910D01*
X121104569Y-110877110D01*
X121053560Y-111129000D01*
X119710000Y-111129000D01*
X119710000Y-104462452D01*
X121065686Y-104462452D01*
X121340662Y-105127943D01*
X121849379Y-105637549D01*
X122514389Y-105913685D01*
X123234452Y-105914314D01*
X123899943Y-105639338D01*
X124409549Y-105130621D01*
X124685685Y-104465611D01*
X124685687Y-104462452D01*
X126265686Y-104462452D01*
X126540662Y-105127943D01*
X127049379Y-105637549D01*
X127714389Y-105913685D01*
X128434452Y-105914314D01*
X129099943Y-105639338D01*
X129609549Y-105130621D01*
X129885685Y-104465611D01*
X129886128Y-103958050D01*
X131915000Y-103958050D01*
X131915000Y-104829950D01*
X132024233Y-105379101D01*
X132335302Y-105844648D01*
X132800849Y-106155717D01*
X133350000Y-106264950D01*
X133899151Y-106155717D01*
X134364698Y-105844648D01*
X134620000Y-105462562D01*
X134875302Y-105844648D01*
X135340849Y-106155717D01*
X135890000Y-106264950D01*
X136439151Y-106155717D01*
X136904698Y-105844648D01*
X137160000Y-105462562D01*
X137415302Y-105844648D01*
X137880849Y-106155717D01*
X138430000Y-106264950D01*
X138979151Y-106155717D01*
X139444698Y-105844648D01*
X139755767Y-105379101D01*
X139822026Y-105045991D01*
X156024735Y-105045991D01*
X156257932Y-105610371D01*
X156689357Y-106042551D01*
X157253330Y-106276733D01*
X157863991Y-106277265D01*
X158428371Y-106044068D01*
X158860551Y-105612643D01*
X158938051Y-105426000D01*
X159792560Y-105426000D01*
X159792560Y-107426000D01*
X159836838Y-107661317D01*
X159975910Y-107877441D01*
X160188110Y-108022431D01*
X160440000Y-108073440D01*
X161709809Y-108073440D01*
X161792947Y-108156578D01*
X161767808Y-108181673D01*
X161625162Y-108525201D01*
X161624838Y-108897167D01*
X161766883Y-109240943D01*
X162029673Y-109504192D01*
X162373201Y-109646838D01*
X162745167Y-109647162D01*
X163088943Y-109505117D01*
X163352192Y-109242327D01*
X163494838Y-108898799D01*
X163495039Y-108667767D01*
X163545185Y-108742815D01*
X163656875Y-108854505D01*
X163656838Y-108897167D01*
X163798883Y-109240943D01*
X164061673Y-109504192D01*
X164405201Y-109646838D01*
X164777167Y-109647162D01*
X165120943Y-109505117D01*
X165384192Y-109242327D01*
X165526838Y-108898799D01*
X165527162Y-108526833D01*
X165385117Y-108183057D01*
X165207173Y-108004802D01*
X165385441Y-107890090D01*
X165530431Y-107677890D01*
X165581440Y-107426000D01*
X165581440Y-105822159D01*
X166659446Y-105822159D01*
X166745852Y-106078643D01*
X167319336Y-106288458D01*
X167929460Y-106262839D01*
X168374148Y-106078643D01*
X168460554Y-105822159D01*
X167560000Y-104921605D01*
X166659446Y-105822159D01*
X165581440Y-105822159D01*
X165581440Y-105426000D01*
X165537162Y-105190683D01*
X165398090Y-104974559D01*
X165185890Y-104829569D01*
X164934000Y-104778560D01*
X163234000Y-104778560D01*
X162998683Y-104822838D01*
X162782559Y-104961910D01*
X162686457Y-105102560D01*
X162604090Y-104974559D01*
X162391890Y-104829569D01*
X162140000Y-104778560D01*
X160440000Y-104778560D01*
X160204683Y-104822838D01*
X159988559Y-104961910D01*
X159843569Y-105174110D01*
X159792560Y-105426000D01*
X158938051Y-105426000D01*
X159094733Y-105048670D01*
X159095209Y-104501336D01*
X166013542Y-104501336D01*
X166039161Y-105111460D01*
X166223357Y-105556148D01*
X166479841Y-105642554D01*
X167380395Y-104742000D01*
X167739605Y-104742000D01*
X168640159Y-105642554D01*
X168896643Y-105556148D01*
X169106458Y-104982664D01*
X169080839Y-104372540D01*
X168896643Y-103927852D01*
X168640159Y-103841446D01*
X167739605Y-104742000D01*
X167380395Y-104742000D01*
X166479841Y-103841446D01*
X166223357Y-103927852D01*
X166013542Y-104501336D01*
X159095209Y-104501336D01*
X159095265Y-104438009D01*
X159050342Y-104329288D01*
X159818068Y-103561563D01*
X159836838Y-103661317D01*
X159975910Y-103877441D01*
X160188110Y-104022431D01*
X160440000Y-104073440D01*
X162140000Y-104073440D01*
X162375317Y-104029162D01*
X162591441Y-103890090D01*
X162687543Y-103749440D01*
X162769910Y-103877441D01*
X162982110Y-104022431D01*
X163234000Y-104073440D01*
X164934000Y-104073440D01*
X165169317Y-104029162D01*
X165385441Y-103890090D01*
X165530431Y-103677890D01*
X165533681Y-103661841D01*
X166659446Y-103661841D01*
X167560000Y-104562395D01*
X168460554Y-103661841D01*
X168374148Y-103405357D01*
X167800664Y-103195542D01*
X167190540Y-103221161D01*
X166745852Y-103405357D01*
X166659446Y-103661841D01*
X165533681Y-103661841D01*
X165581440Y-103426000D01*
X165581440Y-101426000D01*
X165537162Y-101190683D01*
X165398090Y-100974559D01*
X165185890Y-100829569D01*
X164934000Y-100778560D01*
X163234000Y-100778560D01*
X162998683Y-100822838D01*
X162782559Y-100961910D01*
X162686457Y-101102560D01*
X162604090Y-100974559D01*
X162391890Y-100829569D01*
X162140000Y-100778560D01*
X160440000Y-100778560D01*
X160204683Y-100822838D01*
X159988559Y-100961910D01*
X159843569Y-101174110D01*
X159792560Y-101426000D01*
X159792560Y-101680597D01*
X159584395Y-101722004D01*
X159519676Y-101765248D01*
X159337185Y-101887184D01*
X157972965Y-103251405D01*
X157866670Y-103207267D01*
X157256009Y-103206735D01*
X156691629Y-103439932D01*
X156259449Y-103871357D01*
X156025267Y-104435330D01*
X156024735Y-105045991D01*
X139822026Y-105045991D01*
X139865000Y-104829950D01*
X139865000Y-103958050D01*
X139755767Y-103408899D01*
X139444698Y-102943352D01*
X138979151Y-102632283D01*
X138430000Y-102523050D01*
X137880849Y-102632283D01*
X137415302Y-102943352D01*
X137160000Y-103325438D01*
X136904698Y-102943352D01*
X136439151Y-102632283D01*
X135890000Y-102523050D01*
X135340849Y-102632283D01*
X134875302Y-102943352D01*
X134620000Y-103325438D01*
X134364698Y-102943352D01*
X133899151Y-102632283D01*
X133350000Y-102523050D01*
X132800849Y-102632283D01*
X132335302Y-102943352D01*
X132024233Y-103408899D01*
X131915000Y-103958050D01*
X129886128Y-103958050D01*
X129886314Y-103745548D01*
X129611338Y-103080057D01*
X129102621Y-102570451D01*
X128437611Y-102294315D01*
X127717548Y-102293686D01*
X127052057Y-102568662D01*
X126542451Y-103077379D01*
X126266315Y-103742389D01*
X126265686Y-104462452D01*
X124685687Y-104462452D01*
X124686314Y-103745548D01*
X124411338Y-103080057D01*
X123902621Y-102570451D01*
X123237611Y-102294315D01*
X122517548Y-102293686D01*
X121852057Y-102568662D01*
X121342451Y-103077379D01*
X121066315Y-103742389D01*
X121065686Y-104462452D01*
X119710000Y-104462452D01*
X119710000Y-100614187D01*
X122008752Y-100614187D01*
X122226757Y-101141800D01*
X122630077Y-101545824D01*
X123157309Y-101764750D01*
X123728187Y-101765248D01*
X124255800Y-101547243D01*
X124659824Y-101143923D01*
X124878750Y-100616691D01*
X124878752Y-100614187D01*
X125818752Y-100614187D01*
X126036757Y-101141800D01*
X126440077Y-101545824D01*
X126967309Y-101764750D01*
X127538187Y-101765248D01*
X128065800Y-101547243D01*
X128469824Y-101143923D01*
X128688750Y-100616691D01*
X128688752Y-100614187D01*
X131914752Y-100614187D01*
X132132757Y-101141800D01*
X132536077Y-101545824D01*
X133063309Y-101764750D01*
X133634187Y-101765248D01*
X134161800Y-101547243D01*
X134565824Y-101143923D01*
X134784750Y-100616691D01*
X134785248Y-100045813D01*
X134567243Y-99518200D01*
X134163923Y-99114176D01*
X133636691Y-98895250D01*
X133065813Y-98894752D01*
X132538200Y-99112757D01*
X132134176Y-99516077D01*
X131915250Y-100043309D01*
X131914752Y-100614187D01*
X128688752Y-100614187D01*
X128689248Y-100045813D01*
X128471243Y-99518200D01*
X128067923Y-99114176D01*
X127540691Y-98895250D01*
X126969813Y-98894752D01*
X126442200Y-99112757D01*
X126038176Y-99516077D01*
X125819250Y-100043309D01*
X125818752Y-100614187D01*
X124878752Y-100614187D01*
X124879248Y-100045813D01*
X124661243Y-99518200D01*
X124257923Y-99114176D01*
X123730691Y-98895250D01*
X123159813Y-98894752D01*
X122632200Y-99112757D01*
X122228176Y-99516077D01*
X122009250Y-100043309D01*
X122008752Y-100614187D01*
X119710000Y-100614187D01*
X119710000Y-92681887D01*
X122009000Y-92681887D01*
X122009000Y-92738113D01*
X122118233Y-93287264D01*
X122429302Y-93752811D01*
X122894849Y-94063880D01*
X123444000Y-94173113D01*
X123993151Y-94063880D01*
X124458698Y-93752811D01*
X124769767Y-93287264D01*
X124879000Y-92738113D01*
X124879000Y-92681887D01*
X125819000Y-92681887D01*
X125819000Y-92738113D01*
X125928233Y-93287264D01*
X126239302Y-93752811D01*
X126704849Y-94063880D01*
X127254000Y-94173113D01*
X127803151Y-94063880D01*
X128268698Y-93752811D01*
X128579767Y-93287264D01*
X128689000Y-92738113D01*
X128689000Y-92681887D01*
X131915000Y-92681887D01*
X131915000Y-92738113D01*
X132024233Y-93287264D01*
X132335302Y-93752811D01*
X132800849Y-94063880D01*
X133350000Y-94173113D01*
X133899151Y-94063880D01*
X134364698Y-93752811D01*
X134474821Y-93588000D01*
X136120560Y-93588000D01*
X136120560Y-95388000D01*
X136164838Y-95623317D01*
X136303910Y-95839441D01*
X136516110Y-95984431D01*
X136532344Y-95987719D01*
X136249845Y-96410509D01*
X136133000Y-96997928D01*
X136133000Y-97058072D01*
X136249845Y-97645491D01*
X136582591Y-98143481D01*
X136813845Y-98298000D01*
X136582591Y-98452519D01*
X136249845Y-98950509D01*
X136133000Y-99537928D01*
X136133000Y-99598072D01*
X136249845Y-100185491D01*
X136582591Y-100683481D01*
X137080581Y-101016227D01*
X137668000Y-101133072D01*
X138255419Y-101016227D01*
X138753409Y-100683481D01*
X139086155Y-100185491D01*
X139203000Y-99598072D01*
X139203000Y-99537928D01*
X139086155Y-98950509D01*
X138753409Y-98452519D01*
X138522155Y-98298000D01*
X138753409Y-98143481D01*
X139086155Y-97645491D01*
X139203000Y-97058072D01*
X139203000Y-96997928D01*
X139086155Y-96410509D01*
X138805163Y-95989974D01*
X139019441Y-95852090D01*
X139164431Y-95639890D01*
X139215440Y-95388000D01*
X139215440Y-93588000D01*
X139171162Y-93352683D01*
X139032090Y-93136559D01*
X138819890Y-92991569D01*
X138568000Y-92940560D01*
X136768000Y-92940560D01*
X136532683Y-92984838D01*
X136316559Y-93123910D01*
X136171569Y-93336110D01*
X136120560Y-93588000D01*
X134474821Y-93588000D01*
X134675767Y-93287264D01*
X134785000Y-92738113D01*
X134785000Y-92681887D01*
X134675767Y-92132736D01*
X134364698Y-91667189D01*
X133899151Y-91356120D01*
X133350000Y-91246887D01*
X132800849Y-91356120D01*
X132335302Y-91667189D01*
X132024233Y-92132736D01*
X131915000Y-92681887D01*
X128689000Y-92681887D01*
X128579767Y-92132736D01*
X128268698Y-91667189D01*
X127803151Y-91356120D01*
X127254000Y-91246887D01*
X126704849Y-91356120D01*
X126239302Y-91667189D01*
X125928233Y-92132736D01*
X125819000Y-92681887D01*
X124879000Y-92681887D01*
X124769767Y-92132736D01*
X124458698Y-91667189D01*
X123993151Y-91356120D01*
X123444000Y-91246887D01*
X122894849Y-91356120D01*
X122429302Y-91667189D01*
X122118233Y-92132736D01*
X122009000Y-92681887D01*
X119710000Y-92681887D01*
X119710000Y-86215403D01*
X123760682Y-86215403D01*
X124039455Y-86890086D01*
X124555199Y-87406730D01*
X125229395Y-87686681D01*
X125959403Y-87687318D01*
X126634086Y-87408545D01*
X127150730Y-86892801D01*
X127421731Y-86240158D01*
X131135660Y-86240158D01*
X131433424Y-86960801D01*
X131984299Y-87512639D01*
X132704421Y-87811659D01*
X133484158Y-87812340D01*
X134204801Y-87514576D01*
X134756639Y-86963701D01*
X135055659Y-86243579D01*
X135055683Y-86215403D01*
X138760682Y-86215403D01*
X139039455Y-86890086D01*
X139555199Y-87406730D01*
X140229395Y-87686681D01*
X140959403Y-87687318D01*
X141634086Y-87408545D01*
X142150730Y-86892801D01*
X142430681Y-86218605D01*
X142431318Y-85488597D01*
X142152545Y-84813914D01*
X141636801Y-84297270D01*
X140962605Y-84017319D01*
X140232597Y-84016682D01*
X139557914Y-84295455D01*
X139041270Y-84811199D01*
X138761319Y-85485395D01*
X138760682Y-86215403D01*
X135055683Y-86215403D01*
X135056340Y-85463842D01*
X134758576Y-84743199D01*
X134207701Y-84191361D01*
X133487579Y-83892341D01*
X132707842Y-83891660D01*
X131987199Y-84189424D01*
X131435361Y-84740299D01*
X131136341Y-85460421D01*
X131135660Y-86240158D01*
X127421731Y-86240158D01*
X127430681Y-86218605D01*
X127431318Y-85488597D01*
X127152545Y-84813914D01*
X126636801Y-84297270D01*
X125962605Y-84017319D01*
X125232597Y-84016682D01*
X124557914Y-84295455D01*
X124041270Y-84811199D01*
X123761319Y-85485395D01*
X123760682Y-86215403D01*
X119710000Y-86215403D01*
X119710000Y-83842000D01*
X151012560Y-83842000D01*
X151012560Y-85642000D01*
X151056838Y-85877317D01*
X151195910Y-86093441D01*
X151408110Y-86238431D01*
X151660000Y-86289440D01*
X153460000Y-86289440D01*
X153695317Y-86245162D01*
X153911441Y-86106090D01*
X154056431Y-85893890D01*
X154107440Y-85642000D01*
X154107440Y-83842000D01*
X171012560Y-83842000D01*
X171012560Y-85642000D01*
X171056838Y-85877317D01*
X171195910Y-86093441D01*
X171408110Y-86238431D01*
X171660000Y-86289440D01*
X173460000Y-86289440D01*
X173695317Y-86245162D01*
X173911441Y-86106090D01*
X174056431Y-85893890D01*
X174107440Y-85642000D01*
X174107440Y-83842000D01*
X174063162Y-83606683D01*
X173924090Y-83390559D01*
X173711890Y-83245569D01*
X173460000Y-83194560D01*
X171660000Y-83194560D01*
X171424683Y-83238838D01*
X171208559Y-83377910D01*
X171063569Y-83590110D01*
X171012560Y-83842000D01*
X154107440Y-83842000D01*
X154063162Y-83606683D01*
X153924090Y-83390559D01*
X153711890Y-83245569D01*
X153460000Y-83194560D01*
X151660000Y-83194560D01*
X151424683Y-83238838D01*
X151208559Y-83377910D01*
X151063569Y-83590110D01*
X151012560Y-83842000D01*
X119710000Y-83842000D01*
X119710000Y-75991011D01*
X122330648Y-75991011D01*
X122639805Y-76739229D01*
X123211760Y-77312183D01*
X123959438Y-77622646D01*
X124769011Y-77623352D01*
X125517229Y-77314195D01*
X126090183Y-76742240D01*
X126400646Y-75994562D01*
X126400649Y-75991011D01*
X132330648Y-75991011D01*
X132639805Y-76739229D01*
X133211760Y-77312183D01*
X133959438Y-77622646D01*
X134769011Y-77623352D01*
X135517229Y-77314195D01*
X136090183Y-76742240D01*
X136400646Y-75994562D01*
X136401352Y-75184989D01*
X136092195Y-74436771D01*
X135843858Y-74188000D01*
X142318560Y-74188000D01*
X142318560Y-76988000D01*
X142362838Y-77223317D01*
X142501910Y-77439441D01*
X142714110Y-77584431D01*
X142966000Y-77635440D01*
X145766000Y-77635440D01*
X146001317Y-77591162D01*
X146217441Y-77452090D01*
X146362431Y-77239890D01*
X146413440Y-76988000D01*
X146413440Y-75991011D01*
X150778648Y-75991011D01*
X151087805Y-76739229D01*
X151659760Y-77312183D01*
X152407438Y-77622646D01*
X153217011Y-77623352D01*
X153965229Y-77314195D01*
X154538183Y-76742240D01*
X154848646Y-75994562D01*
X154848649Y-75991011D01*
X160778648Y-75991011D01*
X161087805Y-76739229D01*
X161659760Y-77312183D01*
X162407438Y-77622646D01*
X163217011Y-77623352D01*
X163965229Y-77314195D01*
X164538183Y-76742240D01*
X164848646Y-75994562D01*
X164849352Y-75184989D01*
X164540195Y-74436771D01*
X164291858Y-74188000D01*
X170766560Y-74188000D01*
X170766560Y-76988000D01*
X170810838Y-77223317D01*
X170949910Y-77439441D01*
X171162110Y-77584431D01*
X171414000Y-77635440D01*
X174214000Y-77635440D01*
X174449317Y-77591162D01*
X174665441Y-77452090D01*
X174810431Y-77239890D01*
X174861440Y-76988000D01*
X174861440Y-74188000D01*
X174817162Y-73952683D01*
X174678090Y-73736559D01*
X174465890Y-73591569D01*
X174214000Y-73540560D01*
X171414000Y-73540560D01*
X171178683Y-73584838D01*
X170962559Y-73723910D01*
X170817569Y-73936110D01*
X170766560Y-74188000D01*
X164291858Y-74188000D01*
X163968240Y-73863817D01*
X163220562Y-73553354D01*
X162410989Y-73552648D01*
X161662771Y-73861805D01*
X161089817Y-74433760D01*
X160779354Y-75181438D01*
X160778648Y-75991011D01*
X154848649Y-75991011D01*
X154849352Y-75184989D01*
X154540195Y-74436771D01*
X153968240Y-73863817D01*
X153220562Y-73553354D01*
X152410989Y-73552648D01*
X151662771Y-73861805D01*
X151089817Y-74433760D01*
X150779354Y-75181438D01*
X150778648Y-75991011D01*
X146413440Y-75991011D01*
X146413440Y-74188000D01*
X146369162Y-73952683D01*
X146230090Y-73736559D01*
X146017890Y-73591569D01*
X145766000Y-73540560D01*
X142966000Y-73540560D01*
X142730683Y-73584838D01*
X142514559Y-73723910D01*
X142369569Y-73936110D01*
X142318560Y-74188000D01*
X135843858Y-74188000D01*
X135520240Y-73863817D01*
X134772562Y-73553354D01*
X133962989Y-73552648D01*
X133214771Y-73861805D01*
X132641817Y-74433760D01*
X132331354Y-75181438D01*
X132330648Y-75991011D01*
X126400649Y-75991011D01*
X126401352Y-75184989D01*
X126092195Y-74436771D01*
X125520240Y-73863817D01*
X124772562Y-73553354D01*
X123962989Y-73552648D01*
X123214771Y-73861805D01*
X122641817Y-74433760D01*
X122331354Y-75181438D01*
X122330648Y-75991011D01*
X119710000Y-75991011D01*
X119710000Y-70069931D01*
X119821046Y-69511662D01*
X120097669Y-69097667D01*
X120511660Y-68821047D01*
X121069931Y-68710000D01*
X176930069Y-68710000D01*
X177488338Y-68821046D01*
M02*
