G04 #@! TF.FileFunction,Copper,L2,Bot,Signal*
%FSLAX46Y46*%
G04 Gerber Fmt 4.6, Leading zero omitted, Abs format (unit mm)*
G04 Created by KiCad (PCBNEW 4.0.7) date Sun Sep 17 14:25:38 2017*
%MOMM*%
%LPD*%
G01*
G04 APERTURE LIST*
%ADD10C,0.100000*%
%ADD11R,1.700000X1.700000*%
%ADD12O,1.700000X1.700000*%
%ADD13C,2.800000*%
%ADD14R,2.800000X2.800000*%
%ADD15R,1.600000X2.000000*%
%ADD16R,2.350000X2.350000*%
%ADD17C,2.350000*%
%ADD18R,1.800000X1.800000*%
%ADD19C,1.800000*%
%ADD20C,2.400000*%
%ADD21O,0.900000X1.500000*%
%ADD22R,0.900000X1.500000*%
%ADD23R,1.700000X2.000000*%
%ADD24C,1.600000*%
%ADD25O,1.600000X1.600000*%
%ADD26C,2.000000*%
%ADD27R,1.600000X2.400000*%
%ADD28O,1.600000X2.400000*%
%ADD29O,1.800000X1.800000*%
%ADD30C,0.600000*%
%ADD31C,0.250000*%
%ADD32C,0.254000*%
G04 APERTURE END LIST*
D10*
D11*
X164085000Y-124825000D03*
D12*
X166625000Y-124825000D03*
X169165000Y-124825000D03*
X171705000Y-124825000D03*
X174245000Y-124825000D03*
X176785000Y-124825000D03*
D13*
X162815000Y-74175000D03*
D14*
X172815000Y-74175000D03*
D13*
X152815000Y-74175000D03*
D15*
X166625000Y-116951000D03*
X166625000Y-112951000D03*
X171705000Y-112951000D03*
X171705000Y-116951000D03*
X174245000Y-112951000D03*
X174245000Y-116951000D03*
D16*
X124655000Y-104795000D03*
D17*
X129855000Y-96595000D03*
X129855000Y-104795000D03*
X124655000Y-96595000D03*
D18*
X137415000Y-123555000D03*
D19*
X137415000Y-126095000D03*
D20*
X142375000Y-84185000D03*
X127375000Y-84185000D03*
D13*
X135510000Y-74175000D03*
D14*
X145510000Y-74175000D03*
D13*
X125510000Y-74175000D03*
D21*
X157227000Y-117713000D03*
X158497000Y-117713000D03*
D22*
X155957000Y-117713000D03*
D23*
X164085000Y-112919000D03*
X164085000Y-116919000D03*
X169165000Y-116951000D03*
X169165000Y-112951000D03*
D24*
X143765000Y-93075000D03*
D25*
X136145000Y-93075000D03*
D24*
X131700000Y-93075000D03*
D25*
X124080000Y-93075000D03*
D24*
X145035000Y-104725000D03*
D25*
X137415000Y-104725000D03*
D26*
X141710000Y-126095000D03*
X141710000Y-121595000D03*
X148210000Y-126095000D03*
X148210000Y-121595000D03*
X152020000Y-126095000D03*
X152020000Y-121595000D03*
X158520000Y-126095000D03*
X158520000Y-121595000D03*
D18*
X152815000Y-83075000D03*
D19*
X172815000Y-83075000D03*
X167815000Y-103075000D03*
X157815000Y-103075000D03*
D27*
X137415000Y-115935000D03*
D28*
X142495000Y-108315000D03*
X139955000Y-115935000D03*
X139955000Y-108315000D03*
X142495000Y-115935000D03*
X137415000Y-108315000D03*
D18*
X138685000Y-100695000D03*
D29*
X141225000Y-100695000D03*
X143765000Y-100695000D03*
D30*
X165101000Y-118729000D03*
X174245000Y-110855000D03*
X160783000Y-112887000D03*
X127255000Y-113395000D03*
X168466500Y-119491000D03*
X167514000Y-114982500D03*
X162116500Y-114982500D03*
X160783000Y-105775000D03*
X133605000Y-110855000D03*
X135366001Y-120269999D03*
X160275000Y-107045000D03*
D31*
X164085000Y-124825000D02*
X164085000Y-123725000D01*
X164085000Y-123725000D02*
X166625000Y-121185000D01*
X166625000Y-121185000D02*
X166625000Y-116951000D01*
X148210000Y-126095000D02*
X150242000Y-124063000D01*
X150242000Y-124063000D02*
X159767000Y-124063000D01*
X159767000Y-124063000D02*
X165101000Y-118729000D01*
X164085000Y-116919000D02*
X164085000Y-117713000D01*
X164085000Y-117713000D02*
X165101000Y-118729000D01*
X166625000Y-112951000D02*
X166625000Y-114379000D01*
X166625000Y-114379000D02*
X165335000Y-115669000D01*
X165335000Y-115669000D02*
X165185000Y-115669000D01*
X165185000Y-115669000D02*
X164085000Y-116769000D01*
X164085000Y-116769000D02*
X164085000Y-116919000D01*
X171705000Y-112951000D02*
X171705000Y-110855000D01*
X171705000Y-110855000D02*
X171705000Y-106965000D01*
X164085000Y-112919000D02*
X164085000Y-111669000D01*
X164085000Y-111669000D02*
X164899000Y-110855000D01*
X164899000Y-110855000D02*
X171705000Y-110855000D01*
X174245000Y-112951000D02*
X174245000Y-110855000D01*
X171705000Y-106965000D02*
X167815000Y-103075000D01*
X174245000Y-112951000D02*
X174245000Y-112751000D01*
X171705000Y-112951000D02*
X174245000Y-112951000D01*
X169165000Y-116951000D02*
X169165000Y-118792500D01*
X169165000Y-118792500D02*
X168466500Y-119491000D01*
X167514000Y-114982500D02*
X169165000Y-113331500D01*
X169165000Y-113331500D02*
X169165000Y-112951000D01*
X157227000Y-117713000D02*
X157227000Y-117413000D01*
X157227000Y-117413000D02*
X159657500Y-114982500D01*
X159657500Y-114982500D02*
X162116500Y-114982500D01*
X133605000Y-110855000D02*
X154825616Y-110855000D01*
X154825616Y-110855000D02*
X159905616Y-105775000D01*
X159905616Y-105775000D02*
X160783000Y-105775000D01*
D32*
X135366001Y-120269999D02*
X140991119Y-120269999D01*
X140991119Y-120269999D02*
X149900108Y-111361010D01*
X149900108Y-111361010D02*
X155958990Y-111361010D01*
X155958990Y-111361010D02*
X160275000Y-107045000D01*
G36*
X172980910Y-114402441D02*
X173193110Y-114547431D01*
X173445000Y-114598440D01*
X175045000Y-114598440D01*
X175280317Y-114554162D01*
X175388000Y-114484870D01*
X175388000Y-115405756D01*
X175171310Y-115316000D01*
X174530750Y-115316000D01*
X174372000Y-115474750D01*
X174372000Y-116824000D01*
X174392000Y-116824000D01*
X174392000Y-117078000D01*
X174372000Y-117078000D01*
X174372000Y-118427250D01*
X174530750Y-118586000D01*
X175171310Y-118586000D01*
X175388000Y-118496244D01*
X175388000Y-122031000D01*
X175396685Y-122077159D01*
X175423965Y-122119553D01*
X175465590Y-122147994D01*
X175515000Y-122158000D01*
X178290000Y-122158000D01*
X178290000Y-125930069D01*
X178178953Y-126488340D01*
X177902333Y-126902331D01*
X177488338Y-127178954D01*
X176930069Y-127290000D01*
X159637173Y-127290000D01*
X159905278Y-127022363D01*
X160154716Y-126421648D01*
X160155284Y-125771205D01*
X159906894Y-125170057D01*
X159560443Y-124823000D01*
X159767000Y-124823000D01*
X160057839Y-124765148D01*
X160304401Y-124600401D01*
X165240680Y-119664122D01*
X165286167Y-119664162D01*
X165629943Y-119522117D01*
X165865000Y-119287470D01*
X165865000Y-120870198D01*
X163547599Y-123187599D01*
X163454080Y-123327560D01*
X163235000Y-123327560D01*
X162999683Y-123371838D01*
X162783559Y-123510910D01*
X162638569Y-123723110D01*
X162587560Y-123975000D01*
X162587560Y-125675000D01*
X162631838Y-125910317D01*
X162770910Y-126126441D01*
X162983110Y-126271431D01*
X163235000Y-126322440D01*
X164935000Y-126322440D01*
X165170317Y-126278162D01*
X165386441Y-126139090D01*
X165531431Y-125926890D01*
X165545086Y-125859459D01*
X165574946Y-125904147D01*
X166056715Y-126226054D01*
X166625000Y-126339093D01*
X167193285Y-126226054D01*
X167675054Y-125904147D01*
X167895000Y-125574974D01*
X168114946Y-125904147D01*
X168596715Y-126226054D01*
X169165000Y-126339093D01*
X169733285Y-126226054D01*
X170215054Y-125904147D01*
X170435000Y-125574974D01*
X170654946Y-125904147D01*
X171136715Y-126226054D01*
X171705000Y-126339093D01*
X172273285Y-126226054D01*
X172755054Y-125904147D01*
X172975000Y-125574974D01*
X173194946Y-125904147D01*
X173676715Y-126226054D01*
X174245000Y-126339093D01*
X174813285Y-126226054D01*
X175295054Y-125904147D01*
X175522702Y-125563447D01*
X175589817Y-125706358D01*
X176018076Y-126096645D01*
X176428110Y-126266476D01*
X176658000Y-126145155D01*
X176658000Y-124952000D01*
X176912000Y-124952000D01*
X176912000Y-126145155D01*
X177141890Y-126266476D01*
X177551924Y-126096645D01*
X177980183Y-125706358D01*
X178226486Y-125181892D01*
X178105819Y-124952000D01*
X176912000Y-124952000D01*
X176658000Y-124952000D01*
X176638000Y-124952000D01*
X176638000Y-124698000D01*
X176658000Y-124698000D01*
X176658000Y-123504845D01*
X176912000Y-123504845D01*
X176912000Y-124698000D01*
X178105819Y-124698000D01*
X178226486Y-124468108D01*
X177980183Y-123943642D01*
X177551924Y-123553355D01*
X177141890Y-123383524D01*
X176912000Y-123504845D01*
X176658000Y-123504845D01*
X176428110Y-123383524D01*
X176018076Y-123553355D01*
X175589817Y-123943642D01*
X175522702Y-124086553D01*
X175295054Y-123745853D01*
X174813285Y-123423946D01*
X174245000Y-123310907D01*
X173676715Y-123423946D01*
X173194946Y-123745853D01*
X172975000Y-124075026D01*
X172755054Y-123745853D01*
X172273285Y-123423946D01*
X171705000Y-123310907D01*
X171136715Y-123423946D01*
X170654946Y-123745853D01*
X170435000Y-124075026D01*
X170215054Y-123745853D01*
X169733285Y-123423946D01*
X169165000Y-123310907D01*
X168596715Y-123423946D01*
X168114946Y-123745853D01*
X167895000Y-124075026D01*
X167675054Y-123745853D01*
X167193285Y-123423946D01*
X166625000Y-123310907D01*
X166056715Y-123423946D01*
X165574946Y-123745853D01*
X165547150Y-123787452D01*
X165538162Y-123739683D01*
X165399090Y-123523559D01*
X165376606Y-123508196D01*
X167162401Y-121722401D01*
X167327148Y-121475840D01*
X167339171Y-121415395D01*
X167385000Y-121185000D01*
X167385000Y-118598440D01*
X167425000Y-118598440D01*
X167660317Y-118554162D01*
X167872826Y-118417416D01*
X168063110Y-118547431D01*
X168223213Y-118579853D01*
X167937557Y-118697883D01*
X167674308Y-118960673D01*
X167531662Y-119304201D01*
X167531338Y-119676167D01*
X167673383Y-120019943D01*
X167936173Y-120283192D01*
X168279701Y-120425838D01*
X168651667Y-120426162D01*
X168995443Y-120284117D01*
X169258692Y-120021327D01*
X169401338Y-119677799D01*
X169401379Y-119630923D01*
X169702401Y-119329901D01*
X169867148Y-119083340D01*
X169925000Y-118792500D01*
X169925000Y-118598440D01*
X170015000Y-118598440D01*
X170250317Y-118554162D01*
X170466441Y-118415090D01*
X170468318Y-118412343D01*
X170545301Y-118489327D01*
X170778690Y-118586000D01*
X171419250Y-118586000D01*
X171578000Y-118427250D01*
X171578000Y-117078000D01*
X171832000Y-117078000D01*
X171832000Y-118427250D01*
X171990750Y-118586000D01*
X172631310Y-118586000D01*
X172864699Y-118489327D01*
X172975000Y-118379025D01*
X173085301Y-118489327D01*
X173318690Y-118586000D01*
X173959250Y-118586000D01*
X174118000Y-118427250D01*
X174118000Y-117078000D01*
X171832000Y-117078000D01*
X171578000Y-117078000D01*
X171558000Y-117078000D01*
X171558000Y-116824000D01*
X171578000Y-116824000D01*
X171578000Y-115474750D01*
X171832000Y-115474750D01*
X171832000Y-116824000D01*
X174118000Y-116824000D01*
X174118000Y-115474750D01*
X173959250Y-115316000D01*
X173318690Y-115316000D01*
X173085301Y-115412673D01*
X172975000Y-115522975D01*
X172864699Y-115412673D01*
X172631310Y-115316000D01*
X171990750Y-115316000D01*
X171832000Y-115474750D01*
X171578000Y-115474750D01*
X171419250Y-115316000D01*
X170778690Y-115316000D01*
X170545301Y-115412673D01*
X170466808Y-115491167D01*
X170266890Y-115354569D01*
X170015000Y-115303560D01*
X168393088Y-115303560D01*
X168448838Y-115169299D01*
X168448879Y-115122423D01*
X168972862Y-114598440D01*
X170015000Y-114598440D01*
X170250317Y-114554162D01*
X170462826Y-114417416D01*
X170653110Y-114547431D01*
X170905000Y-114598440D01*
X172505000Y-114598440D01*
X172740317Y-114554162D01*
X172956441Y-114415090D01*
X172973234Y-114390512D01*
X172980910Y-114402441D01*
X172980910Y-114402441D01*
G37*
X172980910Y-114402441D02*
X173193110Y-114547431D01*
X173445000Y-114598440D01*
X175045000Y-114598440D01*
X175280317Y-114554162D01*
X175388000Y-114484870D01*
X175388000Y-115405756D01*
X175171310Y-115316000D01*
X174530750Y-115316000D01*
X174372000Y-115474750D01*
X174372000Y-116824000D01*
X174392000Y-116824000D01*
X174392000Y-117078000D01*
X174372000Y-117078000D01*
X174372000Y-118427250D01*
X174530750Y-118586000D01*
X175171310Y-118586000D01*
X175388000Y-118496244D01*
X175388000Y-122031000D01*
X175396685Y-122077159D01*
X175423965Y-122119553D01*
X175465590Y-122147994D01*
X175515000Y-122158000D01*
X178290000Y-122158000D01*
X178290000Y-125930069D01*
X178178953Y-126488340D01*
X177902333Y-126902331D01*
X177488338Y-127178954D01*
X176930069Y-127290000D01*
X159637173Y-127290000D01*
X159905278Y-127022363D01*
X160154716Y-126421648D01*
X160155284Y-125771205D01*
X159906894Y-125170057D01*
X159560443Y-124823000D01*
X159767000Y-124823000D01*
X160057839Y-124765148D01*
X160304401Y-124600401D01*
X165240680Y-119664122D01*
X165286167Y-119664162D01*
X165629943Y-119522117D01*
X165865000Y-119287470D01*
X165865000Y-120870198D01*
X163547599Y-123187599D01*
X163454080Y-123327560D01*
X163235000Y-123327560D01*
X162999683Y-123371838D01*
X162783559Y-123510910D01*
X162638569Y-123723110D01*
X162587560Y-123975000D01*
X162587560Y-125675000D01*
X162631838Y-125910317D01*
X162770910Y-126126441D01*
X162983110Y-126271431D01*
X163235000Y-126322440D01*
X164935000Y-126322440D01*
X165170317Y-126278162D01*
X165386441Y-126139090D01*
X165531431Y-125926890D01*
X165545086Y-125859459D01*
X165574946Y-125904147D01*
X166056715Y-126226054D01*
X166625000Y-126339093D01*
X167193285Y-126226054D01*
X167675054Y-125904147D01*
X167895000Y-125574974D01*
X168114946Y-125904147D01*
X168596715Y-126226054D01*
X169165000Y-126339093D01*
X169733285Y-126226054D01*
X170215054Y-125904147D01*
X170435000Y-125574974D01*
X170654946Y-125904147D01*
X171136715Y-126226054D01*
X171705000Y-126339093D01*
X172273285Y-126226054D01*
X172755054Y-125904147D01*
X172975000Y-125574974D01*
X173194946Y-125904147D01*
X173676715Y-126226054D01*
X174245000Y-126339093D01*
X174813285Y-126226054D01*
X175295054Y-125904147D01*
X175522702Y-125563447D01*
X175589817Y-125706358D01*
X176018076Y-126096645D01*
X176428110Y-126266476D01*
X176658000Y-126145155D01*
X176658000Y-124952000D01*
X176912000Y-124952000D01*
X176912000Y-126145155D01*
X177141890Y-126266476D01*
X177551924Y-126096645D01*
X177980183Y-125706358D01*
X178226486Y-125181892D01*
X178105819Y-124952000D01*
X176912000Y-124952000D01*
X176658000Y-124952000D01*
X176638000Y-124952000D01*
X176638000Y-124698000D01*
X176658000Y-124698000D01*
X176658000Y-123504845D01*
X176912000Y-123504845D01*
X176912000Y-124698000D01*
X178105819Y-124698000D01*
X178226486Y-124468108D01*
X177980183Y-123943642D01*
X177551924Y-123553355D01*
X177141890Y-123383524D01*
X176912000Y-123504845D01*
X176658000Y-123504845D01*
X176428110Y-123383524D01*
X176018076Y-123553355D01*
X175589817Y-123943642D01*
X175522702Y-124086553D01*
X175295054Y-123745853D01*
X174813285Y-123423946D01*
X174245000Y-123310907D01*
X173676715Y-123423946D01*
X173194946Y-123745853D01*
X172975000Y-124075026D01*
X172755054Y-123745853D01*
X172273285Y-123423946D01*
X171705000Y-123310907D01*
X171136715Y-123423946D01*
X170654946Y-123745853D01*
X170435000Y-124075026D01*
X170215054Y-123745853D01*
X169733285Y-123423946D01*
X169165000Y-123310907D01*
X168596715Y-123423946D01*
X168114946Y-123745853D01*
X167895000Y-124075026D01*
X167675054Y-123745853D01*
X167193285Y-123423946D01*
X166625000Y-123310907D01*
X166056715Y-123423946D01*
X165574946Y-123745853D01*
X165547150Y-123787452D01*
X165538162Y-123739683D01*
X165399090Y-123523559D01*
X165376606Y-123508196D01*
X167162401Y-121722401D01*
X167327148Y-121475840D01*
X167339171Y-121415395D01*
X167385000Y-121185000D01*
X167385000Y-118598440D01*
X167425000Y-118598440D01*
X167660317Y-118554162D01*
X167872826Y-118417416D01*
X168063110Y-118547431D01*
X168223213Y-118579853D01*
X167937557Y-118697883D01*
X167674308Y-118960673D01*
X167531662Y-119304201D01*
X167531338Y-119676167D01*
X167673383Y-120019943D01*
X167936173Y-120283192D01*
X168279701Y-120425838D01*
X168651667Y-120426162D01*
X168995443Y-120284117D01*
X169258692Y-120021327D01*
X169401338Y-119677799D01*
X169401379Y-119630923D01*
X169702401Y-119329901D01*
X169867148Y-119083340D01*
X169925000Y-118792500D01*
X169925000Y-118598440D01*
X170015000Y-118598440D01*
X170250317Y-118554162D01*
X170466441Y-118415090D01*
X170468318Y-118412343D01*
X170545301Y-118489327D01*
X170778690Y-118586000D01*
X171419250Y-118586000D01*
X171578000Y-118427250D01*
X171578000Y-117078000D01*
X171832000Y-117078000D01*
X171832000Y-118427250D01*
X171990750Y-118586000D01*
X172631310Y-118586000D01*
X172864699Y-118489327D01*
X172975000Y-118379025D01*
X173085301Y-118489327D01*
X173318690Y-118586000D01*
X173959250Y-118586000D01*
X174118000Y-118427250D01*
X174118000Y-117078000D01*
X171832000Y-117078000D01*
X171578000Y-117078000D01*
X171558000Y-117078000D01*
X171558000Y-116824000D01*
X171578000Y-116824000D01*
X171578000Y-115474750D01*
X171832000Y-115474750D01*
X171832000Y-116824000D01*
X174118000Y-116824000D01*
X174118000Y-115474750D01*
X173959250Y-115316000D01*
X173318690Y-115316000D01*
X173085301Y-115412673D01*
X172975000Y-115522975D01*
X172864699Y-115412673D01*
X172631310Y-115316000D01*
X171990750Y-115316000D01*
X171832000Y-115474750D01*
X171578000Y-115474750D01*
X171419250Y-115316000D01*
X170778690Y-115316000D01*
X170545301Y-115412673D01*
X170466808Y-115491167D01*
X170266890Y-115354569D01*
X170015000Y-115303560D01*
X168393088Y-115303560D01*
X168448838Y-115169299D01*
X168448879Y-115122423D01*
X168972862Y-114598440D01*
X170015000Y-114598440D01*
X170250317Y-114554162D01*
X170462826Y-114417416D01*
X170653110Y-114547431D01*
X170905000Y-114598440D01*
X172505000Y-114598440D01*
X172740317Y-114554162D01*
X172956441Y-114415090D01*
X172973234Y-114390512D01*
X172980910Y-114402441D01*
G36*
X177488338Y-68821046D02*
X177902333Y-69097669D01*
X178178953Y-69511660D01*
X178290000Y-70069931D01*
X178290000Y-108188000D01*
X175515000Y-108188000D01*
X175468841Y-108196685D01*
X175426447Y-108223965D01*
X175398006Y-108265590D01*
X175388000Y-108315000D01*
X175388000Y-111416822D01*
X175296890Y-111354569D01*
X175069117Y-111308444D01*
X175179838Y-111041799D01*
X175180162Y-110669833D01*
X175038117Y-110326057D01*
X174775327Y-110062808D01*
X174431799Y-109920162D01*
X174059833Y-109919838D01*
X173716057Y-110061883D01*
X173452808Y-110324673D01*
X173310162Y-110668201D01*
X173309838Y-111040167D01*
X173420569Y-111308157D01*
X173209683Y-111347838D01*
X172993559Y-111486910D01*
X172976766Y-111511488D01*
X172969090Y-111499559D01*
X172756890Y-111354569D01*
X172505000Y-111303560D01*
X172465000Y-111303560D01*
X172465000Y-106965000D01*
X172407148Y-106674161D01*
X172242401Y-106427599D01*
X169304766Y-103489964D01*
X169349733Y-103381670D01*
X169350265Y-102771009D01*
X169117068Y-102206629D01*
X168685643Y-101774449D01*
X168121670Y-101540267D01*
X167511009Y-101539735D01*
X166946629Y-101772932D01*
X166514449Y-102204357D01*
X166280267Y-102768330D01*
X166279735Y-103378991D01*
X166512932Y-103943371D01*
X166944357Y-104375551D01*
X167508330Y-104609733D01*
X168118991Y-104610265D01*
X168229713Y-104564515D01*
X170945000Y-107279802D01*
X170945000Y-110095000D01*
X164899000Y-110095000D01*
X164608161Y-110152852D01*
X164361599Y-110317599D01*
X163547599Y-111131599D01*
X163454080Y-111271560D01*
X163235000Y-111271560D01*
X162999683Y-111315838D01*
X162783559Y-111454910D01*
X162638569Y-111667110D01*
X162587560Y-111919000D01*
X162587560Y-113919000D01*
X162631838Y-114154317D01*
X162669817Y-114213338D01*
X162646827Y-114190308D01*
X162303299Y-114047662D01*
X161931333Y-114047338D01*
X161587557Y-114189383D01*
X161554382Y-114222500D01*
X159657500Y-114222500D01*
X159366661Y-114280352D01*
X159120099Y-114445099D01*
X157258138Y-116307060D01*
X157227000Y-116300866D01*
X156811788Y-116383457D01*
X156746981Y-116426759D01*
X156658890Y-116366569D01*
X156407000Y-116315560D01*
X155507000Y-116315560D01*
X155271683Y-116359838D01*
X155055559Y-116498910D01*
X154910569Y-116711110D01*
X154859560Y-116963000D01*
X154859560Y-118463000D01*
X154903838Y-118698317D01*
X155042910Y-118914441D01*
X155255110Y-119059431D01*
X155507000Y-119110440D01*
X156407000Y-119110440D01*
X156642317Y-119066162D01*
X156746655Y-118999022D01*
X156811788Y-119042543D01*
X157227000Y-119125134D01*
X157642212Y-119042543D01*
X157866274Y-118892830D01*
X158202999Y-119057408D01*
X158370000Y-118930502D01*
X158370000Y-117840000D01*
X158624000Y-117840000D01*
X158624000Y-118930502D01*
X158791001Y-119057408D01*
X159174408Y-118870013D01*
X159450808Y-118545544D01*
X159582000Y-118140000D01*
X159582000Y-117840000D01*
X158624000Y-117840000D01*
X158370000Y-117840000D01*
X158350000Y-117840000D01*
X158350000Y-117586000D01*
X158370000Y-117586000D01*
X158370000Y-117566000D01*
X158624000Y-117566000D01*
X158624000Y-117586000D01*
X159582000Y-117586000D01*
X159582000Y-117286000D01*
X159450808Y-116880456D01*
X159174408Y-116555987D01*
X159163934Y-116550868D01*
X159972302Y-115742500D01*
X161554037Y-115742500D01*
X161586173Y-115774692D01*
X161929701Y-115917338D01*
X162301667Y-115917662D01*
X162613962Y-115788625D01*
X162587560Y-115919000D01*
X162587560Y-117919000D01*
X162631838Y-118154317D01*
X162770910Y-118370441D01*
X162983110Y-118515431D01*
X163235000Y-118566440D01*
X163863638Y-118566440D01*
X164026198Y-118729000D01*
X159452198Y-123303000D01*
X150242000Y-123303000D01*
X149951161Y-123360852D01*
X149704599Y-123525599D01*
X148701473Y-124528725D01*
X148536648Y-124460284D01*
X147886205Y-124459716D01*
X147285057Y-124708106D01*
X146824722Y-125167637D01*
X146575284Y-125768352D01*
X146574716Y-126418795D01*
X146823106Y-127019943D01*
X147092691Y-127290000D01*
X142827173Y-127290000D01*
X143095278Y-127022363D01*
X143344716Y-126421648D01*
X143345284Y-125771205D01*
X143096894Y-125170057D01*
X142637363Y-124709722D01*
X142036648Y-124460284D01*
X141386205Y-124459716D01*
X140785057Y-124708106D01*
X140324722Y-125167637D01*
X140075284Y-125768352D01*
X140074716Y-126418795D01*
X140323106Y-127019943D01*
X140592691Y-127290000D01*
X138390626Y-127290000D01*
X138715551Y-126965643D01*
X138949733Y-126401670D01*
X138950265Y-125791009D01*
X138717068Y-125226629D01*
X138549120Y-125058387D01*
X138550317Y-125058162D01*
X138766441Y-124919090D01*
X138911431Y-124706890D01*
X138962440Y-124455000D01*
X138962440Y-122747532D01*
X140737073Y-122747532D01*
X140835736Y-123014387D01*
X141445461Y-123240908D01*
X142095460Y-123216856D01*
X142584264Y-123014387D01*
X142682927Y-122747532D01*
X147237073Y-122747532D01*
X147335736Y-123014387D01*
X147945461Y-123240908D01*
X148595460Y-123216856D01*
X149084264Y-123014387D01*
X149182927Y-122747532D01*
X151047073Y-122747532D01*
X151145736Y-123014387D01*
X151755461Y-123240908D01*
X152405460Y-123216856D01*
X152894264Y-123014387D01*
X152992927Y-122747532D01*
X157547073Y-122747532D01*
X157645736Y-123014387D01*
X158255461Y-123240908D01*
X158905460Y-123216856D01*
X159394264Y-123014387D01*
X159492927Y-122747532D01*
X158520000Y-121774605D01*
X157547073Y-122747532D01*
X152992927Y-122747532D01*
X152020000Y-121774605D01*
X151047073Y-122747532D01*
X149182927Y-122747532D01*
X148210000Y-121774605D01*
X147237073Y-122747532D01*
X142682927Y-122747532D01*
X141710000Y-121774605D01*
X140737073Y-122747532D01*
X138962440Y-122747532D01*
X138962440Y-122655000D01*
X138918162Y-122419683D01*
X138779090Y-122203559D01*
X138566890Y-122058569D01*
X138315000Y-122007560D01*
X136515000Y-122007560D01*
X136279683Y-122051838D01*
X136063559Y-122190910D01*
X135918569Y-122403110D01*
X135867560Y-122655000D01*
X135867560Y-124455000D01*
X135911838Y-124690317D01*
X136050910Y-124906441D01*
X136263110Y-125051431D01*
X136283534Y-125055567D01*
X136114449Y-125224357D01*
X135880267Y-125788330D01*
X135879735Y-126398991D01*
X136112932Y-126963371D01*
X136438990Y-127290000D01*
X121069931Y-127290000D01*
X120511660Y-127178953D01*
X120097669Y-126902333D01*
X119821046Y-126488338D01*
X119710000Y-125930069D01*
X119710000Y-114735000D01*
X135967560Y-114735000D01*
X135967560Y-117135000D01*
X136011838Y-117370317D01*
X136150910Y-117586441D01*
X136363110Y-117731431D01*
X136615000Y-117782440D01*
X138215000Y-117782440D01*
X138450317Y-117738162D01*
X138666441Y-117599090D01*
X138811431Y-117386890D01*
X138846906Y-117211709D01*
X139030104Y-117439500D01*
X139523181Y-117709367D01*
X139605961Y-117726904D01*
X139828000Y-117604915D01*
X139828000Y-116062000D01*
X139808000Y-116062000D01*
X139808000Y-115808000D01*
X139828000Y-115808000D01*
X139828000Y-114265085D01*
X139605961Y-114143096D01*
X139523181Y-114160633D01*
X139030104Y-114430500D01*
X138847798Y-114657182D01*
X138818162Y-114499683D01*
X138679090Y-114283559D01*
X138466890Y-114138569D01*
X138215000Y-114087560D01*
X136615000Y-114087560D01*
X136379683Y-114131838D01*
X136163559Y-114270910D01*
X136018569Y-114483110D01*
X135967560Y-114735000D01*
X119710000Y-114735000D01*
X119710000Y-111040167D01*
X132669838Y-111040167D01*
X132811883Y-111383943D01*
X133074673Y-111647192D01*
X133418201Y-111789838D01*
X133790167Y-111790162D01*
X134133943Y-111648117D01*
X134167118Y-111615000D01*
X148568488Y-111615000D01*
X143930000Y-116253488D01*
X143930000Y-115499050D01*
X143820767Y-114949899D01*
X143509698Y-114484352D01*
X143044151Y-114173283D01*
X142495000Y-114064050D01*
X141945849Y-114173283D01*
X141480302Y-114484352D01*
X141227493Y-114862707D01*
X140879896Y-114430500D01*
X140386819Y-114160633D01*
X140304039Y-114143096D01*
X140082000Y-114265085D01*
X140082000Y-115808000D01*
X140102000Y-115808000D01*
X140102000Y-116062000D01*
X140082000Y-116062000D01*
X140082000Y-117604915D01*
X140304039Y-117726904D01*
X140386819Y-117709367D01*
X140879896Y-117439500D01*
X141227493Y-117007293D01*
X141480302Y-117385648D01*
X141945849Y-117696717D01*
X142397026Y-117786462D01*
X140675489Y-119507999D01*
X135926467Y-119507999D01*
X135896328Y-119477807D01*
X135552800Y-119335161D01*
X135180834Y-119334837D01*
X134837058Y-119476882D01*
X134573809Y-119739672D01*
X134431163Y-120083200D01*
X134430839Y-120455166D01*
X134572884Y-120798942D01*
X134835674Y-121062191D01*
X135179202Y-121204837D01*
X135551168Y-121205161D01*
X135894944Y-121063116D01*
X135926115Y-121031999D01*
X140174975Y-121031999D01*
X140064092Y-121330461D01*
X140088144Y-121980460D01*
X140290613Y-122469264D01*
X140557468Y-122567927D01*
X141530395Y-121595000D01*
X141889605Y-121595000D01*
X142862532Y-122567927D01*
X143129387Y-122469264D01*
X143355908Y-121859539D01*
X143336331Y-121330461D01*
X146564092Y-121330461D01*
X146588144Y-121980460D01*
X146790613Y-122469264D01*
X147057468Y-122567927D01*
X148030395Y-121595000D01*
X148389605Y-121595000D01*
X149362532Y-122567927D01*
X149629387Y-122469264D01*
X149855908Y-121859539D01*
X149836331Y-121330461D01*
X150374092Y-121330461D01*
X150398144Y-121980460D01*
X150600613Y-122469264D01*
X150867468Y-122567927D01*
X151840395Y-121595000D01*
X152199605Y-121595000D01*
X153172532Y-122567927D01*
X153439387Y-122469264D01*
X153665908Y-121859539D01*
X153646331Y-121330461D01*
X156874092Y-121330461D01*
X156898144Y-121980460D01*
X157100613Y-122469264D01*
X157367468Y-122567927D01*
X158340395Y-121595000D01*
X158699605Y-121595000D01*
X159672532Y-122567927D01*
X159939387Y-122469264D01*
X160165908Y-121859539D01*
X160141856Y-121209540D01*
X159939387Y-120720736D01*
X159672532Y-120622073D01*
X158699605Y-121595000D01*
X158340395Y-121595000D01*
X157367468Y-120622073D01*
X157100613Y-120720736D01*
X156874092Y-121330461D01*
X153646331Y-121330461D01*
X153641856Y-121209540D01*
X153439387Y-120720736D01*
X153172532Y-120622073D01*
X152199605Y-121595000D01*
X151840395Y-121595000D01*
X150867468Y-120622073D01*
X150600613Y-120720736D01*
X150374092Y-121330461D01*
X149836331Y-121330461D01*
X149831856Y-121209540D01*
X149629387Y-120720736D01*
X149362532Y-120622073D01*
X148389605Y-121595000D01*
X148030395Y-121595000D01*
X147057468Y-120622073D01*
X146790613Y-120720736D01*
X146564092Y-121330461D01*
X143336331Y-121330461D01*
X143331856Y-121209540D01*
X143129387Y-120720736D01*
X142862532Y-120622073D01*
X141889605Y-121595000D01*
X141530395Y-121595000D01*
X141516253Y-121580858D01*
X141695858Y-121401253D01*
X141710000Y-121415395D01*
X142682927Y-120442468D01*
X147237073Y-120442468D01*
X148210000Y-121415395D01*
X149182927Y-120442468D01*
X151047073Y-120442468D01*
X152020000Y-121415395D01*
X152992927Y-120442468D01*
X157547073Y-120442468D01*
X158520000Y-121415395D01*
X159492927Y-120442468D01*
X159394264Y-120175613D01*
X158784539Y-119949092D01*
X158134540Y-119973144D01*
X157645736Y-120175613D01*
X157547073Y-120442468D01*
X152992927Y-120442468D01*
X152894264Y-120175613D01*
X152284539Y-119949092D01*
X151634540Y-119973144D01*
X151145736Y-120175613D01*
X151047073Y-120442468D01*
X149182927Y-120442468D01*
X149084264Y-120175613D01*
X148474539Y-119949092D01*
X147824540Y-119973144D01*
X147335736Y-120175613D01*
X147237073Y-120442468D01*
X142682927Y-120442468D01*
X142584264Y-120175613D01*
X142277210Y-120061538D01*
X150215738Y-112123010D01*
X155958990Y-112123010D01*
X156250595Y-112065006D01*
X156497805Y-111899825D01*
X160417505Y-107980125D01*
X160460167Y-107980162D01*
X160803943Y-107838117D01*
X161067192Y-107575327D01*
X161209838Y-107231799D01*
X161210162Y-106859833D01*
X161122048Y-106646580D01*
X161311943Y-106568117D01*
X161575192Y-106305327D01*
X161717838Y-105961799D01*
X161718162Y-105589833D01*
X161576117Y-105246057D01*
X161313327Y-104982808D01*
X160969799Y-104840162D01*
X160597833Y-104839838D01*
X160254057Y-104981883D01*
X160220882Y-105015000D01*
X159905616Y-105015000D01*
X159614777Y-105072852D01*
X159368215Y-105237599D01*
X154510814Y-110095000D01*
X142952236Y-110095000D01*
X143044151Y-110076717D01*
X143509698Y-109765648D01*
X143820767Y-109300101D01*
X143930000Y-108750950D01*
X143930000Y-107879050D01*
X143820767Y-107329899D01*
X143509698Y-106864352D01*
X143044151Y-106553283D01*
X142495000Y-106444050D01*
X141945849Y-106553283D01*
X141480302Y-106864352D01*
X141225000Y-107246438D01*
X140969698Y-106864352D01*
X140504151Y-106553283D01*
X139955000Y-106444050D01*
X139405849Y-106553283D01*
X138940302Y-106864352D01*
X138685000Y-107246438D01*
X138429698Y-106864352D01*
X137964151Y-106553283D01*
X137415000Y-106444050D01*
X136865849Y-106553283D01*
X136400302Y-106864352D01*
X136089233Y-107329899D01*
X135980000Y-107879050D01*
X135980000Y-108750950D01*
X136089233Y-109300101D01*
X136400302Y-109765648D01*
X136865849Y-110076717D01*
X136957764Y-110095000D01*
X134167463Y-110095000D01*
X134135327Y-110062808D01*
X133791799Y-109920162D01*
X133419833Y-109919838D01*
X133076057Y-110061883D01*
X132812808Y-110324673D01*
X132670162Y-110668201D01*
X132669838Y-111040167D01*
X119710000Y-111040167D01*
X119710000Y-103620000D01*
X122832560Y-103620000D01*
X122832560Y-105970000D01*
X122876838Y-106205317D01*
X123015910Y-106421441D01*
X123228110Y-106566431D01*
X123480000Y-106617440D01*
X125830000Y-106617440D01*
X126065317Y-106573162D01*
X126281441Y-106434090D01*
X126426431Y-106221890D01*
X126477440Y-105970000D01*
X126477440Y-105153452D01*
X128044686Y-105153452D01*
X128319662Y-105818943D01*
X128828379Y-106328549D01*
X129493389Y-106604685D01*
X130213452Y-106605314D01*
X130878943Y-106330338D01*
X131388549Y-105821621D01*
X131664685Y-105156611D01*
X131665062Y-104725000D01*
X135951887Y-104725000D01*
X136061120Y-105274151D01*
X136372189Y-105739698D01*
X136837736Y-106050767D01*
X137386887Y-106160000D01*
X137443113Y-106160000D01*
X137992264Y-106050767D01*
X138457811Y-105739698D01*
X138768880Y-105274151D01*
X138821584Y-105009187D01*
X143599752Y-105009187D01*
X143817757Y-105536800D01*
X144221077Y-105940824D01*
X144748309Y-106159750D01*
X145319187Y-106160248D01*
X145846800Y-105942243D01*
X146250824Y-105538923D01*
X146469750Y-105011691D01*
X146470248Y-104440813D01*
X146352219Y-104155159D01*
X156914446Y-104155159D01*
X157000852Y-104411643D01*
X157574336Y-104621458D01*
X158184460Y-104595839D01*
X158629148Y-104411643D01*
X158715554Y-104155159D01*
X157815000Y-103254605D01*
X156914446Y-104155159D01*
X146352219Y-104155159D01*
X146252243Y-103913200D01*
X145848923Y-103509176D01*
X145321691Y-103290250D01*
X144750813Y-103289752D01*
X144223200Y-103507757D01*
X143819176Y-103911077D01*
X143600250Y-104438309D01*
X143599752Y-105009187D01*
X138821584Y-105009187D01*
X138878113Y-104725000D01*
X138768880Y-104175849D01*
X138457811Y-103710302D01*
X137992264Y-103399233D01*
X137443113Y-103290000D01*
X137386887Y-103290000D01*
X136837736Y-103399233D01*
X136372189Y-103710302D01*
X136061120Y-104175849D01*
X135951887Y-104725000D01*
X131665062Y-104725000D01*
X131665314Y-104436548D01*
X131390338Y-103771057D01*
X130881621Y-103261451D01*
X130216611Y-102985315D01*
X129496548Y-102984686D01*
X128831057Y-103259662D01*
X128321451Y-103768379D01*
X128045315Y-104433389D01*
X128044686Y-105153452D01*
X126477440Y-105153452D01*
X126477440Y-103620000D01*
X126433162Y-103384683D01*
X126294090Y-103168559D01*
X126081890Y-103023569D01*
X125830000Y-102972560D01*
X123480000Y-102972560D01*
X123244683Y-103016838D01*
X123028559Y-103155910D01*
X122883569Y-103368110D01*
X122832560Y-103620000D01*
X119710000Y-103620000D01*
X119710000Y-102834336D01*
X156268542Y-102834336D01*
X156294161Y-103444460D01*
X156478357Y-103889148D01*
X156734841Y-103975554D01*
X157635395Y-103075000D01*
X157994605Y-103075000D01*
X158895159Y-103975554D01*
X159151643Y-103889148D01*
X159361458Y-103315664D01*
X159335839Y-102705540D01*
X159151643Y-102260852D01*
X158895159Y-102174446D01*
X157994605Y-103075000D01*
X157635395Y-103075000D01*
X156734841Y-102174446D01*
X156478357Y-102260852D01*
X156268542Y-102834336D01*
X119710000Y-102834336D01*
X119710000Y-99795000D01*
X137137560Y-99795000D01*
X137137560Y-101595000D01*
X137181838Y-101830317D01*
X137320910Y-102046441D01*
X137533110Y-102191431D01*
X137785000Y-102242440D01*
X139585000Y-102242440D01*
X139820317Y-102198162D01*
X140036441Y-102059090D01*
X140181431Y-101846890D01*
X140184719Y-101830656D01*
X140607509Y-102113155D01*
X141194928Y-102230000D01*
X141255072Y-102230000D01*
X141842491Y-102113155D01*
X142340481Y-101780409D01*
X142495000Y-101549155D01*
X142649519Y-101780409D01*
X143147509Y-102113155D01*
X143734928Y-102230000D01*
X143795072Y-102230000D01*
X144382491Y-102113155D01*
X144559560Y-101994841D01*
X156914446Y-101994841D01*
X157815000Y-102895395D01*
X158715554Y-101994841D01*
X158629148Y-101738357D01*
X158055664Y-101528542D01*
X157445540Y-101554161D01*
X157000852Y-101738357D01*
X156914446Y-101994841D01*
X144559560Y-101994841D01*
X144880481Y-101780409D01*
X145213227Y-101282419D01*
X145330072Y-100695000D01*
X145213227Y-100107581D01*
X144880481Y-99609591D01*
X144382491Y-99276845D01*
X143795072Y-99160000D01*
X143734928Y-99160000D01*
X143147509Y-99276845D01*
X142649519Y-99609591D01*
X142495000Y-99840845D01*
X142340481Y-99609591D01*
X141842491Y-99276845D01*
X141255072Y-99160000D01*
X141194928Y-99160000D01*
X140607509Y-99276845D01*
X140186974Y-99557837D01*
X140049090Y-99343559D01*
X139836890Y-99198569D01*
X139585000Y-99147560D01*
X137785000Y-99147560D01*
X137549683Y-99191838D01*
X137333559Y-99330910D01*
X137188569Y-99543110D01*
X137137560Y-99795000D01*
X119710000Y-99795000D01*
X119710000Y-96953452D01*
X122844686Y-96953452D01*
X123119662Y-97618943D01*
X123628379Y-98128549D01*
X124293389Y-98404685D01*
X125013452Y-98405314D01*
X125678943Y-98130338D01*
X126188549Y-97621621D01*
X126464685Y-96956611D01*
X126464687Y-96953452D01*
X128044686Y-96953452D01*
X128319662Y-97618943D01*
X128828379Y-98128549D01*
X129493389Y-98404685D01*
X130213452Y-98405314D01*
X130878943Y-98130338D01*
X131388549Y-97621621D01*
X131664685Y-96956611D01*
X131665314Y-96236548D01*
X131390338Y-95571057D01*
X130881621Y-95061451D01*
X130216611Y-94785315D01*
X129496548Y-94784686D01*
X128831057Y-95059662D01*
X128321451Y-95568379D01*
X128045315Y-96233389D01*
X128044686Y-96953452D01*
X126464687Y-96953452D01*
X126465314Y-96236548D01*
X126190338Y-95571057D01*
X125681621Y-95061451D01*
X125016611Y-94785315D01*
X124296548Y-94784686D01*
X123631057Y-95059662D01*
X123121451Y-95568379D01*
X122845315Y-96233389D01*
X122844686Y-96953452D01*
X119710000Y-96953452D01*
X119710000Y-93075000D01*
X122616887Y-93075000D01*
X122726120Y-93624151D01*
X123037189Y-94089698D01*
X123502736Y-94400767D01*
X124051887Y-94510000D01*
X124108113Y-94510000D01*
X124657264Y-94400767D01*
X125122811Y-94089698D01*
X125433880Y-93624151D01*
X125486584Y-93359187D01*
X130264752Y-93359187D01*
X130482757Y-93886800D01*
X130886077Y-94290824D01*
X131413309Y-94509750D01*
X131984187Y-94510248D01*
X132511800Y-94292243D01*
X132915824Y-93888923D01*
X133134750Y-93361691D01*
X133135000Y-93075000D01*
X134681887Y-93075000D01*
X134791120Y-93624151D01*
X135102189Y-94089698D01*
X135567736Y-94400767D01*
X136116887Y-94510000D01*
X136173113Y-94510000D01*
X136722264Y-94400767D01*
X137187811Y-94089698D01*
X137498880Y-93624151D01*
X137551584Y-93359187D01*
X142329752Y-93359187D01*
X142547757Y-93886800D01*
X142951077Y-94290824D01*
X143478309Y-94509750D01*
X144049187Y-94510248D01*
X144576800Y-94292243D01*
X144980824Y-93888923D01*
X145199750Y-93361691D01*
X145200248Y-92790813D01*
X144982243Y-92263200D01*
X144578923Y-91859176D01*
X144051691Y-91640250D01*
X143480813Y-91639752D01*
X142953200Y-91857757D01*
X142549176Y-92261077D01*
X142330250Y-92788309D01*
X142329752Y-93359187D01*
X137551584Y-93359187D01*
X137608113Y-93075000D01*
X137498880Y-92525849D01*
X137187811Y-92060302D01*
X136722264Y-91749233D01*
X136173113Y-91640000D01*
X136116887Y-91640000D01*
X135567736Y-91749233D01*
X135102189Y-92060302D01*
X134791120Y-92525849D01*
X134681887Y-93075000D01*
X133135000Y-93075000D01*
X133135248Y-92790813D01*
X132917243Y-92263200D01*
X132513923Y-91859176D01*
X131986691Y-91640250D01*
X131415813Y-91639752D01*
X130888200Y-91857757D01*
X130484176Y-92261077D01*
X130265250Y-92788309D01*
X130264752Y-93359187D01*
X125486584Y-93359187D01*
X125543113Y-93075000D01*
X125433880Y-92525849D01*
X125122811Y-92060302D01*
X124657264Y-91749233D01*
X124108113Y-91640000D01*
X124051887Y-91640000D01*
X123502736Y-91749233D01*
X123037189Y-92060302D01*
X122726120Y-92525849D01*
X122616887Y-93075000D01*
X119710000Y-93075000D01*
X119710000Y-84548403D01*
X125539682Y-84548403D01*
X125818455Y-85223086D01*
X126334199Y-85739730D01*
X127008395Y-86019681D01*
X127738403Y-86020318D01*
X128413086Y-85741545D01*
X128929730Y-85225801D01*
X129200731Y-84573158D01*
X132914660Y-84573158D01*
X133212424Y-85293801D01*
X133763299Y-85845639D01*
X134483421Y-86144659D01*
X135263158Y-86145340D01*
X135983801Y-85847576D01*
X136535639Y-85296701D01*
X136834659Y-84576579D01*
X136834683Y-84548403D01*
X140539682Y-84548403D01*
X140818455Y-85223086D01*
X141334199Y-85739730D01*
X142008395Y-86019681D01*
X142738403Y-86020318D01*
X143413086Y-85741545D01*
X143929730Y-85225801D01*
X144209681Y-84551605D01*
X144210318Y-83821597D01*
X143931545Y-83146914D01*
X143415801Y-82630270D01*
X142741605Y-82350319D01*
X142011597Y-82349682D01*
X141336914Y-82628455D01*
X140820270Y-83144199D01*
X140540319Y-83818395D01*
X140539682Y-84548403D01*
X136834683Y-84548403D01*
X136835340Y-83796842D01*
X136537576Y-83076199D01*
X135986701Y-82524361D01*
X135266579Y-82225341D01*
X134486842Y-82224660D01*
X133766199Y-82522424D01*
X133214361Y-83073299D01*
X132915341Y-83793421D01*
X132914660Y-84573158D01*
X129200731Y-84573158D01*
X129209681Y-84551605D01*
X129210318Y-83821597D01*
X128931545Y-83146914D01*
X128415801Y-82630270D01*
X127741605Y-82350319D01*
X127011597Y-82349682D01*
X126336914Y-82628455D01*
X125820270Y-83144199D01*
X125540319Y-83818395D01*
X125539682Y-84548403D01*
X119710000Y-84548403D01*
X119710000Y-82175000D01*
X151267560Y-82175000D01*
X151267560Y-83975000D01*
X151311838Y-84210317D01*
X151450910Y-84426441D01*
X151663110Y-84571431D01*
X151915000Y-84622440D01*
X153715000Y-84622440D01*
X153950317Y-84578162D01*
X154166441Y-84439090D01*
X154311431Y-84226890D01*
X154362440Y-83975000D01*
X154362440Y-83378991D01*
X171279735Y-83378991D01*
X171512932Y-83943371D01*
X171944357Y-84375551D01*
X172508330Y-84609733D01*
X173118991Y-84610265D01*
X173683371Y-84377068D01*
X174115551Y-83945643D01*
X174349733Y-83381670D01*
X174350265Y-82771009D01*
X174117068Y-82206629D01*
X173685643Y-81774449D01*
X173121670Y-81540267D01*
X172511009Y-81539735D01*
X171946629Y-81772932D01*
X171514449Y-82204357D01*
X171280267Y-82768330D01*
X171279735Y-83378991D01*
X154362440Y-83378991D01*
X154362440Y-82175000D01*
X154318162Y-81939683D01*
X154179090Y-81723559D01*
X153966890Y-81578569D01*
X153715000Y-81527560D01*
X151915000Y-81527560D01*
X151679683Y-81571838D01*
X151463559Y-81710910D01*
X151318569Y-81923110D01*
X151267560Y-82175000D01*
X119710000Y-82175000D01*
X119710000Y-74578011D01*
X123474648Y-74578011D01*
X123783805Y-75326229D01*
X124355760Y-75899183D01*
X125103438Y-76209646D01*
X125913011Y-76210352D01*
X126661229Y-75901195D01*
X127234183Y-75329240D01*
X127544646Y-74581562D01*
X127544649Y-74578011D01*
X133474648Y-74578011D01*
X133783805Y-75326229D01*
X134355760Y-75899183D01*
X135103438Y-76209646D01*
X135913011Y-76210352D01*
X136661229Y-75901195D01*
X137234183Y-75329240D01*
X137544646Y-74581562D01*
X137545352Y-73771989D01*
X137236195Y-73023771D01*
X136987858Y-72775000D01*
X143462560Y-72775000D01*
X143462560Y-75575000D01*
X143506838Y-75810317D01*
X143645910Y-76026441D01*
X143858110Y-76171431D01*
X144110000Y-76222440D01*
X146910000Y-76222440D01*
X147145317Y-76178162D01*
X147361441Y-76039090D01*
X147506431Y-75826890D01*
X147557440Y-75575000D01*
X147557440Y-74578011D01*
X150779648Y-74578011D01*
X151088805Y-75326229D01*
X151660760Y-75899183D01*
X152408438Y-76209646D01*
X153218011Y-76210352D01*
X153966229Y-75901195D01*
X154539183Y-75329240D01*
X154849646Y-74581562D01*
X154849649Y-74578011D01*
X160779648Y-74578011D01*
X161088805Y-75326229D01*
X161660760Y-75899183D01*
X162408438Y-76209646D01*
X163218011Y-76210352D01*
X163966229Y-75901195D01*
X164539183Y-75329240D01*
X164849646Y-74581562D01*
X164850352Y-73771989D01*
X164541195Y-73023771D01*
X164292858Y-72775000D01*
X170767560Y-72775000D01*
X170767560Y-75575000D01*
X170811838Y-75810317D01*
X170950910Y-76026441D01*
X171163110Y-76171431D01*
X171415000Y-76222440D01*
X174215000Y-76222440D01*
X174450317Y-76178162D01*
X174666441Y-76039090D01*
X174811431Y-75826890D01*
X174862440Y-75575000D01*
X174862440Y-72775000D01*
X174818162Y-72539683D01*
X174679090Y-72323559D01*
X174466890Y-72178569D01*
X174215000Y-72127560D01*
X171415000Y-72127560D01*
X171179683Y-72171838D01*
X170963559Y-72310910D01*
X170818569Y-72523110D01*
X170767560Y-72775000D01*
X164292858Y-72775000D01*
X163969240Y-72450817D01*
X163221562Y-72140354D01*
X162411989Y-72139648D01*
X161663771Y-72448805D01*
X161090817Y-73020760D01*
X160780354Y-73768438D01*
X160779648Y-74578011D01*
X154849649Y-74578011D01*
X154850352Y-73771989D01*
X154541195Y-73023771D01*
X153969240Y-72450817D01*
X153221562Y-72140354D01*
X152411989Y-72139648D01*
X151663771Y-72448805D01*
X151090817Y-73020760D01*
X150780354Y-73768438D01*
X150779648Y-74578011D01*
X147557440Y-74578011D01*
X147557440Y-72775000D01*
X147513162Y-72539683D01*
X147374090Y-72323559D01*
X147161890Y-72178569D01*
X146910000Y-72127560D01*
X144110000Y-72127560D01*
X143874683Y-72171838D01*
X143658559Y-72310910D01*
X143513569Y-72523110D01*
X143462560Y-72775000D01*
X136987858Y-72775000D01*
X136664240Y-72450817D01*
X135916562Y-72140354D01*
X135106989Y-72139648D01*
X134358771Y-72448805D01*
X133785817Y-73020760D01*
X133475354Y-73768438D01*
X133474648Y-74578011D01*
X127544649Y-74578011D01*
X127545352Y-73771989D01*
X127236195Y-73023771D01*
X126664240Y-72450817D01*
X125916562Y-72140354D01*
X125106989Y-72139648D01*
X124358771Y-72448805D01*
X123785817Y-73020760D01*
X123475354Y-73768438D01*
X123474648Y-74578011D01*
X119710000Y-74578011D01*
X119710000Y-70069931D01*
X119821046Y-69511662D01*
X120097669Y-69097667D01*
X120511660Y-68821047D01*
X121069931Y-68710000D01*
X176930069Y-68710000D01*
X177488338Y-68821046D01*
X177488338Y-68821046D01*
G37*
X177488338Y-68821046D02*
X177902333Y-69097669D01*
X178178953Y-69511660D01*
X178290000Y-70069931D01*
X178290000Y-108188000D01*
X175515000Y-108188000D01*
X175468841Y-108196685D01*
X175426447Y-108223965D01*
X175398006Y-108265590D01*
X175388000Y-108315000D01*
X175388000Y-111416822D01*
X175296890Y-111354569D01*
X175069117Y-111308444D01*
X175179838Y-111041799D01*
X175180162Y-110669833D01*
X175038117Y-110326057D01*
X174775327Y-110062808D01*
X174431799Y-109920162D01*
X174059833Y-109919838D01*
X173716057Y-110061883D01*
X173452808Y-110324673D01*
X173310162Y-110668201D01*
X173309838Y-111040167D01*
X173420569Y-111308157D01*
X173209683Y-111347838D01*
X172993559Y-111486910D01*
X172976766Y-111511488D01*
X172969090Y-111499559D01*
X172756890Y-111354569D01*
X172505000Y-111303560D01*
X172465000Y-111303560D01*
X172465000Y-106965000D01*
X172407148Y-106674161D01*
X172242401Y-106427599D01*
X169304766Y-103489964D01*
X169349733Y-103381670D01*
X169350265Y-102771009D01*
X169117068Y-102206629D01*
X168685643Y-101774449D01*
X168121670Y-101540267D01*
X167511009Y-101539735D01*
X166946629Y-101772932D01*
X166514449Y-102204357D01*
X166280267Y-102768330D01*
X166279735Y-103378991D01*
X166512932Y-103943371D01*
X166944357Y-104375551D01*
X167508330Y-104609733D01*
X168118991Y-104610265D01*
X168229713Y-104564515D01*
X170945000Y-107279802D01*
X170945000Y-110095000D01*
X164899000Y-110095000D01*
X164608161Y-110152852D01*
X164361599Y-110317599D01*
X163547599Y-111131599D01*
X163454080Y-111271560D01*
X163235000Y-111271560D01*
X162999683Y-111315838D01*
X162783559Y-111454910D01*
X162638569Y-111667110D01*
X162587560Y-111919000D01*
X162587560Y-113919000D01*
X162631838Y-114154317D01*
X162669817Y-114213338D01*
X162646827Y-114190308D01*
X162303299Y-114047662D01*
X161931333Y-114047338D01*
X161587557Y-114189383D01*
X161554382Y-114222500D01*
X159657500Y-114222500D01*
X159366661Y-114280352D01*
X159120099Y-114445099D01*
X157258138Y-116307060D01*
X157227000Y-116300866D01*
X156811788Y-116383457D01*
X156746981Y-116426759D01*
X156658890Y-116366569D01*
X156407000Y-116315560D01*
X155507000Y-116315560D01*
X155271683Y-116359838D01*
X155055559Y-116498910D01*
X154910569Y-116711110D01*
X154859560Y-116963000D01*
X154859560Y-118463000D01*
X154903838Y-118698317D01*
X155042910Y-118914441D01*
X155255110Y-119059431D01*
X155507000Y-119110440D01*
X156407000Y-119110440D01*
X156642317Y-119066162D01*
X156746655Y-118999022D01*
X156811788Y-119042543D01*
X157227000Y-119125134D01*
X157642212Y-119042543D01*
X157866274Y-118892830D01*
X158202999Y-119057408D01*
X158370000Y-118930502D01*
X158370000Y-117840000D01*
X158624000Y-117840000D01*
X158624000Y-118930502D01*
X158791001Y-119057408D01*
X159174408Y-118870013D01*
X159450808Y-118545544D01*
X159582000Y-118140000D01*
X159582000Y-117840000D01*
X158624000Y-117840000D01*
X158370000Y-117840000D01*
X158350000Y-117840000D01*
X158350000Y-117586000D01*
X158370000Y-117586000D01*
X158370000Y-117566000D01*
X158624000Y-117566000D01*
X158624000Y-117586000D01*
X159582000Y-117586000D01*
X159582000Y-117286000D01*
X159450808Y-116880456D01*
X159174408Y-116555987D01*
X159163934Y-116550868D01*
X159972302Y-115742500D01*
X161554037Y-115742500D01*
X161586173Y-115774692D01*
X161929701Y-115917338D01*
X162301667Y-115917662D01*
X162613962Y-115788625D01*
X162587560Y-115919000D01*
X162587560Y-117919000D01*
X162631838Y-118154317D01*
X162770910Y-118370441D01*
X162983110Y-118515431D01*
X163235000Y-118566440D01*
X163863638Y-118566440D01*
X164026198Y-118729000D01*
X159452198Y-123303000D01*
X150242000Y-123303000D01*
X149951161Y-123360852D01*
X149704599Y-123525599D01*
X148701473Y-124528725D01*
X148536648Y-124460284D01*
X147886205Y-124459716D01*
X147285057Y-124708106D01*
X146824722Y-125167637D01*
X146575284Y-125768352D01*
X146574716Y-126418795D01*
X146823106Y-127019943D01*
X147092691Y-127290000D01*
X142827173Y-127290000D01*
X143095278Y-127022363D01*
X143344716Y-126421648D01*
X143345284Y-125771205D01*
X143096894Y-125170057D01*
X142637363Y-124709722D01*
X142036648Y-124460284D01*
X141386205Y-124459716D01*
X140785057Y-124708106D01*
X140324722Y-125167637D01*
X140075284Y-125768352D01*
X140074716Y-126418795D01*
X140323106Y-127019943D01*
X140592691Y-127290000D01*
X138390626Y-127290000D01*
X138715551Y-126965643D01*
X138949733Y-126401670D01*
X138950265Y-125791009D01*
X138717068Y-125226629D01*
X138549120Y-125058387D01*
X138550317Y-125058162D01*
X138766441Y-124919090D01*
X138911431Y-124706890D01*
X138962440Y-124455000D01*
X138962440Y-122747532D01*
X140737073Y-122747532D01*
X140835736Y-123014387D01*
X141445461Y-123240908D01*
X142095460Y-123216856D01*
X142584264Y-123014387D01*
X142682927Y-122747532D01*
X147237073Y-122747532D01*
X147335736Y-123014387D01*
X147945461Y-123240908D01*
X148595460Y-123216856D01*
X149084264Y-123014387D01*
X149182927Y-122747532D01*
X151047073Y-122747532D01*
X151145736Y-123014387D01*
X151755461Y-123240908D01*
X152405460Y-123216856D01*
X152894264Y-123014387D01*
X152992927Y-122747532D01*
X157547073Y-122747532D01*
X157645736Y-123014387D01*
X158255461Y-123240908D01*
X158905460Y-123216856D01*
X159394264Y-123014387D01*
X159492927Y-122747532D01*
X158520000Y-121774605D01*
X157547073Y-122747532D01*
X152992927Y-122747532D01*
X152020000Y-121774605D01*
X151047073Y-122747532D01*
X149182927Y-122747532D01*
X148210000Y-121774605D01*
X147237073Y-122747532D01*
X142682927Y-122747532D01*
X141710000Y-121774605D01*
X140737073Y-122747532D01*
X138962440Y-122747532D01*
X138962440Y-122655000D01*
X138918162Y-122419683D01*
X138779090Y-122203559D01*
X138566890Y-122058569D01*
X138315000Y-122007560D01*
X136515000Y-122007560D01*
X136279683Y-122051838D01*
X136063559Y-122190910D01*
X135918569Y-122403110D01*
X135867560Y-122655000D01*
X135867560Y-124455000D01*
X135911838Y-124690317D01*
X136050910Y-124906441D01*
X136263110Y-125051431D01*
X136283534Y-125055567D01*
X136114449Y-125224357D01*
X135880267Y-125788330D01*
X135879735Y-126398991D01*
X136112932Y-126963371D01*
X136438990Y-127290000D01*
X121069931Y-127290000D01*
X120511660Y-127178953D01*
X120097669Y-126902333D01*
X119821046Y-126488338D01*
X119710000Y-125930069D01*
X119710000Y-114735000D01*
X135967560Y-114735000D01*
X135967560Y-117135000D01*
X136011838Y-117370317D01*
X136150910Y-117586441D01*
X136363110Y-117731431D01*
X136615000Y-117782440D01*
X138215000Y-117782440D01*
X138450317Y-117738162D01*
X138666441Y-117599090D01*
X138811431Y-117386890D01*
X138846906Y-117211709D01*
X139030104Y-117439500D01*
X139523181Y-117709367D01*
X139605961Y-117726904D01*
X139828000Y-117604915D01*
X139828000Y-116062000D01*
X139808000Y-116062000D01*
X139808000Y-115808000D01*
X139828000Y-115808000D01*
X139828000Y-114265085D01*
X139605961Y-114143096D01*
X139523181Y-114160633D01*
X139030104Y-114430500D01*
X138847798Y-114657182D01*
X138818162Y-114499683D01*
X138679090Y-114283559D01*
X138466890Y-114138569D01*
X138215000Y-114087560D01*
X136615000Y-114087560D01*
X136379683Y-114131838D01*
X136163559Y-114270910D01*
X136018569Y-114483110D01*
X135967560Y-114735000D01*
X119710000Y-114735000D01*
X119710000Y-111040167D01*
X132669838Y-111040167D01*
X132811883Y-111383943D01*
X133074673Y-111647192D01*
X133418201Y-111789838D01*
X133790167Y-111790162D01*
X134133943Y-111648117D01*
X134167118Y-111615000D01*
X148568488Y-111615000D01*
X143930000Y-116253488D01*
X143930000Y-115499050D01*
X143820767Y-114949899D01*
X143509698Y-114484352D01*
X143044151Y-114173283D01*
X142495000Y-114064050D01*
X141945849Y-114173283D01*
X141480302Y-114484352D01*
X141227493Y-114862707D01*
X140879896Y-114430500D01*
X140386819Y-114160633D01*
X140304039Y-114143096D01*
X140082000Y-114265085D01*
X140082000Y-115808000D01*
X140102000Y-115808000D01*
X140102000Y-116062000D01*
X140082000Y-116062000D01*
X140082000Y-117604915D01*
X140304039Y-117726904D01*
X140386819Y-117709367D01*
X140879896Y-117439500D01*
X141227493Y-117007293D01*
X141480302Y-117385648D01*
X141945849Y-117696717D01*
X142397026Y-117786462D01*
X140675489Y-119507999D01*
X135926467Y-119507999D01*
X135896328Y-119477807D01*
X135552800Y-119335161D01*
X135180834Y-119334837D01*
X134837058Y-119476882D01*
X134573809Y-119739672D01*
X134431163Y-120083200D01*
X134430839Y-120455166D01*
X134572884Y-120798942D01*
X134835674Y-121062191D01*
X135179202Y-121204837D01*
X135551168Y-121205161D01*
X135894944Y-121063116D01*
X135926115Y-121031999D01*
X140174975Y-121031999D01*
X140064092Y-121330461D01*
X140088144Y-121980460D01*
X140290613Y-122469264D01*
X140557468Y-122567927D01*
X141530395Y-121595000D01*
X141889605Y-121595000D01*
X142862532Y-122567927D01*
X143129387Y-122469264D01*
X143355908Y-121859539D01*
X143336331Y-121330461D01*
X146564092Y-121330461D01*
X146588144Y-121980460D01*
X146790613Y-122469264D01*
X147057468Y-122567927D01*
X148030395Y-121595000D01*
X148389605Y-121595000D01*
X149362532Y-122567927D01*
X149629387Y-122469264D01*
X149855908Y-121859539D01*
X149836331Y-121330461D01*
X150374092Y-121330461D01*
X150398144Y-121980460D01*
X150600613Y-122469264D01*
X150867468Y-122567927D01*
X151840395Y-121595000D01*
X152199605Y-121595000D01*
X153172532Y-122567927D01*
X153439387Y-122469264D01*
X153665908Y-121859539D01*
X153646331Y-121330461D01*
X156874092Y-121330461D01*
X156898144Y-121980460D01*
X157100613Y-122469264D01*
X157367468Y-122567927D01*
X158340395Y-121595000D01*
X158699605Y-121595000D01*
X159672532Y-122567927D01*
X159939387Y-122469264D01*
X160165908Y-121859539D01*
X160141856Y-121209540D01*
X159939387Y-120720736D01*
X159672532Y-120622073D01*
X158699605Y-121595000D01*
X158340395Y-121595000D01*
X157367468Y-120622073D01*
X157100613Y-120720736D01*
X156874092Y-121330461D01*
X153646331Y-121330461D01*
X153641856Y-121209540D01*
X153439387Y-120720736D01*
X153172532Y-120622073D01*
X152199605Y-121595000D01*
X151840395Y-121595000D01*
X150867468Y-120622073D01*
X150600613Y-120720736D01*
X150374092Y-121330461D01*
X149836331Y-121330461D01*
X149831856Y-121209540D01*
X149629387Y-120720736D01*
X149362532Y-120622073D01*
X148389605Y-121595000D01*
X148030395Y-121595000D01*
X147057468Y-120622073D01*
X146790613Y-120720736D01*
X146564092Y-121330461D01*
X143336331Y-121330461D01*
X143331856Y-121209540D01*
X143129387Y-120720736D01*
X142862532Y-120622073D01*
X141889605Y-121595000D01*
X141530395Y-121595000D01*
X141516253Y-121580858D01*
X141695858Y-121401253D01*
X141710000Y-121415395D01*
X142682927Y-120442468D01*
X147237073Y-120442468D01*
X148210000Y-121415395D01*
X149182927Y-120442468D01*
X151047073Y-120442468D01*
X152020000Y-121415395D01*
X152992927Y-120442468D01*
X157547073Y-120442468D01*
X158520000Y-121415395D01*
X159492927Y-120442468D01*
X159394264Y-120175613D01*
X158784539Y-119949092D01*
X158134540Y-119973144D01*
X157645736Y-120175613D01*
X157547073Y-120442468D01*
X152992927Y-120442468D01*
X152894264Y-120175613D01*
X152284539Y-119949092D01*
X151634540Y-119973144D01*
X151145736Y-120175613D01*
X151047073Y-120442468D01*
X149182927Y-120442468D01*
X149084264Y-120175613D01*
X148474539Y-119949092D01*
X147824540Y-119973144D01*
X147335736Y-120175613D01*
X147237073Y-120442468D01*
X142682927Y-120442468D01*
X142584264Y-120175613D01*
X142277210Y-120061538D01*
X150215738Y-112123010D01*
X155958990Y-112123010D01*
X156250595Y-112065006D01*
X156497805Y-111899825D01*
X160417505Y-107980125D01*
X160460167Y-107980162D01*
X160803943Y-107838117D01*
X161067192Y-107575327D01*
X161209838Y-107231799D01*
X161210162Y-106859833D01*
X161122048Y-106646580D01*
X161311943Y-106568117D01*
X161575192Y-106305327D01*
X161717838Y-105961799D01*
X161718162Y-105589833D01*
X161576117Y-105246057D01*
X161313327Y-104982808D01*
X160969799Y-104840162D01*
X160597833Y-104839838D01*
X160254057Y-104981883D01*
X160220882Y-105015000D01*
X159905616Y-105015000D01*
X159614777Y-105072852D01*
X159368215Y-105237599D01*
X154510814Y-110095000D01*
X142952236Y-110095000D01*
X143044151Y-110076717D01*
X143509698Y-109765648D01*
X143820767Y-109300101D01*
X143930000Y-108750950D01*
X143930000Y-107879050D01*
X143820767Y-107329899D01*
X143509698Y-106864352D01*
X143044151Y-106553283D01*
X142495000Y-106444050D01*
X141945849Y-106553283D01*
X141480302Y-106864352D01*
X141225000Y-107246438D01*
X140969698Y-106864352D01*
X140504151Y-106553283D01*
X139955000Y-106444050D01*
X139405849Y-106553283D01*
X138940302Y-106864352D01*
X138685000Y-107246438D01*
X138429698Y-106864352D01*
X137964151Y-106553283D01*
X137415000Y-106444050D01*
X136865849Y-106553283D01*
X136400302Y-106864352D01*
X136089233Y-107329899D01*
X135980000Y-107879050D01*
X135980000Y-108750950D01*
X136089233Y-109300101D01*
X136400302Y-109765648D01*
X136865849Y-110076717D01*
X136957764Y-110095000D01*
X134167463Y-110095000D01*
X134135327Y-110062808D01*
X133791799Y-109920162D01*
X133419833Y-109919838D01*
X133076057Y-110061883D01*
X132812808Y-110324673D01*
X132670162Y-110668201D01*
X132669838Y-111040167D01*
X119710000Y-111040167D01*
X119710000Y-103620000D01*
X122832560Y-103620000D01*
X122832560Y-105970000D01*
X122876838Y-106205317D01*
X123015910Y-106421441D01*
X123228110Y-106566431D01*
X123480000Y-106617440D01*
X125830000Y-106617440D01*
X126065317Y-106573162D01*
X126281441Y-106434090D01*
X126426431Y-106221890D01*
X126477440Y-105970000D01*
X126477440Y-105153452D01*
X128044686Y-105153452D01*
X128319662Y-105818943D01*
X128828379Y-106328549D01*
X129493389Y-106604685D01*
X130213452Y-106605314D01*
X130878943Y-106330338D01*
X131388549Y-105821621D01*
X131664685Y-105156611D01*
X131665062Y-104725000D01*
X135951887Y-104725000D01*
X136061120Y-105274151D01*
X136372189Y-105739698D01*
X136837736Y-106050767D01*
X137386887Y-106160000D01*
X137443113Y-106160000D01*
X137992264Y-106050767D01*
X138457811Y-105739698D01*
X138768880Y-105274151D01*
X138821584Y-105009187D01*
X143599752Y-105009187D01*
X143817757Y-105536800D01*
X144221077Y-105940824D01*
X144748309Y-106159750D01*
X145319187Y-106160248D01*
X145846800Y-105942243D01*
X146250824Y-105538923D01*
X146469750Y-105011691D01*
X146470248Y-104440813D01*
X146352219Y-104155159D01*
X156914446Y-104155159D01*
X157000852Y-104411643D01*
X157574336Y-104621458D01*
X158184460Y-104595839D01*
X158629148Y-104411643D01*
X158715554Y-104155159D01*
X157815000Y-103254605D01*
X156914446Y-104155159D01*
X146352219Y-104155159D01*
X146252243Y-103913200D01*
X145848923Y-103509176D01*
X145321691Y-103290250D01*
X144750813Y-103289752D01*
X144223200Y-103507757D01*
X143819176Y-103911077D01*
X143600250Y-104438309D01*
X143599752Y-105009187D01*
X138821584Y-105009187D01*
X138878113Y-104725000D01*
X138768880Y-104175849D01*
X138457811Y-103710302D01*
X137992264Y-103399233D01*
X137443113Y-103290000D01*
X137386887Y-103290000D01*
X136837736Y-103399233D01*
X136372189Y-103710302D01*
X136061120Y-104175849D01*
X135951887Y-104725000D01*
X131665062Y-104725000D01*
X131665314Y-104436548D01*
X131390338Y-103771057D01*
X130881621Y-103261451D01*
X130216611Y-102985315D01*
X129496548Y-102984686D01*
X128831057Y-103259662D01*
X128321451Y-103768379D01*
X128045315Y-104433389D01*
X128044686Y-105153452D01*
X126477440Y-105153452D01*
X126477440Y-103620000D01*
X126433162Y-103384683D01*
X126294090Y-103168559D01*
X126081890Y-103023569D01*
X125830000Y-102972560D01*
X123480000Y-102972560D01*
X123244683Y-103016838D01*
X123028559Y-103155910D01*
X122883569Y-103368110D01*
X122832560Y-103620000D01*
X119710000Y-103620000D01*
X119710000Y-102834336D01*
X156268542Y-102834336D01*
X156294161Y-103444460D01*
X156478357Y-103889148D01*
X156734841Y-103975554D01*
X157635395Y-103075000D01*
X157994605Y-103075000D01*
X158895159Y-103975554D01*
X159151643Y-103889148D01*
X159361458Y-103315664D01*
X159335839Y-102705540D01*
X159151643Y-102260852D01*
X158895159Y-102174446D01*
X157994605Y-103075000D01*
X157635395Y-103075000D01*
X156734841Y-102174446D01*
X156478357Y-102260852D01*
X156268542Y-102834336D01*
X119710000Y-102834336D01*
X119710000Y-99795000D01*
X137137560Y-99795000D01*
X137137560Y-101595000D01*
X137181838Y-101830317D01*
X137320910Y-102046441D01*
X137533110Y-102191431D01*
X137785000Y-102242440D01*
X139585000Y-102242440D01*
X139820317Y-102198162D01*
X140036441Y-102059090D01*
X140181431Y-101846890D01*
X140184719Y-101830656D01*
X140607509Y-102113155D01*
X141194928Y-102230000D01*
X141255072Y-102230000D01*
X141842491Y-102113155D01*
X142340481Y-101780409D01*
X142495000Y-101549155D01*
X142649519Y-101780409D01*
X143147509Y-102113155D01*
X143734928Y-102230000D01*
X143795072Y-102230000D01*
X144382491Y-102113155D01*
X144559560Y-101994841D01*
X156914446Y-101994841D01*
X157815000Y-102895395D01*
X158715554Y-101994841D01*
X158629148Y-101738357D01*
X158055664Y-101528542D01*
X157445540Y-101554161D01*
X157000852Y-101738357D01*
X156914446Y-101994841D01*
X144559560Y-101994841D01*
X144880481Y-101780409D01*
X145213227Y-101282419D01*
X145330072Y-100695000D01*
X145213227Y-100107581D01*
X144880481Y-99609591D01*
X144382491Y-99276845D01*
X143795072Y-99160000D01*
X143734928Y-99160000D01*
X143147509Y-99276845D01*
X142649519Y-99609591D01*
X142495000Y-99840845D01*
X142340481Y-99609591D01*
X141842491Y-99276845D01*
X141255072Y-99160000D01*
X141194928Y-99160000D01*
X140607509Y-99276845D01*
X140186974Y-99557837D01*
X140049090Y-99343559D01*
X139836890Y-99198569D01*
X139585000Y-99147560D01*
X137785000Y-99147560D01*
X137549683Y-99191838D01*
X137333559Y-99330910D01*
X137188569Y-99543110D01*
X137137560Y-99795000D01*
X119710000Y-99795000D01*
X119710000Y-96953452D01*
X122844686Y-96953452D01*
X123119662Y-97618943D01*
X123628379Y-98128549D01*
X124293389Y-98404685D01*
X125013452Y-98405314D01*
X125678943Y-98130338D01*
X126188549Y-97621621D01*
X126464685Y-96956611D01*
X126464687Y-96953452D01*
X128044686Y-96953452D01*
X128319662Y-97618943D01*
X128828379Y-98128549D01*
X129493389Y-98404685D01*
X130213452Y-98405314D01*
X130878943Y-98130338D01*
X131388549Y-97621621D01*
X131664685Y-96956611D01*
X131665314Y-96236548D01*
X131390338Y-95571057D01*
X130881621Y-95061451D01*
X130216611Y-94785315D01*
X129496548Y-94784686D01*
X128831057Y-95059662D01*
X128321451Y-95568379D01*
X128045315Y-96233389D01*
X128044686Y-96953452D01*
X126464687Y-96953452D01*
X126465314Y-96236548D01*
X126190338Y-95571057D01*
X125681621Y-95061451D01*
X125016611Y-94785315D01*
X124296548Y-94784686D01*
X123631057Y-95059662D01*
X123121451Y-95568379D01*
X122845315Y-96233389D01*
X122844686Y-96953452D01*
X119710000Y-96953452D01*
X119710000Y-93075000D01*
X122616887Y-93075000D01*
X122726120Y-93624151D01*
X123037189Y-94089698D01*
X123502736Y-94400767D01*
X124051887Y-94510000D01*
X124108113Y-94510000D01*
X124657264Y-94400767D01*
X125122811Y-94089698D01*
X125433880Y-93624151D01*
X125486584Y-93359187D01*
X130264752Y-93359187D01*
X130482757Y-93886800D01*
X130886077Y-94290824D01*
X131413309Y-94509750D01*
X131984187Y-94510248D01*
X132511800Y-94292243D01*
X132915824Y-93888923D01*
X133134750Y-93361691D01*
X133135000Y-93075000D01*
X134681887Y-93075000D01*
X134791120Y-93624151D01*
X135102189Y-94089698D01*
X135567736Y-94400767D01*
X136116887Y-94510000D01*
X136173113Y-94510000D01*
X136722264Y-94400767D01*
X137187811Y-94089698D01*
X137498880Y-93624151D01*
X137551584Y-93359187D01*
X142329752Y-93359187D01*
X142547757Y-93886800D01*
X142951077Y-94290824D01*
X143478309Y-94509750D01*
X144049187Y-94510248D01*
X144576800Y-94292243D01*
X144980824Y-93888923D01*
X145199750Y-93361691D01*
X145200248Y-92790813D01*
X144982243Y-92263200D01*
X144578923Y-91859176D01*
X144051691Y-91640250D01*
X143480813Y-91639752D01*
X142953200Y-91857757D01*
X142549176Y-92261077D01*
X142330250Y-92788309D01*
X142329752Y-93359187D01*
X137551584Y-93359187D01*
X137608113Y-93075000D01*
X137498880Y-92525849D01*
X137187811Y-92060302D01*
X136722264Y-91749233D01*
X136173113Y-91640000D01*
X136116887Y-91640000D01*
X135567736Y-91749233D01*
X135102189Y-92060302D01*
X134791120Y-92525849D01*
X134681887Y-93075000D01*
X133135000Y-93075000D01*
X133135248Y-92790813D01*
X132917243Y-92263200D01*
X132513923Y-91859176D01*
X131986691Y-91640250D01*
X131415813Y-91639752D01*
X130888200Y-91857757D01*
X130484176Y-92261077D01*
X130265250Y-92788309D01*
X130264752Y-93359187D01*
X125486584Y-93359187D01*
X125543113Y-93075000D01*
X125433880Y-92525849D01*
X125122811Y-92060302D01*
X124657264Y-91749233D01*
X124108113Y-91640000D01*
X124051887Y-91640000D01*
X123502736Y-91749233D01*
X123037189Y-92060302D01*
X122726120Y-92525849D01*
X122616887Y-93075000D01*
X119710000Y-93075000D01*
X119710000Y-84548403D01*
X125539682Y-84548403D01*
X125818455Y-85223086D01*
X126334199Y-85739730D01*
X127008395Y-86019681D01*
X127738403Y-86020318D01*
X128413086Y-85741545D01*
X128929730Y-85225801D01*
X129200731Y-84573158D01*
X132914660Y-84573158D01*
X133212424Y-85293801D01*
X133763299Y-85845639D01*
X134483421Y-86144659D01*
X135263158Y-86145340D01*
X135983801Y-85847576D01*
X136535639Y-85296701D01*
X136834659Y-84576579D01*
X136834683Y-84548403D01*
X140539682Y-84548403D01*
X140818455Y-85223086D01*
X141334199Y-85739730D01*
X142008395Y-86019681D01*
X142738403Y-86020318D01*
X143413086Y-85741545D01*
X143929730Y-85225801D01*
X144209681Y-84551605D01*
X144210318Y-83821597D01*
X143931545Y-83146914D01*
X143415801Y-82630270D01*
X142741605Y-82350319D01*
X142011597Y-82349682D01*
X141336914Y-82628455D01*
X140820270Y-83144199D01*
X140540319Y-83818395D01*
X140539682Y-84548403D01*
X136834683Y-84548403D01*
X136835340Y-83796842D01*
X136537576Y-83076199D01*
X135986701Y-82524361D01*
X135266579Y-82225341D01*
X134486842Y-82224660D01*
X133766199Y-82522424D01*
X133214361Y-83073299D01*
X132915341Y-83793421D01*
X132914660Y-84573158D01*
X129200731Y-84573158D01*
X129209681Y-84551605D01*
X129210318Y-83821597D01*
X128931545Y-83146914D01*
X128415801Y-82630270D01*
X127741605Y-82350319D01*
X127011597Y-82349682D01*
X126336914Y-82628455D01*
X125820270Y-83144199D01*
X125540319Y-83818395D01*
X125539682Y-84548403D01*
X119710000Y-84548403D01*
X119710000Y-82175000D01*
X151267560Y-82175000D01*
X151267560Y-83975000D01*
X151311838Y-84210317D01*
X151450910Y-84426441D01*
X151663110Y-84571431D01*
X151915000Y-84622440D01*
X153715000Y-84622440D01*
X153950317Y-84578162D01*
X154166441Y-84439090D01*
X154311431Y-84226890D01*
X154362440Y-83975000D01*
X154362440Y-83378991D01*
X171279735Y-83378991D01*
X171512932Y-83943371D01*
X171944357Y-84375551D01*
X172508330Y-84609733D01*
X173118991Y-84610265D01*
X173683371Y-84377068D01*
X174115551Y-83945643D01*
X174349733Y-83381670D01*
X174350265Y-82771009D01*
X174117068Y-82206629D01*
X173685643Y-81774449D01*
X173121670Y-81540267D01*
X172511009Y-81539735D01*
X171946629Y-81772932D01*
X171514449Y-82204357D01*
X171280267Y-82768330D01*
X171279735Y-83378991D01*
X154362440Y-83378991D01*
X154362440Y-82175000D01*
X154318162Y-81939683D01*
X154179090Y-81723559D01*
X153966890Y-81578569D01*
X153715000Y-81527560D01*
X151915000Y-81527560D01*
X151679683Y-81571838D01*
X151463559Y-81710910D01*
X151318569Y-81923110D01*
X151267560Y-82175000D01*
X119710000Y-82175000D01*
X119710000Y-74578011D01*
X123474648Y-74578011D01*
X123783805Y-75326229D01*
X124355760Y-75899183D01*
X125103438Y-76209646D01*
X125913011Y-76210352D01*
X126661229Y-75901195D01*
X127234183Y-75329240D01*
X127544646Y-74581562D01*
X127544649Y-74578011D01*
X133474648Y-74578011D01*
X133783805Y-75326229D01*
X134355760Y-75899183D01*
X135103438Y-76209646D01*
X135913011Y-76210352D01*
X136661229Y-75901195D01*
X137234183Y-75329240D01*
X137544646Y-74581562D01*
X137545352Y-73771989D01*
X137236195Y-73023771D01*
X136987858Y-72775000D01*
X143462560Y-72775000D01*
X143462560Y-75575000D01*
X143506838Y-75810317D01*
X143645910Y-76026441D01*
X143858110Y-76171431D01*
X144110000Y-76222440D01*
X146910000Y-76222440D01*
X147145317Y-76178162D01*
X147361441Y-76039090D01*
X147506431Y-75826890D01*
X147557440Y-75575000D01*
X147557440Y-74578011D01*
X150779648Y-74578011D01*
X151088805Y-75326229D01*
X151660760Y-75899183D01*
X152408438Y-76209646D01*
X153218011Y-76210352D01*
X153966229Y-75901195D01*
X154539183Y-75329240D01*
X154849646Y-74581562D01*
X154849649Y-74578011D01*
X160779648Y-74578011D01*
X161088805Y-75326229D01*
X161660760Y-75899183D01*
X162408438Y-76209646D01*
X163218011Y-76210352D01*
X163966229Y-75901195D01*
X164539183Y-75329240D01*
X164849646Y-74581562D01*
X164850352Y-73771989D01*
X164541195Y-73023771D01*
X164292858Y-72775000D01*
X170767560Y-72775000D01*
X170767560Y-75575000D01*
X170811838Y-75810317D01*
X170950910Y-76026441D01*
X171163110Y-76171431D01*
X171415000Y-76222440D01*
X174215000Y-76222440D01*
X174450317Y-76178162D01*
X174666441Y-76039090D01*
X174811431Y-75826890D01*
X174862440Y-75575000D01*
X174862440Y-72775000D01*
X174818162Y-72539683D01*
X174679090Y-72323559D01*
X174466890Y-72178569D01*
X174215000Y-72127560D01*
X171415000Y-72127560D01*
X171179683Y-72171838D01*
X170963559Y-72310910D01*
X170818569Y-72523110D01*
X170767560Y-72775000D01*
X164292858Y-72775000D01*
X163969240Y-72450817D01*
X163221562Y-72140354D01*
X162411989Y-72139648D01*
X161663771Y-72448805D01*
X161090817Y-73020760D01*
X160780354Y-73768438D01*
X160779648Y-74578011D01*
X154849649Y-74578011D01*
X154850352Y-73771989D01*
X154541195Y-73023771D01*
X153969240Y-72450817D01*
X153221562Y-72140354D01*
X152411989Y-72139648D01*
X151663771Y-72448805D01*
X151090817Y-73020760D01*
X150780354Y-73768438D01*
X150779648Y-74578011D01*
X147557440Y-74578011D01*
X147557440Y-72775000D01*
X147513162Y-72539683D01*
X147374090Y-72323559D01*
X147161890Y-72178569D01*
X146910000Y-72127560D01*
X144110000Y-72127560D01*
X143874683Y-72171838D01*
X143658559Y-72310910D01*
X143513569Y-72523110D01*
X143462560Y-72775000D01*
X136987858Y-72775000D01*
X136664240Y-72450817D01*
X135916562Y-72140354D01*
X135106989Y-72139648D01*
X134358771Y-72448805D01*
X133785817Y-73020760D01*
X133475354Y-73768438D01*
X133474648Y-74578011D01*
X127544649Y-74578011D01*
X127545352Y-73771989D01*
X127236195Y-73023771D01*
X126664240Y-72450817D01*
X125916562Y-72140354D01*
X125106989Y-72139648D01*
X124358771Y-72448805D01*
X123785817Y-73020760D01*
X123475354Y-73768438D01*
X123474648Y-74578011D01*
X119710000Y-74578011D01*
X119710000Y-70069931D01*
X119821046Y-69511662D01*
X120097669Y-69097667D01*
X120511660Y-68821047D01*
X121069931Y-68710000D01*
X176930069Y-68710000D01*
X177488338Y-68821046D01*
M02*
