G04 #@! TF.FileFunction,Soldermask,Bot*
%FSLAX46Y46*%
G04 Gerber Fmt 4.6, Leading zero omitted, Abs format (unit mm)*
G04 Created by KiCad (PCBNEW 4.0.7) date Sun Sep 17 21:26:38 2017*
%MOMM*%
%LPD*%
G01*
G04 APERTURE LIST*
%ADD10C,0.100000*%
%ADD11R,2.100000X2.100000*%
%ADD12O,2.100000X2.100000*%
%ADD13C,3.200000*%
%ADD14R,3.200000X3.200000*%
%ADD15R,2.000000X2.400000*%
%ADD16R,2.750000X2.750000*%
%ADD17C,2.750000*%
%ADD18R,2.200000X2.200000*%
%ADD19C,2.200000*%
%ADD20C,2.800000*%
%ADD21C,3.050000*%
%ADD22O,1.300000X1.900000*%
%ADD23R,1.300000X1.900000*%
%ADD24R,2.100000X2.400000*%
%ADD25C,2.000000*%
%ADD26O,2.000000X2.000000*%
%ADD27C,2.400000*%
%ADD28R,2.000000X2.800000*%
%ADD29O,2.000000X2.800000*%
%ADD30O,2.200000X2.200000*%
G04 APERTURE END LIST*
D10*
D11*
X164085000Y-124825000D03*
D12*
X166625000Y-124825000D03*
X169165000Y-124825000D03*
X171705000Y-124825000D03*
X174245000Y-124825000D03*
X176785000Y-124825000D03*
D13*
X162815000Y-74175000D03*
D14*
X172815000Y-74175000D03*
D13*
X152815000Y-74175000D03*
D15*
X166625000Y-116951000D03*
X166625000Y-112951000D03*
X171705000Y-112951000D03*
X171705000Y-116951000D03*
X174245000Y-112951000D03*
X174245000Y-116951000D03*
D16*
X124655000Y-104795000D03*
D17*
X129855000Y-96595000D03*
X129855000Y-104795000D03*
X124655000Y-96595000D03*
D18*
X137415000Y-123555000D03*
D19*
X137415000Y-126095000D03*
D20*
X142375000Y-84185000D03*
X127375000Y-84185000D03*
D21*
X134875000Y-84185000D03*
D13*
X135510000Y-74175000D03*
D14*
X145510000Y-74175000D03*
D13*
X125510000Y-74175000D03*
D22*
X157227000Y-117713000D03*
X158497000Y-117713000D03*
D23*
X155957000Y-117713000D03*
D24*
X164085000Y-112919000D03*
X164085000Y-116919000D03*
X169165000Y-116951000D03*
X169165000Y-112951000D03*
D25*
X136144000Y-93075000D03*
D26*
X143764000Y-93075000D03*
D25*
X131700000Y-93075000D03*
D26*
X124080000Y-93075000D03*
D25*
X145035000Y-104725000D03*
D26*
X137415000Y-104725000D03*
D27*
X141710000Y-126095000D03*
X141710000Y-121595000D03*
X148210000Y-126095000D03*
X148210000Y-121595000D03*
X152020000Y-126095000D03*
X152020000Y-121595000D03*
X158520000Y-126095000D03*
X158520000Y-121595000D03*
D18*
X152815000Y-83075000D03*
D19*
X172815000Y-83075000D03*
X167815000Y-103075000D03*
X157815000Y-103075000D03*
D28*
X137415000Y-115935000D03*
D29*
X142495000Y-108315000D03*
X139955000Y-115935000D03*
X139955000Y-108315000D03*
X142495000Y-115935000D03*
X137415000Y-108315000D03*
D18*
X138303000Y-99695000D03*
D30*
X140843000Y-99695000D03*
X143383000Y-99695000D03*
M02*
