G04 #@! TF.FileFunction,Legend,Bot*
%FSLAX46Y46*%
G04 Gerber Fmt 4.6, Leading zero omitted, Abs format (unit mm)*
G04 Created by KiCad (PCBNEW 4.0.7) date Sun Sep 17 14:25:38 2017*
%MOMM*%
%LPD*%
G01*
G04 APERTURE LIST*
%ADD10C,0.100000*%
%ADD11C,0.300000*%
%ADD12C,0.120000*%
%ADD13C,0.150000*%
G04 APERTURE END LIST*
D10*
D11*
X170403571Y-88176571D02*
X170403571Y-86676571D01*
X170260714Y-87605143D02*
X169832143Y-88176571D01*
X169832143Y-87176571D02*
X170403571Y-87748000D01*
X169189285Y-88176571D02*
X169189285Y-87176571D01*
X169189285Y-86676571D02*
X169260714Y-86748000D01*
X169189285Y-86819429D01*
X169117857Y-86748000D01*
X169189285Y-86676571D01*
X169189285Y-86819429D01*
X167832142Y-88176571D02*
X167832142Y-87390857D01*
X167903571Y-87248000D01*
X168046428Y-87176571D01*
X168332142Y-87176571D01*
X168474999Y-87248000D01*
X167832142Y-88105143D02*
X167974999Y-88176571D01*
X168332142Y-88176571D01*
X168474999Y-88105143D01*
X168546428Y-87962286D01*
X168546428Y-87819429D01*
X168474999Y-87676571D01*
X168332142Y-87605143D01*
X167974999Y-87605143D01*
X167832142Y-87533714D01*
X166903570Y-88176571D02*
X167046428Y-88105143D01*
X167117856Y-87962286D01*
X167117856Y-86676571D01*
X166117856Y-88176571D02*
X166260714Y-88105143D01*
X166332142Y-87962286D01*
X166332142Y-86676571D01*
X165546428Y-88033714D02*
X165475000Y-88105143D01*
X165546428Y-88176571D01*
X165617857Y-88105143D01*
X165546428Y-88033714D01*
X165546428Y-88176571D01*
X164832142Y-88176571D02*
X164832142Y-87176571D01*
X164832142Y-87319429D02*
X164760714Y-87248000D01*
X164617856Y-87176571D01*
X164403571Y-87176571D01*
X164260714Y-87248000D01*
X164189285Y-87390857D01*
X164189285Y-88176571D01*
X164189285Y-87390857D02*
X164117856Y-87248000D01*
X163974999Y-87176571D01*
X163760714Y-87176571D01*
X163617856Y-87248000D01*
X163546428Y-87390857D01*
X163546428Y-88176571D01*
X162189285Y-88176571D02*
X162189285Y-87390857D01*
X162260714Y-87248000D01*
X162403571Y-87176571D01*
X162689285Y-87176571D01*
X162832142Y-87248000D01*
X162189285Y-88105143D02*
X162332142Y-88176571D01*
X162689285Y-88176571D01*
X162832142Y-88105143D01*
X162903571Y-87962286D01*
X162903571Y-87819429D01*
X162832142Y-87676571D01*
X162689285Y-87605143D01*
X162332142Y-87605143D01*
X162189285Y-87533714D01*
X160832142Y-88105143D02*
X160974999Y-88176571D01*
X161260713Y-88176571D01*
X161403571Y-88105143D01*
X161474999Y-88033714D01*
X161546428Y-87890857D01*
X161546428Y-87462286D01*
X161474999Y-87319429D01*
X161403571Y-87248000D01*
X161260713Y-87176571D01*
X160974999Y-87176571D01*
X160832142Y-87248000D01*
X160189285Y-88176571D02*
X160189285Y-87176571D01*
X160189285Y-86676571D02*
X160260714Y-86748000D01*
X160189285Y-86819429D01*
X160117857Y-86748000D01*
X160189285Y-86676571D01*
X160189285Y-86819429D01*
X159474999Y-87176571D02*
X159474999Y-88176571D01*
X159474999Y-87319429D02*
X159403571Y-87248000D01*
X159260713Y-87176571D01*
X159046428Y-87176571D01*
X158903571Y-87248000D01*
X158832142Y-87390857D01*
X158832142Y-88176571D01*
X158117856Y-87176571D02*
X158117856Y-88176571D01*
X158117856Y-87319429D02*
X158046428Y-87248000D01*
X157903570Y-87176571D01*
X157689285Y-87176571D01*
X157546428Y-87248000D01*
X157474999Y-87390857D01*
X157474999Y-88176571D01*
X156189285Y-88105143D02*
X156332142Y-88176571D01*
X156617856Y-88176571D01*
X156760713Y-88105143D01*
X156832142Y-87962286D01*
X156832142Y-87390857D01*
X156760713Y-87248000D01*
X156617856Y-87176571D01*
X156332142Y-87176571D01*
X156189285Y-87248000D01*
X156117856Y-87390857D01*
X156117856Y-87533714D01*
X156832142Y-87676571D01*
X155546428Y-88105143D02*
X155403571Y-88176571D01*
X155117856Y-88176571D01*
X154974999Y-88105143D01*
X154903571Y-87962286D01*
X154903571Y-87890857D01*
X154974999Y-87748000D01*
X155117856Y-87676571D01*
X155332142Y-87676571D01*
X155474999Y-87605143D01*
X155546428Y-87462286D01*
X155546428Y-87390857D01*
X155474999Y-87248000D01*
X155332142Y-87176571D01*
X155117856Y-87176571D01*
X154974999Y-87248000D01*
X154260713Y-88033714D02*
X154189285Y-88105143D01*
X154260713Y-88176571D01*
X154332142Y-88105143D01*
X154260713Y-88033714D01*
X154260713Y-88176571D01*
X153546427Y-88176571D02*
X153546427Y-87176571D01*
X153546427Y-86676571D02*
X153617856Y-86748000D01*
X153546427Y-86819429D01*
X153474999Y-86748000D01*
X153546427Y-86676571D01*
X153546427Y-86819429D01*
X152260713Y-88105143D02*
X152403570Y-88176571D01*
X152689284Y-88176571D01*
X152832141Y-88105143D01*
X152903570Y-87962286D01*
X152903570Y-87390857D01*
X152832141Y-87248000D01*
X152689284Y-87176571D01*
X152403570Y-87176571D01*
X152260713Y-87248000D01*
X152189284Y-87390857D01*
X152189284Y-87533714D01*
X152903570Y-87676571D01*
X150474999Y-86605143D02*
X151760713Y-88533714D01*
X149974998Y-87176571D02*
X149974998Y-88676571D01*
X149974998Y-87248000D02*
X149832141Y-87176571D01*
X149546427Y-87176571D01*
X149403570Y-87248000D01*
X149332141Y-87319429D01*
X149260712Y-87462286D01*
X149260712Y-87890857D01*
X149332141Y-88033714D01*
X149403570Y-88105143D01*
X149546427Y-88176571D01*
X149832141Y-88176571D01*
X149974998Y-88105143D01*
X147546427Y-86605143D02*
X148832141Y-88533714D01*
X146474998Y-88105143D02*
X146617855Y-88176571D01*
X146903569Y-88176571D01*
X147046426Y-88105143D01*
X147117855Y-87962286D01*
X147117855Y-87390857D01*
X147046426Y-87248000D01*
X146903569Y-87176571D01*
X146617855Y-87176571D01*
X146474998Y-87248000D01*
X146403569Y-87390857D01*
X146403569Y-87533714D01*
X147117855Y-87676571D01*
X145832141Y-88105143D02*
X145689284Y-88176571D01*
X145403569Y-88176571D01*
X145260712Y-88105143D01*
X145189284Y-87962286D01*
X145189284Y-87890857D01*
X145260712Y-87748000D01*
X145403569Y-87676571D01*
X145617855Y-87676571D01*
X145760712Y-87605143D01*
X145832141Y-87462286D01*
X145832141Y-87390857D01*
X145760712Y-87248000D01*
X145617855Y-87176571D01*
X145403569Y-87176571D01*
X145260712Y-87248000D01*
X144546426Y-87176571D02*
X144546426Y-88676571D01*
X144546426Y-87248000D02*
X144403569Y-87176571D01*
X144117855Y-87176571D01*
X143974998Y-87248000D01*
X143903569Y-87319429D01*
X143832140Y-87462286D01*
X143832140Y-87890857D01*
X143903569Y-88033714D01*
X143974998Y-88105143D01*
X144117855Y-88176571D01*
X144403569Y-88176571D01*
X144546426Y-88105143D01*
X142974997Y-87319429D02*
X143117855Y-87248000D01*
X143189283Y-87176571D01*
X143260712Y-87033714D01*
X143260712Y-86962286D01*
X143189283Y-86819429D01*
X143117855Y-86748000D01*
X142974997Y-86676571D01*
X142689283Y-86676571D01*
X142546426Y-86748000D01*
X142474997Y-86819429D01*
X142403569Y-86962286D01*
X142403569Y-87033714D01*
X142474997Y-87176571D01*
X142546426Y-87248000D01*
X142689283Y-87319429D01*
X142974997Y-87319429D01*
X143117855Y-87390857D01*
X143189283Y-87462286D01*
X143260712Y-87605143D01*
X143260712Y-87890857D01*
X143189283Y-88033714D01*
X143117855Y-88105143D01*
X142974997Y-88176571D01*
X142689283Y-88176571D01*
X142546426Y-88105143D01*
X142474997Y-88033714D01*
X142403569Y-87890857D01*
X142403569Y-87605143D01*
X142474997Y-87462286D01*
X142546426Y-87390857D01*
X142689283Y-87319429D01*
X141832141Y-86819429D02*
X141760712Y-86748000D01*
X141617855Y-86676571D01*
X141260712Y-86676571D01*
X141117855Y-86748000D01*
X141046426Y-86819429D01*
X140974998Y-86962286D01*
X140974998Y-87105143D01*
X141046426Y-87319429D01*
X141903569Y-88176571D01*
X140974998Y-88176571D01*
X139689284Y-86676571D02*
X139974998Y-86676571D01*
X140117855Y-86748000D01*
X140189284Y-86819429D01*
X140332141Y-87033714D01*
X140403570Y-87319429D01*
X140403570Y-87890857D01*
X140332141Y-88033714D01*
X140260713Y-88105143D01*
X140117855Y-88176571D01*
X139832141Y-88176571D01*
X139689284Y-88105143D01*
X139617855Y-88033714D01*
X139546427Y-87890857D01*
X139546427Y-87533714D01*
X139617855Y-87390857D01*
X139689284Y-87319429D01*
X139832141Y-87248000D01*
X140117855Y-87248000D01*
X140260713Y-87319429D01*
X140332141Y-87390857D01*
X140403570Y-87533714D01*
X138260713Y-86676571D02*
X138546427Y-86676571D01*
X138689284Y-86748000D01*
X138760713Y-86819429D01*
X138903570Y-87033714D01*
X138974999Y-87319429D01*
X138974999Y-87890857D01*
X138903570Y-88033714D01*
X138832142Y-88105143D01*
X138689284Y-88176571D01*
X138403570Y-88176571D01*
X138260713Y-88105143D01*
X138189284Y-88033714D01*
X138117856Y-87890857D01*
X138117856Y-87533714D01*
X138189284Y-87390857D01*
X138260713Y-87319429D01*
X138403570Y-87248000D01*
X138689284Y-87248000D01*
X138832142Y-87319429D01*
X138903570Y-87390857D01*
X138974999Y-87533714D01*
X137474999Y-87605143D02*
X136332142Y-87605143D01*
X134974999Y-88176571D02*
X134974999Y-86676571D01*
X134974999Y-88105143D02*
X135117856Y-88176571D01*
X135403570Y-88176571D01*
X135546428Y-88105143D01*
X135617856Y-88033714D01*
X135689285Y-87890857D01*
X135689285Y-87462286D01*
X135617856Y-87319429D01*
X135546428Y-87248000D01*
X135403570Y-87176571D01*
X135117856Y-87176571D01*
X134974999Y-87248000D01*
X134260713Y-88176571D02*
X134260713Y-87176571D01*
X134260713Y-86676571D02*
X134332142Y-86748000D01*
X134260713Y-86819429D01*
X134189285Y-86748000D01*
X134260713Y-86676571D01*
X134260713Y-86819429D01*
X133546427Y-88176571D02*
X133546427Y-87176571D01*
X133546427Y-87319429D02*
X133474999Y-87248000D01*
X133332141Y-87176571D01*
X133117856Y-87176571D01*
X132974999Y-87248000D01*
X132903570Y-87390857D01*
X132903570Y-88176571D01*
X132903570Y-87390857D02*
X132832141Y-87248000D01*
X132689284Y-87176571D01*
X132474999Y-87176571D01*
X132332141Y-87248000D01*
X132260713Y-87390857D01*
X132260713Y-88176571D01*
X131546427Y-88176571D02*
X131546427Y-87176571D01*
X131546427Y-87319429D02*
X131474999Y-87248000D01*
X131332141Y-87176571D01*
X131117856Y-87176571D01*
X130974999Y-87248000D01*
X130903570Y-87390857D01*
X130903570Y-88176571D01*
X130903570Y-87390857D02*
X130832141Y-87248000D01*
X130689284Y-87176571D01*
X130474999Y-87176571D01*
X130332141Y-87248000D01*
X130260713Y-87390857D01*
X130260713Y-88176571D01*
X128974999Y-88105143D02*
X129117856Y-88176571D01*
X129403570Y-88176571D01*
X129546427Y-88105143D01*
X129617856Y-87962286D01*
X129617856Y-87390857D01*
X129546427Y-87248000D01*
X129403570Y-87176571D01*
X129117856Y-87176571D01*
X128974999Y-87248000D01*
X128903570Y-87390857D01*
X128903570Y-87533714D01*
X129617856Y-87676571D01*
X128260713Y-88176571D02*
X128260713Y-87176571D01*
X128260713Y-87462286D02*
X128189285Y-87319429D01*
X128117856Y-87248000D01*
X127974999Y-87176571D01*
X127832142Y-87176571D01*
X151367856Y-89726571D02*
X151010713Y-90726571D01*
X150653571Y-89726571D01*
X149296428Y-90726571D02*
X150153571Y-90726571D01*
X149724999Y-90726571D02*
X149724999Y-89226571D01*
X149867856Y-89440857D01*
X150010714Y-89583714D01*
X150153571Y-89655143D01*
X148653571Y-90583714D02*
X148582143Y-90655143D01*
X148653571Y-90726571D01*
X148725000Y-90655143D01*
X148653571Y-90583714D01*
X148653571Y-90726571D01*
X147653571Y-89226571D02*
X147510714Y-89226571D01*
X147367857Y-89298000D01*
X147296428Y-89369429D01*
X147224999Y-89512286D01*
X147153571Y-89798000D01*
X147153571Y-90155143D01*
X147224999Y-90440857D01*
X147296428Y-90583714D01*
X147367857Y-90655143D01*
X147510714Y-90726571D01*
X147653571Y-90726571D01*
X147796428Y-90655143D01*
X147867857Y-90583714D01*
X147939285Y-90440857D01*
X148010714Y-90155143D01*
X148010714Y-89798000D01*
X147939285Y-89512286D01*
X147867857Y-89369429D01*
X147796428Y-89298000D01*
X147653571Y-89226571D01*
D12*
X167645000Y-113951000D02*
X167645000Y-115951000D01*
X165605000Y-115951000D02*
X165605000Y-113951000D01*
X170685000Y-115951000D02*
X170685000Y-113951000D01*
X172725000Y-113951000D02*
X172725000Y-115951000D01*
X173225000Y-115951000D02*
X173225000Y-113951000D01*
X175265000Y-113951000D02*
X175265000Y-115951000D01*
X165155000Y-115919000D02*
X165155000Y-113919000D01*
X163015000Y-113919000D02*
X163015000Y-115919000D01*
X168095000Y-113951000D02*
X168095000Y-115951000D01*
X170235000Y-115951000D02*
X170235000Y-113951000D01*
D13*
X166791666Y-115308143D02*
X166839285Y-115355762D01*
X166982142Y-115403381D01*
X167077380Y-115403381D01*
X167220238Y-115355762D01*
X167315476Y-115260524D01*
X167363095Y-115165286D01*
X167410714Y-114974810D01*
X167410714Y-114831952D01*
X167363095Y-114641476D01*
X167315476Y-114546238D01*
X167220238Y-114451000D01*
X167077380Y-114403381D01*
X166982142Y-114403381D01*
X166839285Y-114451000D01*
X166791666Y-114498619D01*
X165839285Y-115403381D02*
X166410714Y-115403381D01*
X166125000Y-115403381D02*
X166125000Y-114403381D01*
X166220238Y-114546238D01*
X166315476Y-114641476D01*
X166410714Y-114689095D01*
X171871666Y-115213143D02*
X171919285Y-115260762D01*
X172062142Y-115308381D01*
X172157380Y-115308381D01*
X172300238Y-115260762D01*
X172395476Y-115165524D01*
X172443095Y-115070286D01*
X172490714Y-114879810D01*
X172490714Y-114736952D01*
X172443095Y-114546476D01*
X172395476Y-114451238D01*
X172300238Y-114356000D01*
X172157380Y-114308381D01*
X172062142Y-114308381D01*
X171919285Y-114356000D01*
X171871666Y-114403619D01*
X171490714Y-114403619D02*
X171443095Y-114356000D01*
X171347857Y-114308381D01*
X171109761Y-114308381D01*
X171014523Y-114356000D01*
X170966904Y-114403619D01*
X170919285Y-114498857D01*
X170919285Y-114594095D01*
X170966904Y-114736952D01*
X171538333Y-115308381D01*
X170919285Y-115308381D01*
X174411666Y-115308143D02*
X174459285Y-115355762D01*
X174602142Y-115403381D01*
X174697380Y-115403381D01*
X174840238Y-115355762D01*
X174935476Y-115260524D01*
X174983095Y-115165286D01*
X175030714Y-114974810D01*
X175030714Y-114831952D01*
X174983095Y-114641476D01*
X174935476Y-114546238D01*
X174840238Y-114451000D01*
X174697380Y-114403381D01*
X174602142Y-114403381D01*
X174459285Y-114451000D01*
X174411666Y-114498619D01*
X174078333Y-114403381D02*
X173459285Y-114403381D01*
X173792619Y-114784333D01*
X173649761Y-114784333D01*
X173554523Y-114831952D01*
X173506904Y-114879571D01*
X173459285Y-114974810D01*
X173459285Y-115212905D01*
X173506904Y-115308143D01*
X173554523Y-115355762D01*
X173649761Y-115403381D01*
X173935476Y-115403381D01*
X174030714Y-115355762D01*
X174078333Y-115308143D01*
X164251666Y-115371381D02*
X164585000Y-114895190D01*
X164823095Y-115371381D02*
X164823095Y-114371381D01*
X164442142Y-114371381D01*
X164346904Y-114419000D01*
X164299285Y-114466619D01*
X164251666Y-114561857D01*
X164251666Y-114704714D01*
X164299285Y-114799952D01*
X164346904Y-114847571D01*
X164442142Y-114895190D01*
X164823095Y-114895190D01*
X163299285Y-115371381D02*
X163870714Y-115371381D01*
X163585000Y-115371381D02*
X163585000Y-114371381D01*
X163680238Y-114514238D01*
X163775476Y-114609476D01*
X163870714Y-114657095D01*
X169331666Y-115403381D02*
X169665000Y-114927190D01*
X169903095Y-115403381D02*
X169903095Y-114403381D01*
X169522142Y-114403381D01*
X169426904Y-114451000D01*
X169379285Y-114498619D01*
X169331666Y-114593857D01*
X169331666Y-114736714D01*
X169379285Y-114831952D01*
X169426904Y-114879571D01*
X169522142Y-114927190D01*
X169903095Y-114927190D01*
X168426904Y-114403381D02*
X168903095Y-114403381D01*
X168950714Y-114879571D01*
X168903095Y-114831952D01*
X168807857Y-114784333D01*
X168569761Y-114784333D01*
X168474523Y-114831952D01*
X168426904Y-114879571D01*
X168379285Y-114974810D01*
X168379285Y-115212905D01*
X168426904Y-115308143D01*
X168474523Y-115355762D01*
X168569761Y-115403381D01*
X168807857Y-115403381D01*
X168903095Y-115355762D01*
X168950714Y-115308143D01*
M02*
