G04 #@! TF.FileFunction,Legend,Top*
%FSLAX46Y46*%
G04 Gerber Fmt 4.6, Leading zero omitted, Abs format (unit mm)*
G04 Created by KiCad (PCBNEW 4.0.7) date Sun Oct 15 11:09:15 2017*
%MOMM*%
%LPD*%
G01*
G04 APERTURE LIST*
%ADD10C,0.100000*%
%ADD11C,0.187500*%
%ADD12C,0.300000*%
%ADD13C,0.066040*%
%ADD14C,0.127000*%
%ADD15C,0.120000*%
%ADD16C,0.150000*%
%ADD17C,0.101600*%
G04 APERTURE END LIST*
D10*
D11*
X162972857Y-127847286D02*
X162972857Y-127097286D01*
X163151429Y-127097286D01*
X163258572Y-127133000D01*
X163330000Y-127204429D01*
X163365715Y-127275857D01*
X163401429Y-127418714D01*
X163401429Y-127525857D01*
X163365715Y-127668714D01*
X163330000Y-127740143D01*
X163258572Y-127811571D01*
X163151429Y-127847286D01*
X162972857Y-127847286D01*
X163615715Y-127097286D02*
X164044286Y-127097286D01*
X163830000Y-127847286D02*
X163830000Y-127097286D01*
X164722858Y-127847286D02*
X164472858Y-127490143D01*
X164294286Y-127847286D02*
X164294286Y-127097286D01*
X164580001Y-127097286D01*
X164651429Y-127133000D01*
X164687144Y-127168714D01*
X164722858Y-127240143D01*
X164722858Y-127347286D01*
X164687144Y-127418714D01*
X164651429Y-127454429D01*
X164580001Y-127490143D01*
X164294286Y-127490143D01*
X166245000Y-127847286D02*
X165995000Y-127490143D01*
X165816428Y-127847286D02*
X165816428Y-127097286D01*
X166102143Y-127097286D01*
X166173571Y-127133000D01*
X166209286Y-127168714D01*
X166245000Y-127240143D01*
X166245000Y-127347286D01*
X166209286Y-127418714D01*
X166173571Y-127454429D01*
X166102143Y-127490143D01*
X165816428Y-127490143D01*
X166495000Y-127097286D02*
X166995000Y-127847286D01*
X166995000Y-127097286D02*
X166495000Y-127847286D01*
X168338572Y-127097286D02*
X168767143Y-127097286D01*
X168552857Y-127847286D02*
X168552857Y-127097286D01*
X168945715Y-127097286D02*
X169445715Y-127847286D01*
X169445715Y-127097286D02*
X168945715Y-127847286D01*
X175958572Y-127133000D02*
X175887143Y-127097286D01*
X175780000Y-127097286D01*
X175672857Y-127133000D01*
X175601429Y-127204429D01*
X175565714Y-127275857D01*
X175530000Y-127418714D01*
X175530000Y-127525857D01*
X175565714Y-127668714D01*
X175601429Y-127740143D01*
X175672857Y-127811571D01*
X175780000Y-127847286D01*
X175851429Y-127847286D01*
X175958572Y-127811571D01*
X175994286Y-127775857D01*
X175994286Y-127525857D01*
X175851429Y-127525857D01*
X176315714Y-127847286D02*
X176315714Y-127097286D01*
X176744286Y-127847286D01*
X176744286Y-127097286D01*
X177101428Y-127847286D02*
X177101428Y-127097286D01*
X177280000Y-127097286D01*
X177387143Y-127133000D01*
X177458571Y-127204429D01*
X177494286Y-127275857D01*
X177530000Y-127418714D01*
X177530000Y-127525857D01*
X177494286Y-127668714D01*
X177458571Y-127740143D01*
X177387143Y-127811571D01*
X177280000Y-127847286D01*
X177101428Y-127847286D01*
D12*
X133929715Y-118534571D02*
X133929715Y-117034571D01*
X134501143Y-117034571D01*
X134644001Y-117106000D01*
X134715429Y-117177429D01*
X134786858Y-117320286D01*
X134786858Y-117534571D01*
X134715429Y-117677429D01*
X134644001Y-117748857D01*
X134501143Y-117820286D01*
X133929715Y-117820286D01*
X135429715Y-118534571D02*
X135429715Y-117534571D01*
X135429715Y-117820286D02*
X135501143Y-117677429D01*
X135572572Y-117606000D01*
X135715429Y-117534571D01*
X135858286Y-117534571D01*
X136572572Y-118534571D02*
X136429714Y-118463143D01*
X136358286Y-118391714D01*
X136286857Y-118248857D01*
X136286857Y-117820286D01*
X136358286Y-117677429D01*
X136429714Y-117606000D01*
X136572572Y-117534571D01*
X136786857Y-117534571D01*
X136929714Y-117606000D01*
X137001143Y-117677429D01*
X137072572Y-117820286D01*
X137072572Y-118248857D01*
X137001143Y-118391714D01*
X136929714Y-118463143D01*
X136786857Y-118534571D01*
X136572572Y-118534571D01*
X138358286Y-117534571D02*
X138358286Y-118748857D01*
X138286857Y-118891714D01*
X138215429Y-118963143D01*
X138072572Y-119034571D01*
X137858286Y-119034571D01*
X137715429Y-118963143D01*
X138358286Y-118463143D02*
X138215429Y-118534571D01*
X137929715Y-118534571D01*
X137786857Y-118463143D01*
X137715429Y-118391714D01*
X137644000Y-118248857D01*
X137644000Y-117820286D01*
X137715429Y-117677429D01*
X137786857Y-117606000D01*
X137929715Y-117534571D01*
X138215429Y-117534571D01*
X138358286Y-117606000D01*
X143684858Y-118534571D02*
X143184858Y-117820286D01*
X142827715Y-118534571D02*
X142827715Y-117034571D01*
X143399143Y-117034571D01*
X143542001Y-117106000D01*
X143613429Y-117177429D01*
X143684858Y-117320286D01*
X143684858Y-117534571D01*
X143613429Y-117677429D01*
X143542001Y-117748857D01*
X143399143Y-117820286D01*
X142827715Y-117820286D01*
X144899143Y-118463143D02*
X144756286Y-118534571D01*
X144470572Y-118534571D01*
X144327715Y-118463143D01*
X144256286Y-118320286D01*
X144256286Y-117748857D01*
X144327715Y-117606000D01*
X144470572Y-117534571D01*
X144756286Y-117534571D01*
X144899143Y-117606000D01*
X144970572Y-117748857D01*
X144970572Y-117891714D01*
X144256286Y-118034571D01*
X145542000Y-118463143D02*
X145684857Y-118534571D01*
X145970572Y-118534571D01*
X146113429Y-118463143D01*
X146184857Y-118320286D01*
X146184857Y-118248857D01*
X146113429Y-118106000D01*
X145970572Y-118034571D01*
X145756286Y-118034571D01*
X145613429Y-117963143D01*
X145542000Y-117820286D01*
X145542000Y-117748857D01*
X145613429Y-117606000D01*
X145756286Y-117534571D01*
X145970572Y-117534571D01*
X146113429Y-117606000D01*
X147399143Y-118463143D02*
X147256286Y-118534571D01*
X146970572Y-118534571D01*
X146827715Y-118463143D01*
X146756286Y-118320286D01*
X146756286Y-117748857D01*
X146827715Y-117606000D01*
X146970572Y-117534571D01*
X147256286Y-117534571D01*
X147399143Y-117606000D01*
X147470572Y-117748857D01*
X147470572Y-117891714D01*
X146756286Y-118034571D01*
X147899143Y-117534571D02*
X148470572Y-117534571D01*
X148113429Y-117034571D02*
X148113429Y-118320286D01*
X148184857Y-118463143D01*
X148327715Y-118534571D01*
X148470572Y-118534571D01*
X172255714Y-68409429D02*
X172970000Y-68409429D01*
X172970000Y-69909429D01*
X163135428Y-69195143D02*
X162635428Y-69195143D01*
X162421142Y-68409429D02*
X163135428Y-68409429D01*
X163135428Y-69909429D01*
X162421142Y-69909429D01*
X153082571Y-68409429D02*
X153082571Y-69909429D01*
X152225428Y-68409429D01*
X152225428Y-69909429D01*
X123741714Y-68409429D02*
X124456000Y-68409429D01*
X124456000Y-69909429D01*
X134941428Y-69195143D02*
X134441428Y-69195143D01*
X134227142Y-68409429D02*
X134941428Y-68409429D01*
X134941428Y-69909429D01*
X134227142Y-69909429D01*
X144954571Y-68409429D02*
X144954571Y-69909429D01*
X144097428Y-68409429D01*
X144097428Y-69909429D01*
X121257143Y-79402286D02*
X121328571Y-79188000D01*
X121328571Y-78830857D01*
X121257143Y-78688000D01*
X121185714Y-78616571D01*
X121042857Y-78545143D01*
X120900000Y-78545143D01*
X120757143Y-78616571D01*
X120685714Y-78688000D01*
X120614286Y-78830857D01*
X120542857Y-79116571D01*
X120471429Y-79259429D01*
X120400000Y-79330857D01*
X120257143Y-79402286D01*
X120114286Y-79402286D01*
X119971429Y-79330857D01*
X119900000Y-79259429D01*
X119828571Y-79116571D01*
X119828571Y-78759429D01*
X119900000Y-78545143D01*
X119828571Y-77902286D02*
X121042857Y-77902286D01*
X121185714Y-77830858D01*
X121257143Y-77759429D01*
X121328571Y-77616572D01*
X121328571Y-77330858D01*
X121257143Y-77188000D01*
X121185714Y-77116572D01*
X121042857Y-77045143D01*
X119828571Y-77045143D01*
X121328571Y-76330857D02*
X119828571Y-76330857D01*
X119828571Y-75759429D01*
X119900000Y-75616571D01*
X119971429Y-75545143D01*
X120114286Y-75473714D01*
X120328571Y-75473714D01*
X120471429Y-75545143D01*
X120542857Y-75616571D01*
X120614286Y-75759429D01*
X120614286Y-76330857D01*
X121328571Y-74830857D02*
X119828571Y-74830857D01*
X119828571Y-74259429D01*
X119900000Y-74116571D01*
X119971429Y-74045143D01*
X120114286Y-73973714D01*
X120328571Y-73973714D01*
X120471429Y-74045143D01*
X120542857Y-74116571D01*
X120614286Y-74259429D01*
X120614286Y-74830857D01*
X121328571Y-72616571D02*
X121328571Y-73330857D01*
X119828571Y-73330857D01*
X120614286Y-71830857D02*
X121328571Y-71830857D01*
X119828571Y-72330857D02*
X120614286Y-71830857D01*
X119828571Y-71330857D01*
X177970571Y-77152285D02*
X177970571Y-77866571D01*
X176470571Y-77866571D01*
X176470571Y-76366571D02*
X176470571Y-76080857D01*
X176542000Y-75937999D01*
X176684857Y-75795142D01*
X176970571Y-75723714D01*
X177470571Y-75723714D01*
X177756286Y-75795142D01*
X177899143Y-75937999D01*
X177970571Y-76080857D01*
X177970571Y-76366571D01*
X177899143Y-76509428D01*
X177756286Y-76652285D01*
X177470571Y-76723714D01*
X176970571Y-76723714D01*
X176684857Y-76652285D01*
X176542000Y-76509428D01*
X176470571Y-76366571D01*
X177542000Y-75152285D02*
X177542000Y-74437999D01*
X177970571Y-75295142D02*
X176470571Y-74795142D01*
X177970571Y-74295142D01*
X177970571Y-73795142D02*
X176470571Y-73795142D01*
X176470571Y-73437999D01*
X176542000Y-73223714D01*
X176684857Y-73080856D01*
X176827714Y-73009428D01*
X177113429Y-72937999D01*
X177327714Y-72937999D01*
X177613429Y-73009428D01*
X177756286Y-73080856D01*
X177899143Y-73223714D01*
X177970571Y-73437999D01*
X177970571Y-73795142D01*
X120328571Y-88994856D02*
X121328571Y-88994856D01*
X119757143Y-89351999D02*
X120828571Y-89709142D01*
X120828571Y-88780570D01*
X120900000Y-88280571D02*
X120900000Y-87566285D01*
X121328571Y-88423428D02*
X119828571Y-87923428D01*
X121328571Y-87423428D01*
X121328571Y-85780571D02*
X119828571Y-85780571D01*
X120900000Y-85280571D01*
X119828571Y-84780571D01*
X121328571Y-84780571D01*
X120900000Y-84137714D02*
X120900000Y-83423428D01*
X121328571Y-84280571D02*
X119828571Y-83780571D01*
X121328571Y-83280571D01*
X119828571Y-82923428D02*
X121328571Y-81923428D01*
X119828571Y-81923428D02*
X121328571Y-82923428D01*
X120328571Y-98916856D02*
X121328571Y-98559713D01*
X120328571Y-98202571D01*
X121328571Y-96845428D02*
X121328571Y-97702571D01*
X121328571Y-97273999D02*
X119828571Y-97273999D01*
X120042857Y-97416856D01*
X120185714Y-97559714D01*
X120257143Y-97702571D01*
X121185714Y-96202571D02*
X121257143Y-96131143D01*
X121328571Y-96202571D01*
X121257143Y-96274000D01*
X121185714Y-96202571D01*
X121328571Y-96202571D01*
X119971429Y-95559714D02*
X119900000Y-95488285D01*
X119828571Y-95345428D01*
X119828571Y-94988285D01*
X119900000Y-94845428D01*
X119971429Y-94773999D01*
X120114286Y-94702571D01*
X120257143Y-94702571D01*
X120471429Y-94773999D01*
X121328571Y-95631142D01*
X121328571Y-94702571D01*
D13*
X175920400Y-110828720D02*
X175920400Y-113229020D01*
X175920400Y-113229020D02*
X178320700Y-113229020D01*
X178320700Y-110828720D02*
X178320700Y-113229020D01*
X175920400Y-110828720D02*
X178320700Y-110828720D01*
X175719740Y-119027840D02*
X175719740Y-121425600D01*
X175719740Y-121425600D02*
X178518820Y-121425600D01*
X178518820Y-119027840D02*
X178518820Y-121425600D01*
X175719740Y-119027840D02*
X178518820Y-119027840D01*
D14*
X161323020Y-110229280D02*
X161323020Y-122426360D01*
X178719480Y-110229280D02*
X178719480Y-122426360D01*
X178719480Y-122426360D02*
X175519080Y-122426360D01*
X175519080Y-122426360D02*
X161323020Y-122426360D01*
X178719480Y-110229280D02*
X175519080Y-110229280D01*
X175519080Y-110229280D02*
X161323020Y-110229280D01*
X172920660Y-117625760D02*
X172920660Y-112830240D01*
X172920660Y-112830240D02*
X167921940Y-112830240D01*
X167921940Y-112830240D02*
X167921940Y-117625760D01*
X167921940Y-117625760D02*
X172920660Y-117625760D01*
X167721280Y-121026820D02*
X167721280Y-118626520D01*
X167721280Y-118626520D02*
X165122860Y-118626520D01*
X165122860Y-118626520D02*
X165122860Y-121026820D01*
X165122860Y-121026820D02*
X167721280Y-121026820D01*
X166522400Y-117625760D02*
X166522400Y-112830240D01*
X166522400Y-112830240D02*
X161521140Y-112830240D01*
X161521140Y-112830240D02*
X161521140Y-117625760D01*
X161521140Y-117625760D02*
X166522400Y-117625760D01*
D15*
X152780000Y-110618000D02*
X154700000Y-110618000D01*
X159640000Y-110618000D02*
X157720000Y-110618000D01*
X152020000Y-118998000D02*
X154700000Y-118998000D01*
X160400000Y-118998000D02*
X157720000Y-118998000D01*
X152020000Y-118998000D02*
X152020000Y-111378000D01*
X152020000Y-111378000D02*
X152780000Y-110618000D01*
X159640000Y-110618000D02*
X160400000Y-111378000D01*
X160400000Y-111378000D02*
X160400000Y-118998000D01*
D16*
X122217421Y-110454000D02*
G75*
G03X122217421Y-110454000I-141421J0D01*
G01*
X121226000Y-111304000D02*
X121226000Y-105104000D01*
X129731000Y-105104000D02*
X121221000Y-105104000D01*
X129726000Y-111304000D02*
X129726000Y-105104000D01*
X129731000Y-111304000D02*
X121221000Y-111304000D01*
D15*
X143699276Y-110278758D02*
G75*
G03X143381251Y-114582000I1080724J-2243242D01*
G01*
X145860724Y-110278758D02*
G75*
G02X146178749Y-114582000I-1080724J-2243242D01*
G01*
X143699039Y-110839287D02*
G75*
G03X143700000Y-114205330I1080961J-1682713D01*
G01*
X145860961Y-110839287D02*
G75*
G02X145860000Y-114205330I-1080961J-1682713D01*
G01*
X143381000Y-114582000D02*
X143700000Y-114582000D01*
X145860000Y-114582000D02*
X146179000Y-114582000D01*
D16*
X144396000Y-90352000D02*
X121796000Y-90352000D01*
X121796000Y-81352000D02*
X144396000Y-81352000D01*
X144396000Y-81352000D02*
X144396000Y-90352000D01*
X121796000Y-81352000D02*
X121796000Y-90352000D01*
D15*
X165100000Y-127060000D02*
X177860000Y-127060000D01*
X177860000Y-127060000D02*
X177860000Y-124400000D01*
X177860000Y-124400000D02*
X165100000Y-124400000D01*
X165100000Y-124400000D02*
X165100000Y-127060000D01*
X163830000Y-127060000D02*
X162500000Y-127060000D01*
X162500000Y-127060000D02*
X162500000Y-125730000D01*
D16*
X146122155Y-79738000D02*
G75*
G03X146122155Y-79738000I-206155J0D01*
G01*
X121966000Y-70288000D02*
X121966000Y-80588000D01*
X146766000Y-80588000D02*
X146766000Y-70288000D01*
X146766000Y-70288000D02*
X121966000Y-70288000D01*
X146766000Y-80588000D02*
X121966000Y-80588000D01*
X174570155Y-79738000D02*
G75*
G03X174570155Y-79738000I-206155J0D01*
G01*
X150414000Y-70288000D02*
X150414000Y-80588000D01*
X175214000Y-80588000D02*
X175214000Y-70288000D01*
X175214000Y-70288000D02*
X150414000Y-70288000D01*
X175214000Y-80588000D02*
X150414000Y-80588000D01*
D15*
X148276000Y-115122000D02*
X150936000Y-115122000D01*
X148276000Y-112522000D02*
X148276000Y-115122000D01*
X150936000Y-112522000D02*
X150936000Y-115122000D01*
X148276000Y-112522000D02*
X150936000Y-112522000D01*
X148276000Y-111252000D02*
X148276000Y-109922000D01*
X148276000Y-109922000D02*
X149606000Y-109922000D01*
X154410000Y-125040000D02*
X158010000Y-125040000D01*
X154371522Y-125028478D02*
G75*
G02X156210000Y-120590000I1838478J1838478D01*
G01*
X158048478Y-125028478D02*
G75*
G03X156210000Y-120590000I-1838478J1838478D01*
G01*
X126274000Y-99730000D02*
X125944000Y-99730000D01*
X125944000Y-99730000D02*
X125944000Y-93310000D01*
X125944000Y-93310000D02*
X126274000Y-93310000D01*
X128234000Y-99730000D02*
X128564000Y-99730000D01*
X128564000Y-99730000D02*
X128564000Y-93310000D01*
X128564000Y-93310000D02*
X128234000Y-93310000D01*
X122464000Y-99730000D02*
X122134000Y-99730000D01*
X122134000Y-99730000D02*
X122134000Y-93310000D01*
X122134000Y-93310000D02*
X122464000Y-93310000D01*
X124424000Y-99730000D02*
X124754000Y-99730000D01*
X124754000Y-99730000D02*
X124754000Y-93310000D01*
X124754000Y-93310000D02*
X124424000Y-93310000D01*
X132370000Y-99730000D02*
X132040000Y-99730000D01*
X132040000Y-99730000D02*
X132040000Y-93310000D01*
X132040000Y-93310000D02*
X132370000Y-93310000D01*
X134330000Y-99730000D02*
X134660000Y-99730000D01*
X134660000Y-99730000D02*
X134660000Y-93310000D01*
X134660000Y-93310000D02*
X134330000Y-93310000D01*
X147994000Y-119650000D02*
X143494000Y-119650000D01*
X149244000Y-123650000D02*
X149244000Y-122150000D01*
X143494000Y-126150000D02*
X147994000Y-126150000D01*
X142244000Y-122150000D02*
X142244000Y-123650000D01*
X138342000Y-119650000D02*
X133842000Y-119650000D01*
X139592000Y-123650000D02*
X139592000Y-122150000D01*
X133842000Y-126150000D02*
X138342000Y-126150000D01*
X132592000Y-122150000D02*
X132592000Y-123650000D01*
D16*
X146710000Y-108092000D02*
X178410000Y-108092000D01*
X146710000Y-81392000D02*
X146710000Y-108092000D01*
X178410000Y-81392000D02*
X146710000Y-81392000D01*
X178410000Y-81392000D02*
X178410000Y-108092000D01*
D15*
X132020000Y-107204000D02*
G75*
G02X132020000Y-109204000I0J-1000000D01*
G01*
X132020000Y-109204000D02*
X132020000Y-110454000D01*
X132020000Y-110454000D02*
X139760000Y-110454000D01*
X139760000Y-110454000D02*
X139760000Y-105954000D01*
X139760000Y-105954000D02*
X132020000Y-105954000D01*
X132020000Y-105954000D02*
X132020000Y-107204000D01*
X129346000Y-121904000D02*
G75*
G02X129346000Y-119904000I0J1000000D01*
G01*
X129346000Y-119904000D02*
X129346000Y-117669000D01*
X129346000Y-117669000D02*
X121606000Y-117669000D01*
X121606000Y-117669000D02*
X121606000Y-124139000D01*
X121606000Y-124139000D02*
X129346000Y-124139000D01*
X129346000Y-124139000D02*
X129346000Y-121904000D01*
X140288000Y-91908000D02*
X140288000Y-102148000D01*
X135647000Y-91908000D02*
X135647000Y-102148000D01*
X140288000Y-91908000D02*
X135647000Y-91908000D01*
X140288000Y-102148000D02*
X135647000Y-102148000D01*
X138778000Y-91908000D02*
X138778000Y-102148000D01*
X140288000Y-95178000D02*
X138778000Y-95178000D01*
X140288000Y-98879000D02*
X138778000Y-98879000D01*
D17*
X159832524Y-122379619D02*
X160860619Y-122379619D01*
X160981571Y-122319143D01*
X161042048Y-122258667D01*
X161102524Y-122137714D01*
X161102524Y-121895810D01*
X161042048Y-121774857D01*
X160981571Y-121714381D01*
X160860619Y-121653905D01*
X159832524Y-121653905D01*
X161102524Y-120383905D02*
X161102524Y-121109619D01*
X161102524Y-120746762D02*
X159832524Y-120746762D01*
X160013952Y-120867714D01*
X160134905Y-120988667D01*
X160195381Y-121109619D01*
X160465226Y-117546899D02*
X160465226Y-117123566D01*
X161130464Y-116942137D02*
X161130464Y-117546899D01*
X159860464Y-117546899D01*
X159860464Y-116942137D01*
X161069988Y-116458327D02*
X161130464Y-116276899D01*
X161130464Y-115974518D01*
X161069988Y-115853565D01*
X161009511Y-115793089D01*
X160888559Y-115732613D01*
X160767607Y-115732613D01*
X160646654Y-115793089D01*
X160586178Y-115853565D01*
X160525702Y-115974518D01*
X160465226Y-116216422D01*
X160404750Y-116337375D01*
X160344273Y-116397851D01*
X160223321Y-116458327D01*
X160102369Y-116458327D01*
X159981416Y-116397851D01*
X159920940Y-116337375D01*
X159860464Y-116216422D01*
X159860464Y-115914042D01*
X159920940Y-115732613D01*
X161130464Y-115188327D02*
X159860464Y-115188327D01*
X159860464Y-114704518D01*
X159920940Y-114583565D01*
X159981416Y-114523089D01*
X160102369Y-114462613D01*
X160283797Y-114462613D01*
X160404750Y-114523089D01*
X160465226Y-114583565D01*
X160525702Y-114704518D01*
X160525702Y-115188327D01*
X160646654Y-113918327D02*
X160646654Y-112950708D01*
X159860464Y-112104041D02*
X159860464Y-111983089D01*
X159920940Y-111862137D01*
X159981416Y-111801660D01*
X160102369Y-111741184D01*
X160344273Y-111680708D01*
X160646654Y-111680708D01*
X160888559Y-111741184D01*
X161009511Y-111801660D01*
X161069988Y-111862137D01*
X161130464Y-111983089D01*
X161130464Y-112104041D01*
X161069988Y-112224994D01*
X161009511Y-112285470D01*
X160888559Y-112345946D01*
X160646654Y-112406422D01*
X160344273Y-112406422D01*
X160102369Y-112345946D01*
X159981416Y-112285470D01*
X159920940Y-112224994D01*
X159860464Y-112104041D01*
X159860464Y-111257374D02*
X159860464Y-110471184D01*
X160344273Y-110894517D01*
X160344273Y-110713089D01*
X160404750Y-110592136D01*
X160465226Y-110531660D01*
X160586178Y-110471184D01*
X160888559Y-110471184D01*
X161009511Y-110531660D01*
X161069988Y-110592136D01*
X161130464Y-110713089D01*
X161130464Y-111075946D01*
X161069988Y-111196898D01*
X161009511Y-111257374D01*
D16*
X156043334Y-115165143D02*
X155995715Y-115212762D01*
X155852858Y-115260381D01*
X155757620Y-115260381D01*
X155614762Y-115212762D01*
X155519524Y-115117524D01*
X155471905Y-115022286D01*
X155424286Y-114831810D01*
X155424286Y-114688952D01*
X155471905Y-114498476D01*
X155519524Y-114403238D01*
X155614762Y-114308000D01*
X155757620Y-114260381D01*
X155852858Y-114260381D01*
X155995715Y-114308000D01*
X156043334Y-114355619D01*
X156376667Y-114260381D02*
X156995715Y-114260381D01*
X156662381Y-114641333D01*
X156805239Y-114641333D01*
X156900477Y-114688952D01*
X156948096Y-114736571D01*
X156995715Y-114831810D01*
X156995715Y-115069905D01*
X156948096Y-115165143D01*
X156900477Y-115212762D01*
X156805239Y-115260381D01*
X156519524Y-115260381D01*
X156424286Y-115212762D01*
X156376667Y-115165143D01*
X152371429Y-110408952D02*
X152371429Y-109647047D01*
X152752381Y-110027999D02*
X151990476Y-110027999D01*
X120848381Y-108942095D02*
X119848381Y-108942095D01*
X119848381Y-108704000D01*
X119896000Y-108561142D01*
X119991238Y-108465904D01*
X120086476Y-108418285D01*
X120276952Y-108370666D01*
X120419810Y-108370666D01*
X120610286Y-108418285D01*
X120705524Y-108465904D01*
X120800762Y-108561142D01*
X120848381Y-108704000D01*
X120848381Y-108942095D01*
X119943619Y-107989714D02*
X119896000Y-107942095D01*
X119848381Y-107846857D01*
X119848381Y-107608761D01*
X119896000Y-107513523D01*
X119943619Y-107465904D01*
X120038857Y-107418285D01*
X120134095Y-107418285D01*
X120276952Y-107465904D01*
X120848381Y-108037333D01*
X120848381Y-107418285D01*
X122614095Y-106375429D02*
X122661714Y-106327810D01*
X122756952Y-106280190D01*
X122947428Y-106375429D01*
X123042667Y-106327810D01*
X123090286Y-106280190D01*
X127864095Y-106375429D02*
X127911714Y-106327810D01*
X128006952Y-106280190D01*
X128197428Y-106375429D01*
X128292667Y-106327810D01*
X128340286Y-106280190D01*
X127745048Y-110325429D02*
X128506953Y-110325429D01*
X122395048Y-110275429D02*
X123156953Y-110275429D01*
X122776001Y-110656381D02*
X122776001Y-109894476D01*
X144041905Y-109418381D02*
X144041905Y-108418381D01*
X144280000Y-108418381D01*
X144422858Y-108466000D01*
X144518096Y-108561238D01*
X144565715Y-108656476D01*
X144613334Y-108846952D01*
X144613334Y-108989810D01*
X144565715Y-109180286D01*
X144518096Y-109275524D01*
X144422858Y-109370762D01*
X144280000Y-109418381D01*
X144041905Y-109418381D01*
X144946667Y-108418381D02*
X145565715Y-108418381D01*
X145232381Y-108799333D01*
X145375239Y-108799333D01*
X145470477Y-108846952D01*
X145518096Y-108894571D01*
X145565715Y-108989810D01*
X145565715Y-109227905D01*
X145518096Y-109323143D01*
X145470477Y-109370762D01*
X145375239Y-109418381D01*
X145089524Y-109418381D01*
X144994286Y-109370762D01*
X144946667Y-109323143D01*
X145216571Y-89741333D02*
X145216571Y-90074667D01*
X145740381Y-90074667D02*
X144740381Y-90074667D01*
X144740381Y-89598476D01*
X145740381Y-88693714D02*
X145740381Y-89265143D01*
X145740381Y-88979429D02*
X144740381Y-88979429D01*
X144883238Y-89074667D01*
X144978476Y-89169905D01*
X145026095Y-89265143D01*
X160952381Y-126063333D02*
X161666667Y-126063333D01*
X161809524Y-126110953D01*
X161904762Y-126206191D01*
X161952381Y-126349048D01*
X161952381Y-126444286D01*
X161952381Y-125063333D02*
X161952381Y-125634762D01*
X161952381Y-125349048D02*
X160952381Y-125349048D01*
X161095238Y-125444286D01*
X161190476Y-125539524D01*
X161238095Y-125634762D01*
X147026381Y-71453333D02*
X147740667Y-71453333D01*
X147883524Y-71500953D01*
X147978762Y-71596191D01*
X148026381Y-71739048D01*
X148026381Y-71834286D01*
X147121619Y-71024762D02*
X147074000Y-70977143D01*
X147026381Y-70881905D01*
X147026381Y-70643809D01*
X147074000Y-70548571D01*
X147121619Y-70500952D01*
X147216857Y-70453333D01*
X147312095Y-70453333D01*
X147454952Y-70500952D01*
X148026381Y-71072381D01*
X148026381Y-70453333D01*
X138151715Y-79366571D02*
X138294572Y-79414190D01*
X138342191Y-79461810D01*
X138389810Y-79557048D01*
X138389810Y-79699905D01*
X138342191Y-79795143D01*
X138294572Y-79842762D01*
X138199334Y-79890381D01*
X137818381Y-79890381D01*
X137818381Y-78890381D01*
X138151715Y-78890381D01*
X138246953Y-78938000D01*
X138294572Y-78985619D01*
X138342191Y-79080857D01*
X138342191Y-79176095D01*
X138294572Y-79271333D01*
X138246953Y-79318952D01*
X138151715Y-79366571D01*
X137818381Y-79366571D01*
X139246953Y-79890381D02*
X139246953Y-79366571D01*
X139199334Y-79271333D01*
X139104096Y-79223714D01*
X138913619Y-79223714D01*
X138818381Y-79271333D01*
X139246953Y-79842762D02*
X139151715Y-79890381D01*
X138913619Y-79890381D01*
X138818381Y-79842762D01*
X138770762Y-79747524D01*
X138770762Y-79652286D01*
X138818381Y-79557048D01*
X138913619Y-79509429D01*
X139151715Y-79509429D01*
X139246953Y-79461810D01*
X140151715Y-79842762D02*
X140056477Y-79890381D01*
X139866000Y-79890381D01*
X139770762Y-79842762D01*
X139723143Y-79795143D01*
X139675524Y-79699905D01*
X139675524Y-79414190D01*
X139723143Y-79318952D01*
X139770762Y-79271333D01*
X139866000Y-79223714D01*
X140056477Y-79223714D01*
X140151715Y-79271333D01*
X140580286Y-79890381D02*
X140580286Y-78890381D01*
X140675524Y-79509429D02*
X140961239Y-79890381D01*
X140961239Y-79223714D02*
X140580286Y-79604667D01*
X138008857Y-71366571D02*
X137675523Y-71366571D01*
X137675523Y-71890381D02*
X137675523Y-70890381D01*
X138151714Y-70890381D01*
X138532666Y-71890381D02*
X138532666Y-71223714D01*
X138532666Y-71414190D02*
X138580285Y-71318952D01*
X138627904Y-71271333D01*
X138723142Y-71223714D01*
X138818381Y-71223714D01*
X139294571Y-71890381D02*
X139199333Y-71842762D01*
X139151714Y-71795143D01*
X139104095Y-71699905D01*
X139104095Y-71414190D01*
X139151714Y-71318952D01*
X139199333Y-71271333D01*
X139294571Y-71223714D01*
X139437429Y-71223714D01*
X139532667Y-71271333D01*
X139580286Y-71318952D01*
X139627905Y-71414190D01*
X139627905Y-71699905D01*
X139580286Y-71795143D01*
X139532667Y-71842762D01*
X139437429Y-71890381D01*
X139294571Y-71890381D01*
X140056476Y-71223714D02*
X140056476Y-71890381D01*
X140056476Y-71318952D02*
X140104095Y-71271333D01*
X140199333Y-71223714D01*
X140342191Y-71223714D01*
X140437429Y-71271333D01*
X140485048Y-71366571D01*
X140485048Y-71890381D01*
X140818381Y-71223714D02*
X141199333Y-71223714D01*
X140961238Y-70890381D02*
X140961238Y-71747524D01*
X141008857Y-71842762D01*
X141104095Y-71890381D01*
X141199333Y-71890381D01*
X124032667Y-71890381D02*
X124651715Y-71890381D01*
X124318381Y-72271333D01*
X124461239Y-72271333D01*
X124556477Y-72318952D01*
X124604096Y-72366571D01*
X124651715Y-72461810D01*
X124651715Y-72699905D01*
X124604096Y-72795143D01*
X124556477Y-72842762D01*
X124461239Y-72890381D01*
X124175524Y-72890381D01*
X124080286Y-72842762D01*
X124032667Y-72795143D01*
X134080286Y-71985619D02*
X134127905Y-71938000D01*
X134223143Y-71890381D01*
X134461239Y-71890381D01*
X134556477Y-71938000D01*
X134604096Y-71985619D01*
X134651715Y-72080857D01*
X134651715Y-72176095D01*
X134604096Y-72318952D01*
X134032667Y-72890381D01*
X134651715Y-72890381D01*
X144651715Y-72890381D02*
X144080286Y-72890381D01*
X144366000Y-72890381D02*
X144366000Y-71890381D01*
X144270762Y-72033238D01*
X144175524Y-72128476D01*
X144080286Y-72176095D01*
X149058381Y-71453333D02*
X149772667Y-71453333D01*
X149915524Y-71500953D01*
X150010762Y-71596191D01*
X150058381Y-71739048D01*
X150058381Y-71834286D01*
X149058381Y-71072381D02*
X149058381Y-70453333D01*
X149439333Y-70786667D01*
X149439333Y-70643809D01*
X149486952Y-70548571D01*
X149534571Y-70500952D01*
X149629810Y-70453333D01*
X149867905Y-70453333D01*
X149963143Y-70500952D01*
X150010762Y-70548571D01*
X150058381Y-70643809D01*
X150058381Y-70929524D01*
X150010762Y-71024762D01*
X149963143Y-71072381D01*
X166599715Y-79366571D02*
X166742572Y-79414190D01*
X166790191Y-79461810D01*
X166837810Y-79557048D01*
X166837810Y-79699905D01*
X166790191Y-79795143D01*
X166742572Y-79842762D01*
X166647334Y-79890381D01*
X166266381Y-79890381D01*
X166266381Y-78890381D01*
X166599715Y-78890381D01*
X166694953Y-78938000D01*
X166742572Y-78985619D01*
X166790191Y-79080857D01*
X166790191Y-79176095D01*
X166742572Y-79271333D01*
X166694953Y-79318952D01*
X166599715Y-79366571D01*
X166266381Y-79366571D01*
X167694953Y-79890381D02*
X167694953Y-79366571D01*
X167647334Y-79271333D01*
X167552096Y-79223714D01*
X167361619Y-79223714D01*
X167266381Y-79271333D01*
X167694953Y-79842762D02*
X167599715Y-79890381D01*
X167361619Y-79890381D01*
X167266381Y-79842762D01*
X167218762Y-79747524D01*
X167218762Y-79652286D01*
X167266381Y-79557048D01*
X167361619Y-79509429D01*
X167599715Y-79509429D01*
X167694953Y-79461810D01*
X168599715Y-79842762D02*
X168504477Y-79890381D01*
X168314000Y-79890381D01*
X168218762Y-79842762D01*
X168171143Y-79795143D01*
X168123524Y-79699905D01*
X168123524Y-79414190D01*
X168171143Y-79318952D01*
X168218762Y-79271333D01*
X168314000Y-79223714D01*
X168504477Y-79223714D01*
X168599715Y-79271333D01*
X169028286Y-79890381D02*
X169028286Y-78890381D01*
X169123524Y-79509429D02*
X169409239Y-79890381D01*
X169409239Y-79223714D02*
X169028286Y-79604667D01*
X166456857Y-71366571D02*
X166123523Y-71366571D01*
X166123523Y-71890381D02*
X166123523Y-70890381D01*
X166599714Y-70890381D01*
X166980666Y-71890381D02*
X166980666Y-71223714D01*
X166980666Y-71414190D02*
X167028285Y-71318952D01*
X167075904Y-71271333D01*
X167171142Y-71223714D01*
X167266381Y-71223714D01*
X167742571Y-71890381D02*
X167647333Y-71842762D01*
X167599714Y-71795143D01*
X167552095Y-71699905D01*
X167552095Y-71414190D01*
X167599714Y-71318952D01*
X167647333Y-71271333D01*
X167742571Y-71223714D01*
X167885429Y-71223714D01*
X167980667Y-71271333D01*
X168028286Y-71318952D01*
X168075905Y-71414190D01*
X168075905Y-71699905D01*
X168028286Y-71795143D01*
X167980667Y-71842762D01*
X167885429Y-71890381D01*
X167742571Y-71890381D01*
X168504476Y-71223714D02*
X168504476Y-71890381D01*
X168504476Y-71318952D02*
X168552095Y-71271333D01*
X168647333Y-71223714D01*
X168790191Y-71223714D01*
X168885429Y-71271333D01*
X168933048Y-71366571D01*
X168933048Y-71890381D01*
X169266381Y-71223714D02*
X169647333Y-71223714D01*
X169409238Y-70890381D02*
X169409238Y-71747524D01*
X169456857Y-71842762D01*
X169552095Y-71890381D01*
X169647333Y-71890381D01*
X152480667Y-71890381D02*
X153099715Y-71890381D01*
X152766381Y-72271333D01*
X152909239Y-72271333D01*
X153004477Y-72318952D01*
X153052096Y-72366571D01*
X153099715Y-72461810D01*
X153099715Y-72699905D01*
X153052096Y-72795143D01*
X153004477Y-72842762D01*
X152909239Y-72890381D01*
X152623524Y-72890381D01*
X152528286Y-72842762D01*
X152480667Y-72795143D01*
X162528286Y-71985619D02*
X162575905Y-71938000D01*
X162671143Y-71890381D01*
X162909239Y-71890381D01*
X163004477Y-71938000D01*
X163052096Y-71985619D01*
X163099715Y-72080857D01*
X163099715Y-72176095D01*
X163052096Y-72318952D01*
X162480667Y-72890381D01*
X163099715Y-72890381D01*
X173099715Y-72890381D02*
X172528286Y-72890381D01*
X172814000Y-72890381D02*
X172814000Y-71890381D01*
X172718762Y-72033238D01*
X172623524Y-72128476D01*
X172528286Y-72176095D01*
X149272667Y-108374381D02*
X149272667Y-109088667D01*
X149225047Y-109231524D01*
X149129809Y-109326762D01*
X148986952Y-109374381D01*
X148891714Y-109374381D01*
X150225048Y-108374381D02*
X149748857Y-108374381D01*
X149701238Y-108850571D01*
X149748857Y-108802952D01*
X149844095Y-108755333D01*
X150082191Y-108755333D01*
X150177429Y-108802952D01*
X150225048Y-108850571D01*
X150272667Y-108945810D01*
X150272667Y-109183905D01*
X150225048Y-109279143D01*
X150177429Y-109326762D01*
X150082191Y-109374381D01*
X149844095Y-109374381D01*
X149748857Y-109326762D01*
X149701238Y-109279143D01*
X156114762Y-126531619D02*
X156019524Y-126484000D01*
X155924286Y-126388762D01*
X155781429Y-126245905D01*
X155686190Y-126198286D01*
X155590952Y-126198286D01*
X155638571Y-126436381D02*
X155543333Y-126388762D01*
X155448095Y-126293524D01*
X155400476Y-126103048D01*
X155400476Y-125769714D01*
X155448095Y-125579238D01*
X155543333Y-125484000D01*
X155638571Y-125436381D01*
X155829048Y-125436381D01*
X155924286Y-125484000D01*
X156019524Y-125579238D01*
X156067143Y-125769714D01*
X156067143Y-126103048D01*
X156019524Y-126293524D01*
X155924286Y-126388762D01*
X155829048Y-126436381D01*
X155638571Y-126436381D01*
X157019524Y-126436381D02*
X156448095Y-126436381D01*
X156733809Y-126436381D02*
X156733809Y-125436381D01*
X156638571Y-125579238D01*
X156543333Y-125674476D01*
X156448095Y-125722095D01*
X127706381Y-96686666D02*
X127230190Y-97020000D01*
X127706381Y-97258095D02*
X126706381Y-97258095D01*
X126706381Y-96877142D01*
X126754000Y-96781904D01*
X126801619Y-96734285D01*
X126896857Y-96686666D01*
X127039714Y-96686666D01*
X127134952Y-96734285D01*
X127182571Y-96781904D01*
X127230190Y-96877142D01*
X127230190Y-97258095D01*
X126706381Y-95829523D02*
X126706381Y-96020000D01*
X126754000Y-96115238D01*
X126801619Y-96162857D01*
X126944476Y-96258095D01*
X127134952Y-96305714D01*
X127515905Y-96305714D01*
X127611143Y-96258095D01*
X127658762Y-96210476D01*
X127706381Y-96115238D01*
X127706381Y-95924761D01*
X127658762Y-95829523D01*
X127611143Y-95781904D01*
X127515905Y-95734285D01*
X127277810Y-95734285D01*
X127182571Y-95781904D01*
X127134952Y-95829523D01*
X127087333Y-95924761D01*
X127087333Y-96115238D01*
X127134952Y-96210476D01*
X127182571Y-96258095D01*
X127277810Y-96305714D01*
X123896381Y-96686666D02*
X123420190Y-97020000D01*
X123896381Y-97258095D02*
X122896381Y-97258095D01*
X122896381Y-96877142D01*
X122944000Y-96781904D01*
X122991619Y-96734285D01*
X123086857Y-96686666D01*
X123229714Y-96686666D01*
X123324952Y-96734285D01*
X123372571Y-96781904D01*
X123420190Y-96877142D01*
X123420190Y-97258095D01*
X122896381Y-96353333D02*
X122896381Y-95686666D01*
X123896381Y-96115238D01*
X133802381Y-96686666D02*
X133326190Y-97020000D01*
X133802381Y-97258095D02*
X132802381Y-97258095D01*
X132802381Y-96877142D01*
X132850000Y-96781904D01*
X132897619Y-96734285D01*
X132992857Y-96686666D01*
X133135714Y-96686666D01*
X133230952Y-96734285D01*
X133278571Y-96781904D01*
X133326190Y-96877142D01*
X133326190Y-97258095D01*
X133230952Y-96115238D02*
X133183333Y-96210476D01*
X133135714Y-96258095D01*
X133040476Y-96305714D01*
X132992857Y-96305714D01*
X132897619Y-96258095D01*
X132850000Y-96210476D01*
X132802381Y-96115238D01*
X132802381Y-95924761D01*
X132850000Y-95829523D01*
X132897619Y-95781904D01*
X132992857Y-95734285D01*
X133040476Y-95734285D01*
X133135714Y-95781904D01*
X133183333Y-95829523D01*
X133230952Y-95924761D01*
X133230952Y-96115238D01*
X133278571Y-96210476D01*
X133326190Y-96258095D01*
X133421429Y-96305714D01*
X133611905Y-96305714D01*
X133707143Y-96258095D01*
X133754762Y-96210476D01*
X133802381Y-96115238D01*
X133802381Y-95924761D01*
X133754762Y-95829523D01*
X133707143Y-95781904D01*
X133611905Y-95734285D01*
X133421429Y-95734285D01*
X133326190Y-95781904D01*
X133278571Y-95829523D01*
X133230952Y-95924761D01*
X144410667Y-123340762D02*
X144553524Y-123388381D01*
X144791620Y-123388381D01*
X144886858Y-123340762D01*
X144934477Y-123293143D01*
X144982096Y-123197905D01*
X144982096Y-123102667D01*
X144934477Y-123007429D01*
X144886858Y-122959810D01*
X144791620Y-122912190D01*
X144601143Y-122864571D01*
X144505905Y-122816952D01*
X144458286Y-122769333D01*
X144410667Y-122674095D01*
X144410667Y-122578857D01*
X144458286Y-122483619D01*
X144505905Y-122436000D01*
X144601143Y-122388381D01*
X144839239Y-122388381D01*
X144982096Y-122436000D01*
X145315429Y-122388381D02*
X145553524Y-123388381D01*
X145744001Y-122674095D01*
X145934477Y-123388381D01*
X146172572Y-122388381D01*
X147077334Y-123388381D02*
X146505905Y-123388381D01*
X146791619Y-123388381D02*
X146791619Y-122388381D01*
X146696381Y-122531238D01*
X146601143Y-122626476D01*
X146505905Y-122674095D01*
X134556667Y-123340762D02*
X134699524Y-123388381D01*
X134937620Y-123388381D01*
X135032858Y-123340762D01*
X135080477Y-123293143D01*
X135128096Y-123197905D01*
X135128096Y-123102667D01*
X135080477Y-123007429D01*
X135032858Y-122959810D01*
X134937620Y-122912190D01*
X134747143Y-122864571D01*
X134651905Y-122816952D01*
X134604286Y-122769333D01*
X134556667Y-122674095D01*
X134556667Y-122578857D01*
X134604286Y-122483619D01*
X134651905Y-122436000D01*
X134747143Y-122388381D01*
X134985239Y-122388381D01*
X135128096Y-122436000D01*
X135461429Y-122388381D02*
X135699524Y-123388381D01*
X135890001Y-122674095D01*
X136080477Y-123388381D01*
X136318572Y-122388381D01*
X136651905Y-122483619D02*
X136699524Y-122436000D01*
X136794762Y-122388381D01*
X137032858Y-122388381D01*
X137128096Y-122436000D01*
X137175715Y-122483619D01*
X137223334Y-122578857D01*
X137223334Y-122674095D01*
X137175715Y-122816952D01*
X136604286Y-123388381D01*
X137223334Y-123388381D01*
X176784095Y-79970381D02*
X177355524Y-79970381D01*
X177069809Y-80970381D02*
X177069809Y-79970381D01*
X178212667Y-80970381D02*
X177641238Y-80970381D01*
X177926952Y-80970381D02*
X177926952Y-79970381D01*
X177831714Y-80113238D01*
X177736476Y-80208476D01*
X177641238Y-80256095D01*
X157179048Y-106763429D02*
X157940953Y-106763429D01*
X157560001Y-107144381D02*
X157560001Y-106382476D01*
X167179048Y-106763429D02*
X167940953Y-106763429D01*
X157486190Y-102646762D02*
X157629047Y-102694381D01*
X157867143Y-102694381D01*
X157962381Y-102646762D01*
X158010000Y-102599143D01*
X158057619Y-102503905D01*
X158057619Y-102408667D01*
X158010000Y-102313429D01*
X157962381Y-102265810D01*
X157867143Y-102218190D01*
X157676666Y-102170571D01*
X157581428Y-102122952D01*
X157533809Y-102075333D01*
X157486190Y-101980095D01*
X157486190Y-101884857D01*
X157533809Y-101789619D01*
X157581428Y-101742000D01*
X157676666Y-101694381D01*
X157914762Y-101694381D01*
X158057619Y-101742000D01*
X158867143Y-102646762D02*
X158771905Y-102694381D01*
X158581428Y-102694381D01*
X158486190Y-102646762D01*
X158438571Y-102551524D01*
X158438571Y-102170571D01*
X158486190Y-102075333D01*
X158581428Y-102027714D01*
X158771905Y-102027714D01*
X158867143Y-102075333D01*
X158914762Y-102170571D01*
X158914762Y-102265810D01*
X158438571Y-102361048D01*
X159771905Y-102646762D02*
X159676667Y-102694381D01*
X159486190Y-102694381D01*
X159390952Y-102646762D01*
X159343333Y-102599143D01*
X159295714Y-102503905D01*
X159295714Y-102218190D01*
X159343333Y-102122952D01*
X159390952Y-102075333D01*
X159486190Y-102027714D01*
X159676667Y-102027714D01*
X159771905Y-102075333D01*
X160343333Y-102694381D02*
X160248095Y-102646762D01*
X160200476Y-102599143D01*
X160152857Y-102503905D01*
X160152857Y-102218190D01*
X160200476Y-102122952D01*
X160248095Y-102075333D01*
X160343333Y-102027714D01*
X160486191Y-102027714D01*
X160581429Y-102075333D01*
X160629048Y-102122952D01*
X160676667Y-102218190D01*
X160676667Y-102503905D01*
X160629048Y-102599143D01*
X160581429Y-102646762D01*
X160486191Y-102694381D01*
X160343333Y-102694381D01*
X161105238Y-102027714D02*
X161105238Y-102694381D01*
X161105238Y-102122952D02*
X161152857Y-102075333D01*
X161248095Y-102027714D01*
X161390953Y-102027714D01*
X161486191Y-102075333D01*
X161533810Y-102170571D01*
X161533810Y-102694381D01*
X162438572Y-102694381D02*
X162438572Y-101694381D01*
X162438572Y-102646762D02*
X162343334Y-102694381D01*
X162152857Y-102694381D01*
X162057619Y-102646762D01*
X162010000Y-102599143D01*
X161962381Y-102503905D01*
X161962381Y-102218190D01*
X162010000Y-102122952D01*
X162057619Y-102075333D01*
X162152857Y-102027714D01*
X162343334Y-102027714D01*
X162438572Y-102075333D01*
X163343334Y-102694381D02*
X163343334Y-102170571D01*
X163295715Y-102075333D01*
X163200477Y-102027714D01*
X163010000Y-102027714D01*
X162914762Y-102075333D01*
X163343334Y-102646762D02*
X163248096Y-102694381D01*
X163010000Y-102694381D01*
X162914762Y-102646762D01*
X162867143Y-102551524D01*
X162867143Y-102456286D01*
X162914762Y-102361048D01*
X163010000Y-102313429D01*
X163248096Y-102313429D01*
X163343334Y-102265810D01*
X163819524Y-102694381D02*
X163819524Y-102027714D01*
X163819524Y-102218190D02*
X163867143Y-102122952D01*
X163914762Y-102075333D01*
X164010000Y-102027714D01*
X164105239Y-102027714D01*
X164343334Y-102027714D02*
X164581429Y-102694381D01*
X164819525Y-102027714D02*
X164581429Y-102694381D01*
X164486191Y-102932476D01*
X164438572Y-102980095D01*
X164343334Y-103027714D01*
X165962382Y-102694381D02*
X165962382Y-101694381D01*
X166200477Y-101694381D01*
X166343335Y-101742000D01*
X166438573Y-101837238D01*
X166486192Y-101932476D01*
X166533811Y-102122952D01*
X166533811Y-102265810D01*
X166486192Y-102456286D01*
X166438573Y-102551524D01*
X166343335Y-102646762D01*
X166200477Y-102694381D01*
X165962382Y-102694381D01*
X167533811Y-102599143D02*
X167486192Y-102646762D01*
X167343335Y-102694381D01*
X167248097Y-102694381D01*
X167105239Y-102646762D01*
X167010001Y-102551524D01*
X166962382Y-102456286D01*
X166914763Y-102265810D01*
X166914763Y-102122952D01*
X166962382Y-101932476D01*
X167010001Y-101837238D01*
X167105239Y-101742000D01*
X167248097Y-101694381D01*
X167343335Y-101694381D01*
X167486192Y-101742000D01*
X167533811Y-101789619D01*
X157107619Y-85194381D02*
X157107619Y-84194381D01*
X157488572Y-84194381D01*
X157583810Y-84242000D01*
X157631429Y-84289619D01*
X157679048Y-84384857D01*
X157679048Y-84527714D01*
X157631429Y-84622952D01*
X157583810Y-84670571D01*
X157488572Y-84718190D01*
X157107619Y-84718190D01*
X158107619Y-85194381D02*
X158107619Y-84527714D01*
X158107619Y-84718190D02*
X158155238Y-84622952D01*
X158202857Y-84575333D01*
X158298095Y-84527714D01*
X158393334Y-84527714D01*
X158726667Y-85194381D02*
X158726667Y-84527714D01*
X158726667Y-84194381D02*
X158679048Y-84242000D01*
X158726667Y-84289619D01*
X158774286Y-84242000D01*
X158726667Y-84194381D01*
X158726667Y-84289619D01*
X159202857Y-85194381D02*
X159202857Y-84527714D01*
X159202857Y-84622952D02*
X159250476Y-84575333D01*
X159345714Y-84527714D01*
X159488572Y-84527714D01*
X159583810Y-84575333D01*
X159631429Y-84670571D01*
X159631429Y-85194381D01*
X159631429Y-84670571D02*
X159679048Y-84575333D01*
X159774286Y-84527714D01*
X159917143Y-84527714D01*
X160012381Y-84575333D01*
X160060000Y-84670571D01*
X160060000Y-85194381D01*
X160964762Y-85194381D02*
X160964762Y-84670571D01*
X160917143Y-84575333D01*
X160821905Y-84527714D01*
X160631428Y-84527714D01*
X160536190Y-84575333D01*
X160964762Y-85146762D02*
X160869524Y-85194381D01*
X160631428Y-85194381D01*
X160536190Y-85146762D01*
X160488571Y-85051524D01*
X160488571Y-84956286D01*
X160536190Y-84861048D01*
X160631428Y-84813429D01*
X160869524Y-84813429D01*
X160964762Y-84765810D01*
X161440952Y-85194381D02*
X161440952Y-84527714D01*
X161440952Y-84718190D02*
X161488571Y-84622952D01*
X161536190Y-84575333D01*
X161631428Y-84527714D01*
X161726667Y-84527714D01*
X161964762Y-84527714D02*
X162202857Y-85194381D01*
X162440953Y-84527714D02*
X162202857Y-85194381D01*
X162107619Y-85432476D01*
X162060000Y-85480095D01*
X161964762Y-85527714D01*
X163536191Y-84908667D02*
X164012382Y-84908667D01*
X163440953Y-85194381D02*
X163774286Y-84194381D01*
X164107620Y-85194381D01*
X165012382Y-85099143D02*
X164964763Y-85146762D01*
X164821906Y-85194381D01*
X164726668Y-85194381D01*
X164583810Y-85146762D01*
X164488572Y-85051524D01*
X164440953Y-84956286D01*
X164393334Y-84765810D01*
X164393334Y-84622952D01*
X164440953Y-84432476D01*
X164488572Y-84337238D01*
X164583810Y-84242000D01*
X164726668Y-84194381D01*
X164821906Y-84194381D01*
X164964763Y-84242000D01*
X165012382Y-84289619D01*
X166155239Y-84146762D02*
X165298096Y-85432476D01*
X166488572Y-85194381D02*
X166488572Y-84194381D01*
X166726667Y-84194381D01*
X166869525Y-84242000D01*
X166964763Y-84337238D01*
X167012382Y-84432476D01*
X167060001Y-84622952D01*
X167060001Y-84765810D01*
X167012382Y-84956286D01*
X166964763Y-85051524D01*
X166869525Y-85146762D01*
X166726667Y-85194381D01*
X166488572Y-85194381D01*
X168060001Y-85099143D02*
X168012382Y-85146762D01*
X167869525Y-85194381D01*
X167774287Y-85194381D01*
X167631429Y-85146762D01*
X167536191Y-85051524D01*
X167488572Y-84956286D01*
X167440953Y-84765810D01*
X167440953Y-84622952D01*
X167488572Y-84432476D01*
X167536191Y-84337238D01*
X167631429Y-84242000D01*
X167774287Y-84194381D01*
X167869525Y-84194381D01*
X168012382Y-84242000D01*
X168060001Y-84289619D01*
X130770381Y-108965905D02*
X131579905Y-108965905D01*
X131675143Y-108918286D01*
X131722762Y-108870667D01*
X131770381Y-108775429D01*
X131770381Y-108584952D01*
X131722762Y-108489714D01*
X131675143Y-108442095D01*
X131579905Y-108394476D01*
X130770381Y-108394476D01*
X130865619Y-107965905D02*
X130818000Y-107918286D01*
X130770381Y-107823048D01*
X130770381Y-107584952D01*
X130818000Y-107489714D01*
X130865619Y-107442095D01*
X130960857Y-107394476D01*
X131056095Y-107394476D01*
X131198952Y-107442095D01*
X131770381Y-108013524D01*
X131770381Y-107394476D01*
X120102381Y-121665905D02*
X120911905Y-121665905D01*
X121007143Y-121618286D01*
X121054762Y-121570667D01*
X121102381Y-121475429D01*
X121102381Y-121284952D01*
X121054762Y-121189714D01*
X121007143Y-121142095D01*
X120911905Y-121094476D01*
X120102381Y-121094476D01*
X120102381Y-120713524D02*
X120102381Y-120094476D01*
X120483333Y-120427810D01*
X120483333Y-120284952D01*
X120530952Y-120189714D01*
X120578571Y-120142095D01*
X120673810Y-120094476D01*
X120911905Y-120094476D01*
X121007143Y-120142095D01*
X121054762Y-120189714D01*
X121102381Y-120284952D01*
X121102381Y-120570667D01*
X121054762Y-120665905D01*
X121007143Y-120713524D01*
X141740381Y-97766095D02*
X140740381Y-97766095D01*
X140740381Y-97528000D01*
X140788000Y-97385142D01*
X140883238Y-97289904D01*
X140978476Y-97242285D01*
X141168952Y-97194666D01*
X141311810Y-97194666D01*
X141502286Y-97242285D01*
X141597524Y-97289904D01*
X141692762Y-97385142D01*
X141740381Y-97528000D01*
X141740381Y-97766095D01*
X141740381Y-96242285D02*
X141740381Y-96813714D01*
X141740381Y-96528000D02*
X140740381Y-96528000D01*
X140883238Y-96623238D01*
X140978476Y-96718476D01*
X141026095Y-96813714D01*
M02*
