M48
;DRILL file {KiCad 4.0.7} date Sun Oct 15 11:09:07 2017
;FORMAT={3:3/ absolute / metric / suppress leading zeros}
FMAT,2
METRIC,TZ
T1C0.400
T2C0.600
T3C0.800
T4C0.850
T5C0.900
T6C1.000
T7C1.100
T8C1.350
T9C1.500
%
G90
G05
M71
T1
X121158Y-125730
X125476Y-123952
X130048Y-119380
X140208Y-114300
X153924Y-117856
X160020Y-113792
X160020Y-116332
X161290Y-115316
X162560Y-108712
X162814Y-120904
X164338Y-114808
X164592Y-108712
X166878Y-111760
X172720Y-121158
X174244Y-111760
T2
X154940Y-123190
X156210Y-123190
X157480Y-123190
T3
X123444Y-92710
X123444Y-100330
X127254Y-92710
X127254Y-100330
X133350Y-92710
X133350Y-100330
X133350Y-104394
X133350Y-112014
X135890Y-104394
X135890Y-112014
X138430Y-104394
X138430Y-112014
T4
X122876Y-104104
X122876Y-112304
X128076Y-104104
X128076Y-112304
X152560Y-84742
X157560Y-104742
X167560Y-104742
X172560Y-84742
T5
X144780Y-111252
X144780Y-113792
T6
X137668Y-94488
X137668Y-97028
X137668Y-99568
X149606Y-111252
X149606Y-113792
X163830Y-125730
X166370Y-125730
X168910Y-125730
X171450Y-125730
X173990Y-125730
X176530Y-125730
T7
X132842Y-120650
X132842Y-125150
X139342Y-120650
X139342Y-125150
X142494Y-120650
X142494Y-125150
X148994Y-120650
X148994Y-125150
T8
X125596Y-85852
X140596Y-85852
T9
X124366Y-75588
X134366Y-75588
X144366Y-75588
X152814Y-75588
X162814Y-75588
X172814Y-75588
T0
M30
