G04 #@! TF.FileFunction,Soldermask,Top*
%FSLAX46Y46*%
G04 Gerber Fmt 4.6, Leading zero omitted, Abs format (unit mm)*
G04 Created by KiCad (PCBNEW 4.0.7) date Sun Oct 15 11:09:15 2017*
%MOMM*%
%LPD*%
G01*
G04 APERTURE LIST*
%ADD10C,0.100000*%
%ADD11R,1.400000X1.900000*%
%ADD12R,2.900000X4.400000*%
%ADD13R,2.750000X2.750000*%
%ADD14C,2.750000*%
%ADD15R,2.200000X2.200000*%
%ADD16C,2.200000*%
%ADD17C,2.800000*%
%ADD18C,3.050000*%
%ADD19R,2.100000X2.100000*%
%ADD20O,2.100000X2.100000*%
%ADD21C,3.200000*%
%ADD22R,3.200000X3.200000*%
%ADD23O,1.300000X1.900000*%
%ADD24R,1.300000X1.900000*%
%ADD25C,2.000000*%
%ADD26O,2.000000X2.000000*%
%ADD27C,2.400000*%
%ADD28R,2.000000X2.800000*%
%ADD29O,2.000000X2.800000*%
%ADD30R,2.180000X2.400000*%
%ADD31O,2.200000X2.200000*%
G04 APERTURE END LIST*
D10*
D11*
X174718980Y-122428000D03*
X172720000Y-122428000D03*
X162722560Y-122428000D03*
X162722560Y-110228000D03*
X164721540Y-110228000D03*
X170718480Y-110228000D03*
X168722040Y-110228000D03*
X172720000Y-110228000D03*
X166723060Y-110228000D03*
X170718480Y-122428000D03*
X164721540Y-122428000D03*
X168722040Y-122428000D03*
X166723060Y-122428000D03*
X174718980Y-110228000D03*
D12*
X156210000Y-111758000D03*
X156210000Y-117858000D03*
D13*
X122876000Y-112304000D03*
D14*
X128076000Y-104104000D03*
X128076000Y-112304000D03*
X122876000Y-104104000D03*
D15*
X144780000Y-113792000D03*
D16*
X144780000Y-111252000D03*
D17*
X125596000Y-85852000D03*
X140596000Y-85852000D03*
D18*
X133096000Y-85852000D03*
D19*
X163830000Y-125730000D03*
D20*
X166370000Y-125730000D03*
X168910000Y-125730000D03*
X171450000Y-125730000D03*
X173990000Y-125730000D03*
X176530000Y-125730000D03*
D21*
X134366000Y-75588000D03*
D22*
X144366000Y-75588000D03*
D21*
X124366000Y-75588000D03*
X162814000Y-75588000D03*
D22*
X172814000Y-75588000D03*
D21*
X152814000Y-75588000D03*
D19*
X149606000Y-111252000D03*
D20*
X149606000Y-113792000D03*
D23*
X156210000Y-123190000D03*
X157480000Y-123190000D03*
D24*
X154940000Y-123190000D03*
D25*
X127254000Y-100330000D03*
D26*
X127254000Y-92710000D03*
D25*
X123444000Y-100330000D03*
D26*
X123444000Y-92710000D03*
D25*
X133350000Y-100330000D03*
D26*
X133350000Y-92710000D03*
D27*
X148994000Y-120650000D03*
X148994000Y-125150000D03*
X142494000Y-120650000D03*
X142494000Y-125150000D03*
X139342000Y-120650000D03*
X139342000Y-125150000D03*
X132842000Y-120650000D03*
X132842000Y-125150000D03*
D15*
X152560000Y-84742000D03*
X172560000Y-84742000D03*
D16*
X167560000Y-104742000D03*
X157560000Y-104742000D03*
D28*
X133350000Y-112014000D03*
D29*
X138430000Y-104394000D03*
X135890000Y-112014000D03*
X135890000Y-104394000D03*
X138430000Y-112014000D03*
X133350000Y-104394000D03*
D30*
X128016000Y-116139000D03*
X122936000Y-125669000D03*
X125476000Y-116139000D03*
X125476000Y-125669000D03*
X122936000Y-116139000D03*
X128016000Y-125669000D03*
D15*
X137668000Y-94488000D03*
D31*
X137668000Y-97028000D03*
X137668000Y-99568000D03*
M02*
